<svg  viewBox="0 0 98 81" fill="none" xmlns="http://www.w3.org/2000/svg">
<path d="M0.161715 41C0.161715 41 3.56436 24.3372 20.8439 23.0897C37.3178 23.0013 58 23.0897 58 23.0897V14H19.6792C19.6792 14 -2.07758 14.8928 0.161715 41Z" fill="white"/>
<path d="M45.9957 34V42.7385H22.1372C19.5024 42.7604 16.9403 43.6145 14.8095 45.1814C12.6786 46.7482 11.0856 48.9495 10.2533 51.4769C6.92226 60.5791 12.3239 66.1317 12.3239 66.1317C12.3239 66.1317 16.5503 73.2308 27.5822 70.6821C38.6141 68.1335 37.263 57.4999 37.263 57.4999L45.9957 57.4835C45.9957 57.4835 46.7165 74.687 29.5202 79.9662C12.3239 85.2453 2.96095 68.5888 2.96095 68.5888C2.96095 68.5888 -3.70119 55.5734 2.96095 45.6057C5.43379 41.8556 8.73911 38.7415 12.6133 36.5118C15.5257 34.8589 18.8109 33.9942 22.1508 34.0014L45.9957 34Z" fill="white"/>
<path d="M72.996 35C71.679 35.0191 70.4212 35.55 69.4887 36.4803C68.5562 37.4105 68.0223 38.6671 68 39.984C67.9969 40.9738 68.2875 41.9422 68.8352 42.7666C69.3828 43.5911 70.1629 44.2344 71.0764 44.6152C71.99 44.996 72.9961 45.097 73.9671 44.9056C74.9382 44.7141 75.8306 44.2388 76.5313 43.5398C77.232 42.8407 77.7095 41.9495 77.9032 40.9789C78.097 40.0083 77.9983 39.002 77.6198 38.0875C77.2412 37.173 76.5997 36.3915 75.7766 35.8418C74.9535 35.2922 73.9858 34.9992 72.996 35Z" fill="white"/>
<path d="M94.4151 26.2194C93.8995 26.0058 93.4722 25.6206 93.2046 25.1281C92.937 24.6357 92.8452 24.0656 92.9445 23.5132C93.0228 19.0301 92.9958 14.547 92.9688 10.0639C93.0313 7.86073 92.3841 5.69635 91.1239 3.89416C89.8637 2.09198 88.0582 0.748756 85.9772 0.0652089C85.9205 0.0448311 85.8625 0.0190192 85.8099 0H7.09416C5.10045 0.6126 3.34654 1.83686 2.07735 3.50181C0.808173 5.16675 0.0871012 7.18924 0.0148413 9.28683C0 9.57891 0 9.87099 0 10.1617V23.2524C0.943751 20.902 2.27377 18.7283 3.9343 16.8225C4.30668 16.396 4.68986 15.9952 5.07978 15.6134C5.07978 13.9407 5.07978 12.2652 5.07978 10.5869C5.04358 9.60562 5.19142 8.62624 5.51558 7.70008C5.86217 6.8291 6.44906 6.07618 7.20692 5.53022C7.96479 4.98426 8.86199 4.66806 9.79258 4.61896C10.0093 4.60067 10.2268 4.59432 10.4442 4.59994C38.8843 4.59994 54.0144 4.59994 82.4544 4.59994C83.6234 4.52167 84.7828 4.85705 85.7322 5.54813C86.6817 6.23921 87.3615 7.24256 87.6543 8.38477C87.769 8.84253 87.8243 9.31333 87.8188 9.7854C87.8305 14.6009 87.8305 19.4159 87.8188 24.2305C87.8188 24.4397 87.7878 24.6503 87.7635 24.9668H86.5492C81.8027 24.9668 77.0562 24.9329 72.311 24.9791C68.3022 25.0878 64.4988 26.7882 61.7302 29.7094C58.9616 32.6306 57.4525 36.5356 57.5322 40.5727C57.6118 44.6098 59.2736 48.4514 62.1551 51.2597C65.0367 54.068 68.9042 55.615 72.9141 55.5634C77.4421 55.6069 81.9714 55.5715 86.4993 55.5715H87.7649C87.7892 56.0022 87.8242 56.3527 87.8242 56.7032C87.8242 61.1863 87.7271 65.6803 87.8607 70.1634C87.9219 70.9364 87.8153 71.7135 87.5484 72.441C87.2815 73.1684 86.8606 73.8286 86.3149 74.3758C85.7693 74.923 85.1119 75.3442 84.3884 75.61C83.6649 75.8759 82.8926 75.9801 82.1252 75.9153C69.6261 75.8651 70.437 75.8963 57.9379 75.8963H41.1213C39.0023 78.0306 36.5128 79.7559 33.7762 80.9867C54.5297 81.0071 61.9747 81.0016 82.7269 80.9867C84.0994 81.0018 85.4606 80.7362 86.7281 80.2059C87.9955 79.6756 89.1428 78.8916 90.1005 77.9016C91.0581 76.9116 91.8061 75.7361 92.2992 74.4463C92.7922 73.1566 93.02 71.7794 92.9688 70.3984C92.9985 65.6191 92.9877 60.8399 92.962 56.062C92.9188 55.7663 92.9792 55.4648 93.1328 55.2092C93.2865 54.9536 93.5238 54.7598 93.804 54.6613C94.7729 54.1978 95.6292 53.526 96.3125 52.6932C96.9957 51.8604 97.4893 50.8869 97.7585 49.8413C97.8276 49.6433 97.9082 49.4496 98 49.2612V31.3166C97.7952 30.2597 97.3697 29.2588 96.7517 28.38C96.1336 27.5013 95.3372 26.7648 94.4151 26.2194ZM92.9189 47.4123C92.9054 49.4786 91.9407 50.3888 89.8912 50.401C86.9567 50.4119 84.0222 50.401 81.0876 50.401C78.4067 50.401 75.7259 50.4173 73.045 50.401C70.7248 50.4865 68.4471 49.7588 66.6005 48.3419C64.7538 46.925 63.4527 44.9068 62.9191 42.6316C61.3244 36.9707 65.8119 30.439 71.6351 30.2447C77.7497 30.0423 83.8738 30.0993 89.9938 30.0952C91.9744 30.0952 92.904 31.0693 92.9175 33.084C92.9499 37.8623 92.9499 42.6407 92.9175 47.4191" fill="white"/>
</svg>
