<svg width="41" height="41" viewBox="0 0 41 41" fill="none" xmlns="http://www.w3.org/2000/svg">
<path d="M38.7797 25.4899L39.9301 24.3404C40.2573 24.0148 40.4515 23.5791 40.4747 23.1183C40.4979 22.6575 40.3486 22.2045 40.0557 21.8477C39.7629 21.4909 39.3476 21.2559 38.8908 21.1884C38.434 21.1209 37.9684 21.2257 37.5847 21.4826L37.3427 20.6695L38.5879 19.4242C38.924 19.0913 39.1202 18.6428 39.1365 18.1703C39.1528 17.6978 38.9879 17.2369 38.6756 16.8817C38.3633 16.5265 37.927 16.3039 37.4559 16.2593C36.9849 16.2147 36.5145 16.3514 36.1409 16.6416L34.6652 11.69C35.2552 11.1198 35.8191 10.5701 36.3521 10.0387C37.7412 8.69717 38.9245 7.15817 39.8639 5.47144C41.0989 3.08346 40.5819 1.80622 39.9313 1.15619C39.2807 0.506168 38.0024 -0.0104303 35.6125 1.22348C33.9242 2.16189 32.3839 3.34431 31.0414 4.73247C30.5096 5.26389 29.956 5.82839 29.3888 6.41683L24.432 4.94002C24.7185 4.56651 24.8523 4.09816 24.8062 3.62981C24.7601 3.16145 24.5377 2.72809 24.1838 2.41746C23.83 2.10683 23.3713 1.94215 22.9005 1.95677C22.4297 1.97138 21.9821 2.16419 21.6483 2.49616L20.4008 3.74033L19.587 3.49856C19.8417 3.11515 19.9447 2.65092 19.8762 2.1959C19.8077 1.74087 19.5726 1.32747 19.2163 1.03586C18.8601 0.744256 18.4081 0.595225 17.9482 0.617669C17.4882 0.640113 17.053 0.832433 16.7268 1.15733L15.5764 2.30457L9.71106 0.559767C9.60853 0.529334 9.49969 0.527151 9.39602 0.553448C9.29235 0.579745 9.19772 0.633545 9.12214 0.709158L7.60987 2.21676C7.55012 2.27764 7.5041 2.3506 7.47491 2.43073C7.44572 2.51085 7.43404 2.59629 7.44063 2.68131C7.44723 2.76632 7.47195 2.84894 7.51315 2.92362C7.55435 2.99829 7.61107 3.06329 7.67949 3.11425L22.4769 13.9366C19.1408 17.6999 15.9268 21.4632 13.6578 24.1477L9.30475 22.4747C9.19762 22.4337 9.08087 22.4245 8.96865 22.4484C8.85643 22.4723 8.75355 22.5282 8.67245 22.6093L6.88284 24.3974C6.77168 24.5086 6.70923 24.6594 6.70923 24.8165C6.70923 24.9737 6.77168 25.1244 6.88284 25.2356L15.8275 34.1729C15.9393 34.2829 16.09 34.3445 16.2469 34.3445C16.4038 34.3445 16.5545 34.2829 16.6664 34.1729L18.4548 32.3859C18.536 32.3049 18.5919 32.2021 18.6158 32.0899C18.6397 31.9778 18.6306 31.8612 18.5895 31.7541L16.9152 27.4058C19.6064 25.1387 23.3728 21.9319 27.1347 18.5928L28.3102 20.1974C28.4048 20.3199 28.5435 20.4006 28.6968 20.4223C28.8501 20.4441 29.0058 20.4051 29.1307 20.3138C29.2556 20.2224 29.3399 20.0859 29.3655 19.9333C29.3911 19.7808 29.3561 19.6242 29.2678 19.4971L28.0249 17.8002C29.9926 16.0463 31.9351 14.2753 33.6973 12.608L39.2899 31.3493L38.5195 32.119L30.8406 21.6365C30.7962 21.5697 30.7387 21.5125 30.6716 21.4685C30.6045 21.4245 30.5292 21.3946 30.4501 21.3805C30.3711 21.3664 30.29 21.3685 30.2118 21.3866C30.1336 21.4047 30.0599 21.4385 29.9952 21.4859C29.9304 21.5333 29.876 21.5934 29.8351 21.6624C29.7943 21.7315 29.7678 21.8081 29.7575 21.8876C29.7471 21.9671 29.7529 22.0479 29.7747 22.1251C29.7965 22.2023 29.8337 22.2743 29.8841 22.3367L37.9716 33.3769C38.0226 33.4453 38.0877 33.5019 38.1624 33.5431C38.2371 33.5843 38.3198 33.609 38.4049 33.6156C38.49 33.6221 38.5755 33.6105 38.6557 33.5813C38.7359 33.5521 38.8089 33.5061 38.8699 33.4464L40.3798 31.9377C40.4555 31.8622 40.5094 31.7676 40.5357 31.6641C40.562 31.5605 40.5598 31.4517 40.5293 31.3493L38.7797 25.4899ZM22.486 3.33435C22.5484 3.27197 22.6225 3.22249 22.7041 3.18874C22.7857 3.15498 22.8731 3.1376 22.9614 3.1376C23.0497 3.1376 23.1371 3.15498 23.2186 3.18874C23.3002 3.22249 23.3743 3.27197 23.4367 3.33435C23.4992 3.39672 23.5487 3.47077 23.5825 3.55227C23.6163 3.63376 23.6336 3.72111 23.6336 3.80932C23.6336 3.89753 23.6163 3.98488 23.5825 4.06637C23.5487 4.14787 23.4992 4.22192 23.4367 4.28429L23.1582 4.56255L21.6939 4.12236L22.486 3.33435ZM17.5657 1.99324C17.6918 1.86727 17.8628 1.7965 18.0411 1.7965C18.2194 1.7965 18.3904 1.86727 18.5165 1.99324C18.6425 2.11921 18.7134 2.29007 18.7134 2.46822C18.7134 2.64637 18.6425 2.81722 18.5165 2.94319L18.3338 3.12565L16.8695 2.69002L17.5657 1.99324ZM8.94067 2.56344L9.71106 1.79367L28.4677 7.3816C26.7991 9.14009 25.0278 11.0788 23.2712 13.0471L8.94067 2.56344ZM9.24198 23.7166L12.852 25.1056C11.9458 26.1833 11.2542 27.0169 10.8421 27.5107L8.14401 24.8148L9.24198 23.7166ZM11.6856 28.3512C13.7525 25.8594 24.6808 12.7608 31.8803 5.56724C33.1388 4.26843 34.5794 3.15904 36.1569 2.27378C37.1247 1.77429 38.4202 1.31927 39.0924 1.9921C39.7647 2.66493 39.3104 3.95814 38.8105 4.92519C37.9244 6.50134 36.8141 7.94069 35.5143 9.19825C28.3148 16.393 15.2054 27.3123 12.7105 29.3775L11.6856 28.3512ZM17.35 31.818L16.2532 32.9139L13.5551 30.218C14.0481 29.8086 14.8836 29.1152 15.9621 28.2098L17.35 31.818ZM38.1428 22.5511C38.2052 22.4888 38.2794 22.4393 38.3609 22.4055C38.4425 22.3718 38.5299 22.3544 38.6182 22.3544C38.7065 22.3544 38.7939 22.3718 38.8755 22.4055C38.957 22.4393 39.0311 22.4888 39.0936 22.5511C39.156 22.6135 39.2055 22.6875 39.2393 22.769C39.2731 22.8505 39.2905 22.9379 39.2905 23.0261C39.2905 23.1143 39.2731 23.2017 39.2393 23.2832C39.2055 23.3646 39.156 23.4387 39.0936 23.5011L38.3962 24.1979L37.9602 22.7347L38.1428 22.5511ZM36.8006 17.6349C36.9267 17.5089 37.0977 17.4381 37.276 17.4381C37.4543 17.4381 37.6253 17.5089 37.7513 17.6349C37.8774 17.7609 37.9482 17.9317 37.9482 18.1099C37.9482 18.288 37.8774 18.4589 37.7513 18.5848L36.9593 19.3763L36.5233 17.9131L36.8006 17.6349Z" fill="#FF6E6A"/>
<path d="M35.9845 34.5982L30.9238 39.6547C30.8658 39.7091 30.8192 39.7746 30.787 39.8472C30.7547 39.9199 30.7375 39.9983 30.7362 40.0778C30.7349 40.1573 30.7496 40.2363 30.7795 40.31C30.8093 40.3837 30.8537 40.4506 30.9099 40.5068C30.9662 40.563 31.0332 40.6074 31.1069 40.6372C31.1807 40.667 31.2597 40.6817 31.3393 40.6804C31.4188 40.6791 31.4973 40.6619 31.57 40.6297C31.6428 40.5974 31.7083 40.5509 31.7627 40.4929L36.8234 35.4364C36.9287 35.3241 36.9862 35.1752 36.9837 35.0213C36.9812 34.8674 36.9189 34.7205 36.8099 34.6117C36.701 34.5029 36.554 34.4406 36.4 34.4381C36.2459 34.4356 36.097 34.493 35.9845 34.5982Z" fill="#FF6E6A"/>
<path d="M34.2931 32.9082C34.4043 32.7971 34.4668 32.6464 34.4668 32.4892C34.4668 32.332 34.4043 32.1812 34.2931 32.0701C34.1819 31.9589 34.031 31.8965 33.8737 31.8965C33.7163 31.8965 33.5655 31.9589 33.4542 32.0701L30.2916 35.2301C30.2336 35.2845 30.187 35.3499 30.1548 35.4226C30.1225 35.4953 30.1053 35.5737 30.104 35.6532C30.1027 35.7327 30.1174 35.8116 30.1472 35.8853C30.1771 35.959 30.2215 36.026 30.2777 36.0822C30.334 36.1384 30.401 36.1827 30.4747 36.2126C30.5485 36.2424 30.6275 36.2571 30.7071 36.2558C30.7866 36.2545 30.8651 36.2372 30.9378 36.205C31.0106 36.1728 31.0761 36.1263 31.1305 36.0683L34.2931 32.9082Z" fill="#FF6E6A"/>
<path d="M32.3951 29.7484C32.4531 29.6941 32.4996 29.6286 32.5319 29.5559C32.5641 29.4832 32.5814 29.4048 32.5827 29.3253C32.584 29.2458 32.5693 29.1669 32.5394 29.0932C32.5096 29.0195 32.4652 28.9525 32.409 28.8963C32.3527 28.8401 32.2857 28.7958 32.2119 28.766C32.1382 28.7361 32.0592 28.7214 31.9796 28.7227C31.9 28.724 31.8216 28.7413 31.7488 28.7735C31.6761 28.8057 31.6106 28.8522 31.5562 28.9102L29.342 31.1226C29.2367 31.2349 29.1792 31.3838 29.1817 31.5377C29.1842 31.6916 29.2466 31.8385 29.3555 31.9473C29.4644 32.0562 29.6114 32.1184 29.7654 32.1209C29.9195 32.1234 30.0685 32.066 30.1809 31.9608L32.3951 29.7484Z" fill="#FF6E6A"/>
<path d="M6.45939 4.57629C6.3481 4.46522 6.19724 4.40283 6.03995 4.40283C5.88265 4.40283 5.73179 4.46522 5.62051 4.57629L0.559823 9.63276C0.504643 9.68774 0.460863 9.75306 0.430991 9.82498C0.401119 9.89689 0.385742 9.97399 0.385742 10.0519C0.385742 10.1297 0.401119 10.2068 0.430991 10.2787C0.460863 10.3506 0.504643 10.416 0.559823 10.4709C0.671831 10.5806 0.822421 10.6421 0.979264 10.6421C1.13611 10.6421 1.2867 10.5806 1.39871 10.4709L6.45939 5.41448C6.57055 5.30329 6.633 5.15255 6.633 4.99538C6.633 4.83822 6.57055 4.68748 6.45939 4.57629Z" fill="#FF6E6A"/>
<path d="M8.98972 7.10314C8.9347 7.048 8.86932 7.00425 8.79735 6.97441C8.72537 6.94456 8.64821 6.9292 8.57028 6.9292C8.49235 6.9292 8.41519 6.94456 8.34321 6.97441C8.27124 7.00425 8.20587 7.048 8.15084 7.10314L4.98819 10.2632C4.87695 10.3743 4.81445 10.5251 4.81445 10.6822C4.81445 10.8394 4.87695 10.9902 4.98819 11.1013C5.09943 11.2125 5.25031 11.2749 5.40763 11.2749C5.56495 11.2749 5.71583 11.2125 5.82707 11.1013L8.98972 7.94133C9.10089 7.83013 9.16333 7.6794 9.16333 7.52223C9.16333 7.36507 9.10089 7.21433 8.98972 7.10314Z" fill="#FF6E6A"/>
<path d="M9.09926 12.0502C9.21127 12.1599 9.36186 12.2213 9.5187 12.2213C9.67554 12.2213 9.82613 12.1599 9.93814 12.0502L12.1523 9.83779C12.2576 9.72546 12.3151 9.5766 12.3126 9.42269C12.3101 9.26879 12.2478 9.12189 12.1389 9.01305C12.0299 8.9042 11.8829 8.84194 11.7289 8.83943C11.5748 8.83692 11.4259 8.89436 11.3134 8.99959L9.09926 11.212C8.9881 11.3232 8.92566 11.4739 8.92566 11.6311C8.92566 11.7882 8.9881 11.939 9.09926 12.0502Z" fill="#FF6E6A"/>
</svg>
