<svg width="38" height="38" viewBox="0 0 38 38" fill="none" xmlns="http://www.w3.org/2000/svg">
<path d="M19.0041 0.596191C14.9923 0.671015 11.1731 2.32896 8.38055 5.20795C6.98512 6.63444 5.89303 8.32833 5.17003 10.1876C4.44704 12.047 4.10808 14.0332 4.17359 16.0269C4.26008 20.0529 5.9268 23.8837 8.8143 26.6931C11.7018 29.5025 15.5787 31.0654 19.609 31.0447C23.603 30.9847 27.4096 29.3423 30.1919 26.4786C32.9743 23.6149 34.5046 19.7644 34.4463 15.7737V15.6129C34.3258 11.597 32.6474 7.78515 29.7658 4.98296C26.8842 2.18076 23.0251 0.607704 19.0041 0.596191ZM4.56621 16.2196C4.51355 12.3595 5.95251 8.62781 8.5837 5.80095C9.91112 4.42705 11.4982 3.33002 13.2531 2.57342C15.0079 1.81683 16.8955 1.41572 18.8066 1.39333C20.7289 1.34049 22.6428 1.66661 24.4389 2.35305C26.235 3.03949 27.8781 4.0728 29.2745 5.39394C30.6708 6.71508 31.7929 8.29816 32.5767 10.0527C33.3605 11.8073 33.7906 13.699 33.8425 15.6197C33.8953 17.54 33.5689 19.4518 32.8821 21.246C32.1954 23.0402 31.1616 24.6817 29.8399 26.0767C28.5181 27.4716 26.9343 28.5928 25.1789 29.3762C23.4235 30.1595 21.5308 30.5897 19.609 30.6422C17.6869 30.6956 15.7731 30.3701 13.9771 29.6841C12.181 28.9982 10.5378 27.9653 9.14142 26.6445C7.74504 25.3238 6.62285 23.741 5.83898 21.9866C5.05512 20.2323 4.62494 18.3408 4.57305 16.4203C4.5744 16.3548 4.57211 16.2894 4.56621 16.2242" fill="#018152"/>
<path d="M32.8427 17.2221L32.6384 16.8218C32.0404 16.6177 31.8395 17.026 31.8395 17.026H30.8305V17.2301H31.8372V17.4343H32.0415V17.0339L32.8427 17.2221Z" fill="#018152"/>
<path d="M10.9828 6.60638H11.3834L11.1791 6.20605H10.9759V6.60638H10.9828Z" fill="#018152"/>
<path d="M11.1871 6.00195H10.9828V6.20605H11.1871V6.00195Z" fill="#018152"/>
<path d="M11.4574 6.21379L11.4642 6.00977L11.26 6.00303L11.2533 6.20705L11.4574 6.21379Z" fill="#018152"/>
<path d="M8.17624 10.4102C8.17585 10.3587 8.1562 10.3092 8.12114 10.2714C8.08609 10.2336 8.03816 10.2103 7.98678 10.2061H7.97994C7.77564 10.4102 7.18101 10.2061 7.18101 10.2061L7.38531 10.8036C7.79638 10.7835 8.2069 10.8532 8.58828 11.0078C8.98888 11.6053 8.18767 12.2097 8.18767 12.2097C8.23814 12.4134 8.24603 12.6252 8.21088 12.832C8.17573 13.0388 8.09828 13.2362 7.98337 13.4117C8.18767 14.0093 7.58275 15.2112 7.58275 15.2112C7.55432 15.6396 7.41638 16.0534 7.18214 16.4132C7.18522 16.6202 7.10657 16.82 6.96323 16.9694C6.81988 17.1189 6.62339 17.2058 6.41631 17.2115H6.37521V17.6118C6.37521 17.4077 6.97328 17.4077 6.97328 17.4077V18.2059C7.37388 18.4101 7.37388 17.2001 7.37388 17.2001C7.50456 17.0281 7.57621 16.8185 7.57818 16.6025H7.97879V16.3984H7.57818C7.78248 16.1943 7.78248 15.6001 7.78248 15.6001C7.95716 15.3567 8.09235 15.0873 8.18309 14.8018L8.58371 14.5977L8.78801 14.1974C8.58371 14.1974 8.58371 13.7972 8.58371 13.7972C8.78801 13.7972 8.78801 12.9989 8.78801 12.9989C8.91869 12.8269 8.99032 12.6173 8.9923 12.4013L9.1966 11.8037C9.2143 11.4896 9.12222 11.1791 8.9361 10.9253C8.74997 10.6715 8.48137 10.4902 8.17624 10.4125" fill="#018152"/>
<path d="M12.5898 5.20459C11.9917 5.20459 12.5898 5.80215 12.5898 5.80215C12.5898 6.20242 11.9917 6.20242 11.9917 6.20242L11.7874 6.79998H11.3868L11.1825 7.39754H10.7819V7.9951L8.98087 10.1949C8.38281 10.5952 9.18517 9.18908 9.18517 9.18908C9.18477 9.13757 9.16512 9.08807 9.13006 9.0503C9.09501 9.01253 9.04708 8.98922 8.9957 8.98495H8.98886C8.81338 9.16956 8.68528 9.3939 8.61551 9.63878C8.54574 9.88365 8.53639 10.1418 8.58825 10.391C8.98886 10.9886 10.9942 8.3874 10.9942 8.3874C11.1985 8.18327 11.1985 7.58913 11.1985 7.58913C11.1985 7.385 11.9974 6.79086 11.9974 6.79086C11.9974 6.58673 12.5955 6.58673 12.5955 6.58673C12.3912 6.58673 12.3912 6.18646 12.3912 6.18646C12.5434 6.20925 12.684 6.2809 12.7918 6.39058V6.18646L12.5875 5.98233C12.7849 5.41214 12.5875 5.20231 12.5875 5.21029" fill="#018152"/>
<path d="M13.5942 4.60352C13.5942 4.60352 12.9961 4.60352 13.1935 4.80766C13.1935 4.80766 13.7916 4.60351 13.5942 5.0118C13.5938 5.06331 13.5741 5.11282 13.5391 5.15059C13.504 5.18836 13.4561 5.21167 13.4047 5.21594H13.3978C13.3978 5.21594 12.9972 5.81354 13.3978 5.61624C13.391 5.80555 14.1968 4.79967 13.5942 4.60352Z" fill="#018152"/>
<path d="M14.5928 4.39929C14.7971 4.19516 15.5995 4.60342 15.5995 4.60342C16.0001 5.0037 16.0001 4.60342 16.0001 4.60342C15.7958 4.20201 13.5941 4.00586 13.5941 4.00586V4.20999C14.3931 4.20999 14.3931 4.41412 14.3931 4.41412V4.81439H14.5974L14.5928 4.39929Z" fill="#018152"/>
<path d="M17.6036 3.8017V3.59766H17.3994V3.8017H17.6036Z" fill="#018152"/>
<path d="M19.2083 3.40143V3.19727H19.0041V3.40143H19.2083Z" fill="#018152"/>
<path d="M20.0107 3.19727V3.79483C20.0107 4.19511 19.4126 3.99897 19.4126 3.99897L19.2083 3.59869H19.0041V3.99554C19.0041 4.19967 18.406 4.19967 18.406 4.19967V3.80168H17.3993C16.8013 4.00581 16.9987 4.20196 16.9987 4.20196H17.5968C17.5968 4.60223 16.5901 4.60223 16.5901 4.60223C16.1895 4.60223 16.1895 3.80396 16.1895 3.80396C15.9852 4.00809 15.9852 3.20639 15.9852 3.20639H15.7809C15.7237 3.33168 15.6941 3.4678 15.6941 3.60553C15.6941 3.74325 15.7237 3.87937 15.7809 4.00467C16.1815 3.80054 16.1815 4.60223 16.1815 4.60223C15.9772 5.00251 15.5835 4.60223 15.5835 4.60223C15.3792 5.00251 14.5768 5.1998 14.5768 5.1998C14.7811 5.40393 15.5835 4.99567 15.5835 4.99567C15.9437 4.93543 16.2869 4.79896 16.5901 4.59539C18.1937 4.59539 18.3911 3.99782 18.3911 3.99782C19.3978 3.99782 19.5941 3.59754 19.5941 3.59754C19.9947 3.80168 20.1922 3.59754 20.1922 3.59754V3.80168H20.3988L20.603 3.4014C20.3969 3.36319 20.1976 3.29439 20.0119 3.19727" fill="#018152"/>
<path d="M23.2179 4.60247V4.20218C23.0136 3.99804 22.0149 4.40632 22.0149 4.40632L23.8159 5.00391C24.0202 4.59563 23.2179 4.59563 23.2179 4.60361" fill="#018152"/>
<path d="M25.8224 5.60138V5.20117H25.618V5.40526L25.8224 5.60138Z" fill="#018152"/>
<path d="M27.0254 6.40295C26.8211 6.80322 25.8224 6.00268 25.8224 6.00268V5.60241H25.6135C25.4092 6.00268 24.4106 5.39828 24.4106 5.39828C24.4443 5.18898 24.5134 4.98692 24.6149 4.80073L24.8192 4.5966C24.8625 4.32479 24.9309 4.05757 25.0235 3.79834L24.2245 4.19861L24.4288 4.79617L24.0282 5.19644C23.8239 5.59671 23.4301 5.19644 23.4301 5.19644L20.8199 4.19063C20.8199 4.5909 23.4301 5.39258 23.4301 5.39258C23.6344 5.59671 24.2291 5.59671 24.2291 5.59671L24.8271 5.99698C25.0992 6.04024 25.3666 6.10858 25.6261 6.2011L26.0267 6.60138V7.00165H26.231L26.4353 6.79752C26.6448 6.83124 26.847 6.90027 27.0334 7.00165C27.1641 6.82966 27.2358 6.62007 27.2376 6.40409L27.0254 6.40295Z" fill="#018152"/>
<path d="M30.0362 9.60744V10.205H30.4368V9.80473L30.0362 9.60744L29.8319 9.00302L29.6276 8.40545C29.6276 8.40545 29.0295 7.80787 28.6209 8.00516V8.40431L29.0215 9.00188C29.0215 9.00188 29.0215 9.20601 28.8172 9.00188C28.3065 8.29826 27.837 7.56565 27.4111 6.80773C27.4111 6.80773 27.4111 6.21015 28.4178 7.01186C28.4178 7.01186 28.8184 7.01186 28.8184 6.80773C28.8184 6.80773 27.6154 5.80188 27.4111 6.60359C27.6706 7.46814 28.0776 8.28143 28.6141 9.00758C28.6141 9.00758 29.2121 9.60516 29.6207 9.21172L30.0362 9.60744ZM28.8332 8.40431C29.0375 8.00402 29.4313 8.60844 29.4313 8.60844V9.00872C29.227 9.20602 28.8332 8.40431 28.8332 8.40431Z" fill="#018152"/>
<path d="M31.2323 16.6244C31.2323 16.4203 31.4366 16.4203 31.2323 16.6244L30.6342 16.4203V15.8227L30.8386 15.6186C31.0429 15.4144 30.4379 15.4144 30.4379 15.4144C30.2336 15.4144 30.2337 14.8169 30.2337 14.8169H30.6342V14.6128H30.43C30.1888 14.1152 30.1171 13.5526 30.2256 13.0105L30.8237 12.8064L31.028 13.0105L31.2323 12.8064C31.2323 12.6023 32.0312 12.6023 32.0312 12.6023L31.4332 12.202C31.2289 12.202 31.0326 12.7995 31.0326 12.7995H30.4345C30.0339 13.0037 30.0339 12.3993 30.0339 12.3993C30.632 12.7995 30.8328 12.1951 30.8328 12.1951C31.0783 11.5545 31.2137 10.8771 31.2334 10.1915C31.0291 9.98736 30.8328 10.9898 30.8328 10.9898H30.2348C30.2348 11.1939 30.6354 11.1939 30.6354 11.1939C30.6111 11.5366 30.5424 11.8747 30.4311 12.1997C29.8331 12.7973 29.6322 11.1939 29.6322 11.1939C29.6322 10.5963 29.4278 10.7936 29.4278 10.7936C29.6321 13.4017 30.0259 12.9934 30.0259 12.9934C29.9173 13.323 29.8793 13.6718 29.9145 14.017C29.9497 14.3622 30.0573 14.6961 30.2302 14.9971C30.0259 15.3973 30.4345 16.0029 30.4345 16.0029V16.4077C30.4345 16.8228 31.2334 16.6187 31.2334 16.6267" fill="#018152"/>
<path d="M13.1924 26.0373C13.3967 25.4398 13.1924 25.0315 12.5943 24.6312C12.39 24.4271 11.9963 24.231 11.7954 24.6312C11.5945 25.0315 12.196 25.2288 12.3935 25.4295C12.3935 25.4295 12.5978 25.6336 12.3935 25.6336L11.1905 24.6278V24.2287C11.1389 24.2291 11.0894 24.2487 11.0516 24.2837C11.0138 24.3188 10.9905 24.3666 10.9862 24.418V24.4248C10.7819 24.629 10.7819 24.8251 10.5856 25.0224C10.5856 24.8183 10.7899 24.6221 10.5856 24.4248L10.3813 24.2207L9.17832 22.8146L8.17168 21.015V20.8109C8.57229 20.6068 8.57229 20.4106 8.57229 20.0126C8.57229 19.8085 8.36799 19.8085 8.36799 19.6124V19.2109C8.16369 19.2109 7.96738 19.6112 8.16369 20.0092C8.16369 20.2133 8.36799 20.2134 8.36799 20.4095C8.36799 20.4095 8.57229 20.8098 8.36799 20.8098L8.16369 20.6056L7.76308 19.4037L7.55878 19.8039C7.59251 20.0133 7.6616 20.2153 7.76308 20.4015C7.76308 20.1974 7.36248 20.0012 7.36248 20.1974C7.15818 20.1974 7.15818 20.4015 7.15818 20.5977C7.15818 20.7938 7.36247 20.9979 7.55878 20.8018C7.55878 21.0059 7.55878 21.0059 7.35448 21.0059C7.25061 20.9987 7.15283 20.9543 7.0792 20.8807C7.00557 20.8071 6.96107 20.7094 6.95388 20.6056V20.0092L6.55327 20.4095C6.61299 21.0365 6.47276 21.6664 6.15265 22.209H6.35695L6.56125 21.6115C6.56125 21.4073 6.56125 21.2112 6.76555 21.2112C6.86061 21.333 6.98163 21.4321 7.11983 21.5014C7.25802 21.5706 7.40992 21.6082 7.56448 21.6115C7.70327 21.5334 7.81558 21.4158 7.88696 21.2735C7.95834 21.1313 7.98555 20.971 7.9651 20.8132L8.1694 21.6115V21.8156C8.1694 22.2159 8.57001 22.2159 8.1694 22.4132C8.1694 22.4132 7.76878 22.4132 7.76878 22.209L7.97308 22.0049H7.76878C7.69357 22.0839 7.63637 22.1782 7.6011 22.2813C7.56583 22.3845 7.55333 22.494 7.56448 22.6025C7.76878 23.0027 8.36342 22.8066 8.36342 23.0027C8.56772 23.2069 8.15913 23.403 7.96282 23.6003C7.75852 23.6003 7.7585 23.8044 7.5622 23.8044L7.3579 24.2047L8.96262 23.4064L9.16692 23.6106L9.96585 24.8125L9.76155 25.0167V24.6164L9.55725 24.4123C9.55725 24.2081 9.55725 24.2081 9.35295 24.012C9.14865 23.8159 8.75489 23.8079 8.75489 24.012C8.66044 24.1236 8.60861 24.265 8.60861 24.4111C8.60861 24.5573 8.66044 24.6987 8.75489 24.8103C8.86271 24.92 9.00334 24.9916 9.15551 25.0144C9.35981 25.0144 9.35981 24.8103 9.35981 24.6141C9.33448 24.5877 9.30417 24.5666 9.27062 24.5519C9.23708 24.5372 9.20096 24.5294 9.16436 24.5287C9.12775 24.5281 9.09137 24.5347 9.05734 24.5482C9.0233 24.5617 8.99228 24.5818 8.96605 24.6073L8.95919 24.6141V24.41C8.98451 24.3836 9.01482 24.3624 9.04837 24.3478C9.08192 24.3331 9.11803 24.3253 9.15464 24.3246C9.19124 24.324 9.22762 24.3306 9.26166 24.3441C9.29569 24.3576 9.32672 24.3776 9.35295 24.4032L9.35981 24.41C9.35981 24.6141 9.56411 24.8103 9.35981 24.8103L9.56411 25.0144H9.76839V25.2185L8.96946 25.8161V26.2164L10.3767 25.0144L10.581 25.2185C10.7853 25.4227 10.581 25.6188 10.3767 25.6188L9.5778 26.4171V26.8174L10.9851 25.4112L11.1894 25.6154V25.8195C11.1894 26.0236 11.59 26.2198 11.3937 26.6178C11.1894 26.4137 10.9931 26.2175 10.7956 26.6178C10.7692 26.6431 10.748 26.6734 10.7333 26.7069C10.7187 26.7404 10.7108 26.7765 10.7102 26.8131C10.7095 26.8497 10.7161 26.886 10.7296 26.92C10.7431 26.954 10.7632 26.985 10.7888 27.0112L10.7956 27.0181C10.7956 27.0181 11.1962 27.2222 11.1962 27.0181C11.4005 27.2222 11.1962 27.8163 11.1962 28.0239L12.3992 26.6178L12.6035 26.8219H12.8078L12.0088 28.228V28.6283L13.0155 27.0249L13.4161 27.229L13.197 26.0271L13.1924 26.0373ZM8.57685 22.4314C8.57685 22.2273 8.78115 22.2273 8.57685 22.0311C8.5253 22.0307 8.47575 22.0111 8.43794 21.9761C8.40014 21.9411 8.37682 21.8932 8.37255 21.8418V21.8338C8.57685 21.6297 8.57685 21.6297 8.57685 21.4336L8.97745 22.0311L8.57685 22.4314ZM11.5888 26.6429V26.2426C11.772 25.9413 11.8443 25.5856 11.7931 25.2368L12.3912 25.6371L11.5888 26.6429ZM12.9961 25.8446L12.5955 25.6405C12.7998 25.2402 12.3912 25.0429 12.1949 24.8422C12.1433 24.8418 12.0938 24.8222 12.056 24.7871C12.0182 24.7521 11.9948 24.7042 11.9906 24.6529V24.6461C12.1949 24.6461 12.3912 24.6461 12.3912 24.8502C12.7918 25.0463 13.1901 25.4398 12.9961 25.848" fill="#018152"/>
<path d="M17.4005 27.6372V27.433H17.1962V28.2313C17.1962 28.0272 17.1962 27.6337 16.7956 27.6337H16.5913L15.7924 27.4296L13.9879 26.8389L14.1922 27.2392L15.3952 27.6394C14.9835 27.6085 14.5706 27.6786 14.1922 27.8436L14.3965 28.2438C15.1954 28.6441 14.9946 29.2497 15.1954 29.4458L15.7935 27.6463L16.1941 27.8504H16.5947C16.3904 28.0545 16.1941 28.0545 16.1941 28.2507V29.049C16.1941 29.4493 15.7935 29.4493 15.596 29.4493C15.5964 29.5008 15.6161 29.5503 15.6511 29.588C15.6862 29.6258 15.7341 29.6491 15.7855 29.6534H15.7924C16.0926 29.6025 16.3708 29.4631 16.5913 29.2531C16.5597 28.9051 16.6308 28.5555 16.7956 28.2473C16.7956 28.0432 16.9999 28.0431 17.1962 28.0431C17.4005 28.0431 17.4005 28.2473 17.4005 28.4434L17.1962 29.6454L17.4005 29.8495L17.6048 28.05H18.0054L17.3925 27.6349L17.4005 27.6372ZM14.9946 28.4354C14.9946 28.2313 14.7903 28.0352 14.594 27.8379H15.192L14.9946 28.4354Z" fill="#018152"/>
<path d="M18.0054 29.2431C18.4352 29.4687 18.7862 29.8195 19.0121 30.2489V30.0448C18.6115 29.6445 18.414 29.2465 18.0054 28.8428V29.2431Z" fill="#018152"/>
<path d="M18.4049 28.635C18.4841 28.635 18.5616 28.6115 18.6274 28.5676C18.6933 28.5236 18.7447 28.4611 18.775 28.3879C18.8053 28.3148 18.8133 28.2343 18.7978 28.1567C18.7823 28.079 18.7442 28.0077 18.6882 27.9517C18.6321 27.8957 18.5607 27.8576 18.483 27.8422C18.4053 27.8267 18.3248 27.8347 18.2516 27.865C18.1784 27.8953 18.1158 27.9465 18.0718 28.0124C18.0278 28.0782 18.0043 28.1556 18.0043 28.2348C17.8 28.4389 17.9974 28.635 18.4049 28.635ZM18.4049 28.0375C18.4049 28.2416 18.4049 28.4378 18.2006 28.4378V28.2336C18.201 28.1821 18.2206 28.1326 18.2557 28.0948C18.2907 28.057 18.3387 28.0338 18.39 28.0295C18.3969 28.0363 18.3969 28.0363 18.4049 28.0363" fill="#018152"/>
<path d="M21.0094 27.6406L18.6035 27.8448L18.8077 28.0489H20.0107C19.6507 28.2037 19.3123 28.4046 19.004 28.6465L19.4047 29.0467C19.6114 29.0436 19.8149 29.0977 19.9926 29.2032C20.1703 29.3087 20.3153 29.4614 20.4113 29.6443L20.6156 29.8484L20.4113 28.4423C20.6156 28.4423 21.0094 28.6465 21.0094 28.8426H20.8051C20.7535 28.843 20.704 28.8627 20.6662 28.8977C20.6284 28.9327 20.6051 28.9806 20.6008 29.0319V29.0388C20.6008 29.2429 20.8051 29.2429 21.0014 29.2429C21.1052 29.2357 21.203 29.1912 21.2767 29.1177C21.3503 29.0441 21.3948 28.9464 21.402 28.8426C21.402 28.4423 21.0014 28.0443 20.603 28.245H21.6097L21.0094 27.6406ZM19.6089 28.6465C19.8132 28.4423 20.0096 28.4423 20.207 28.2462V29.0445C20.0027 28.8403 19.8064 28.8403 19.6089 28.6442" fill="#018152"/>
<path d="M24.6183 26.6426L24.2177 26.4385H24.0134L23.8091 26.2344H23.6048V26.4385C23.8091 26.6426 24.0054 26.8388 24.0054 27.0361C23.8011 26.8319 23.6048 26.6358 23.4074 26.6358H23.203L21.402 27.2334L21.8026 27.4375L23.0056 27.0372C22.6369 27.2768 22.3564 27.6299 22.2067 28.043L22.6073 28.2472C23.4062 28.043 23.6139 28.6475 24.0145 28.6475L23.4165 26.841L23.8171 26.6369C24.0214 26.6369 24.0214 26.6369 24.2177 26.841L24.8157 28.043L25.2164 28.2472L24.4174 26.4476L24.6183 26.6426ZM23.6116 28.4422C23.4073 28.2381 23.211 28.238 22.8127 28.238L23.2133 27.8378L23.6116 28.4422Z" fill="#018152"/>
<path d="M25.2243 27.2402L25.4286 27.6405C25.9068 27.6099 26.3862 27.6794 26.8359 27.8446L26.6316 27.6405C26.2025 27.3936 25.7192 27.2561 25.2243 27.2402Z" fill="#018152"/>
<path d="M25.4207 27.0365C25.5265 26.9838 25.6073 26.8915 25.6456 26.7796C25.6838 26.6678 25.6764 26.5453 25.6249 26.4389C25.5991 26.3862 25.5631 26.3393 25.5189 26.3008C25.4746 26.2623 25.4231 26.233 25.3674 26.2146C25.3117 26.1962 25.2529 26.1891 25.1944 26.1938C25.1359 26.1984 25.079 26.2146 25.0269 26.2416C24.921 26.2943 24.8402 26.3866 24.8019 26.4985C24.7637 26.6104 24.7711 26.7328 24.8226 26.8392C24.901 26.9149 24.9956 26.9719 25.0991 27.006C25.2026 27.0402 25.3125 27.0506 25.4207 27.0365ZM25.2243 26.4389C25.4286 26.643 25.4286 26.8392 25.2243 26.8392H25.02C25.0428 26.6871 25.1145 26.5466 25.2243 26.4389Z" fill="#018152"/>
<path d="M30.64 20.4277L31.6466 20.828L32.0472 20.6239L30.4425 19.8256L30.6468 19.4253L30.2462 19.6294C30.2462 19.8336 29.8456 19.8336 29.8456 19.8336C30.035 20.2338 30.2394 20.4311 30.6445 20.4311C30.4402 20.227 29.8456 20.227 29.8456 20.6353C29.8304 20.7439 29.841 20.8546 29.8765 20.9584C29.912 21.0622 29.9714 21.1562 30.0499 21.2328C29.8977 21.2556 29.7571 21.3273 29.6493 21.437L29.445 21.8372L28.4383 23.2434L27.6394 24.2492V24.4533H27.2388C27.2392 24.5048 27.2588 24.5543 27.2939 24.5921C27.3289 24.6299 27.3769 24.6532 27.4282 24.6574H27.4351C27.6394 24.8616 27.8357 24.8616 28.0331 25.0577C27.8288 25.0577 27.6325 24.8536 27.4351 25.0577L27.2308 25.2618L25.6261 26.4638H26.0267L27.2297 25.458L27.4339 25.6621H27.0334L26.829 25.8663C26.6247 25.8663 26.6248 25.8663 26.4285 26.0704C26.3367 26.1774 26.2879 26.3147 26.2915 26.4556C26.295 26.5964 26.3507 26.731 26.4477 26.8334C26.5447 26.9357 26.6762 26.9985 26.8168 27.0096C26.9574 27.0208 27.0972 26.9795 27.2091 26.8938L27.2308 26.8721C27.3406 26.7644 27.4123 26.6239 27.4351 26.4718C27.4351 26.2677 27.2308 26.2677 27.0345 26.2677C27.008 26.293 26.9869 26.3233 26.9722 26.3568C26.9576 26.3903 26.9497 26.4264 26.949 26.463C26.9484 26.4995 26.955 26.5359 26.9685 26.5699C26.982 26.6039 27.0021 26.6349 27.0276 26.6611L27.0345 26.668H26.8302C26.8038 26.6426 26.7826 26.6124 26.7679 26.5788C26.7532 26.5453 26.7454 26.5092 26.7447 26.4727C26.7441 26.4361 26.7507 26.3998 26.7642 26.3657C26.7777 26.3317 26.7978 26.3007 26.8233 26.2745L26.8302 26.2677C27.0345 26.2677 27.2308 26.0635 27.2308 26.2677L27.4351 26.0635L27.2308 25.8594V25.6553H27.4351L28.0331 26.4536H28.4338L27.2308 25.0475L27.4351 24.8433C27.6394 24.6392 27.8357 24.8433 27.8357 25.0475L28.6346 25.8457H29.0352L27.628 24.4465L27.8323 24.2423L28.2329 23.8421C28.2369 23.9963 28.2749 24.1478 28.3442 24.2858C28.4134 24.4238 28.5122 24.5448 28.6335 24.6403C29.0341 24.8445 29.4324 25.0406 29.8365 24.6403C30.0408 24.4362 30.0408 24.2401 29.8365 24.2401H29.4358V24.6403H29.6402C29.4359 24.8445 29.2395 24.6403 29.0421 24.4362C28.6415 24.0359 28.6415 23.8386 28.6415 23.2342L28.8458 23.0301L29.6447 23.6277L30.0453 23.4235C29.8621 23.1222 29.7899 22.7665 29.841 22.4177C29.9488 22.5275 30.0894 22.5991 30.2416 22.6218C30.4459 22.826 30.6422 22.826 31.0406 23.0221L31.2449 22.818C31.0406 22.818 30.8442 22.6138 30.6468 22.6138C30.3992 22.3875 30.1964 22.1167 30.0488 21.8156L29.6481 22.0197V23.0255L29.0501 22.6252L29.849 21.4233C29.849 21.2191 29.849 21.2191 30.0533 21.023C30.0761 21.175 30.1478 21.3155 30.2576 21.4233C30.4619 21.4233 30.6582 21.4233 30.6582 21.2191V20.8189C30.8625 20.8189 30.8625 20.8189 30.8625 20.6147C30.8625 20.4106 30.8625 20.4106 30.6582 20.2144C30.4539 20.2144 30.2576 20.2145 30.2576 20.4186V20.2202C30.2359 20.6353 30.4322 20.4311 30.6365 20.4311" fill="#018152"/>
<path d="M37.0474 18.228C37.0474 18.228 34.8458 17.026 34.8458 17.6304C34.8458 17.6304 33.6428 29.0469 22.4132 31.4508V30.6525H21.8152V31.4508H20.2139V30.8532H19.6158V31.4508H17.203V30.6525H16.605V31.6584C13.3587 31.0975 10.3789 29.509 8.10497 27.1272C5.83109 24.7453 4.38363 21.6962 3.97613 18.4298C3.97613 18.4298 4.18043 18.0295 3.77183 18.0295C3.77183 18.0295 1.5702 17.8254 1.1616 18.4298C0.6019 20.3729 0.816212 22.457 1.75966 24.2458H2.76632C2.76632 24.2458 5.97461 30.6571 12.1869 33.2652C12.1869 33.2652 10.5822 34.0634 10.9839 34.271L12.3912 36.2747C12.5326 36.4703 12.7112 36.6361 12.9169 36.7625C13.1226 36.889 13.3512 36.9736 13.5897 37.0115C13.8282 37.0494 14.0719 37.04 14.3067 36.9836C14.5415 36.9272 14.7628 36.825 14.958 36.6829C15.0449 36.6205 15.1256 36.5498 15.1989 36.472C15.5763 35.8259 15.9125 35.1567 16.2055 34.4683C17.3929 34.2221 18.6008 34.0877 19.8133 34.0669C21.091 34.0944 22.3642 34.2283 23.6196 34.4671C23.6196 34.4671 25.2243 37.8769 27.0322 36.2667L29.0375 34.0669L27.4328 32.8649C27.4328 32.8649 34.4543 29.0617 36.051 23.4521C36.051 23.4521 36.6491 24.0497 37.0577 23.4521C37.4285 22.8307 37.6982 22.1544 37.8566 21.4484C37.8498 21.4336 38.4467 18.228 37.0474 18.228ZM1.55194 23.2457C1.55194 23.2457 1.34764 23.2457 1.15133 22.8454C0.959728 21.9195 0.825928 20.9826 0.750717 20.04C0.765019 19.4827 0.901789 18.9353 1.15133 18.4367C1.15133 18.6408 1.35563 19.0342 1.55194 20.2362C1.34764 20.2362 1.34764 20.4403 1.15133 20.8337V21.0379C1.21126 21.5543 1.41889 22.0425 1.74938 22.444V22.6481C1.71952 22.8573 1.65307 23.0595 1.55308 23.2457H1.55194ZM4.16331 25.2494L5.57058 24.4511L5.77487 24.6552L4.36761 25.4535L4.16331 25.2494ZM4.96224 26.4513C4.56163 26.0511 4.75794 25.6531 4.96224 25.6531L5.16654 25.8572C5.1401 25.8825 5.11894 25.9128 5.10427 25.9463C5.08961 25.9798 5.08173 26.0159 5.08109 26.0525C5.08045 26.0891 5.08707 26.1254 5.10056 26.1594C5.11405 26.1934 5.13415 26.2244 5.1597 26.2506L5.16654 26.2575C5.16654 26.4616 5.37084 26.4616 5.56715 26.4616C5.76345 26.4616 5.56715 26.2575 5.56715 26.0613V25.8572C5.5277 25.8277 5.4945 25.7906 5.46945 25.7482C5.44441 25.7058 5.42802 25.6589 5.42123 25.6101C5.41444 25.5613 5.41738 25.5117 5.42989 25.4641C5.44239 25.4164 5.46422 25.3718 5.49411 25.3326C5.51462 25.3047 5.53924 25.2801 5.56715 25.2596C5.77144 25.0555 5.96776 25.0555 6.36608 25.4638C6.57038 25.864 6.57038 26.0613 6.36608 26.262L6.16178 26.0579C6.18822 26.0326 6.20938 26.0023 6.22404 25.9688C6.23871 25.9353 6.24659 25.8992 6.24722 25.8626C6.24786 25.826 6.24124 25.7897 6.22775 25.7557C6.21426 25.7217 6.19417 25.6907 6.16863 25.6645L6.16178 25.6576C6.16178 25.4535 5.95749 25.4535 5.76118 25.4535V25.6576L5.96547 26.0579C5.96547 26.262 6.16977 26.4582 5.96547 26.6555C5.79496 26.7161 5.61113 26.7292 5.43375 26.6932C5.25638 26.6572 5.09218 26.5736 4.95882 26.4513H4.96224ZM5.55688 27.0557L6.75985 26.0499L6.96414 26.254L5.95749 27.0523L6.55555 27.6499L6.35125 27.854L5.55688 27.0557ZM7.36475 28.8553L7.56905 28.455L7.16844 28.0547L6.76783 28.2588L6.55669 28.0547L8.1614 27.2564L8.3657 27.4606L7.76764 29.064L7.36475 28.8553ZM8.76516 30.2614L9.56409 29.2556L8.55744 30.0538L8.35314 29.8497L8.9512 28.6477L8.15227 29.6536L7.94797 29.4494L8.95463 28.2474L9.35523 28.6477L8.75718 29.8497L9.76383 29.0514L10.1644 29.2556L9.15779 30.4575L8.76516 30.2614ZM9.56409 30.6617L9.3598 30.4575L10.1587 29.0514L10.363 29.2556L9.56409 30.6617ZM27.6109 33.6711L26.0062 35.2745C24.0889 34.2632 21.9615 33.7141 19.7939 33.6711C17.4698 33.6842 15.1896 34.3046 13.1798 35.4707L11.7726 33.6711C14.0415 32.1821 16.6788 31.35 19.3921 31.2672C22.2895 31.3687 25.115 32.1953 27.6097 33.6711H27.6109ZM28.4087 31.2672L28.008 31.6675L27.0014 30.4655L27.5994 30.0652C27.8037 29.8611 28.0001 30.0652 28.1975 30.0652C28.2239 30.0905 28.2451 30.1208 28.2598 30.1543C28.2744 30.1879 28.2823 30.2239 28.283 30.2605C28.2836 30.2971 28.277 30.3334 28.2635 30.3674C28.25 30.4015 28.2299 30.4325 28.2044 30.4587L28.1975 30.4655C28.4018 30.4655 28.5981 30.4655 28.5981 30.6696C28.5981 30.8738 28.8024 30.8738 28.5981 31.0699L28.4087 31.2672ZM29.8091 30.2614L29.6048 30.0573L29.2042 30.4575L29.4085 30.8578L29.2042 31.0619L28.6061 29.4585L28.8298 29.2453L30.2371 30.2511L29.8091 30.2614ZM31.012 29.2635L29.8091 28.8632L30.608 29.6615L30.4037 29.8657L29.3971 28.6637L29.6013 28.4596L30.8043 28.8598L30.0054 28.0616L30.2097 27.8574L31.2266 29.0537L31.012 29.2635ZM32.215 28.0616C32.0107 28.0616 32.0107 28.2657 32.0107 28.4618C31.8619 28.5617 31.6867 28.615 31.5074 28.615C31.3281 28.615 31.1529 28.5617 31.004 28.4618C30.6034 28.0616 30.6034 27.6636 30.7997 27.456C31.2004 27.0557 31.3978 27.2519 31.5987 27.456L31.3944 27.6601C31.3691 27.6337 31.3387 27.6126 31.3052 27.5979C31.2717 27.5833 31.2355 27.5754 31.1989 27.5748C31.1623 27.5741 31.126 27.5807 31.0919 27.5942C31.0579 27.6077 31.0269 27.6278 31.0006 27.6533L30.9938 27.6601C30.7895 27.8643 30.7895 28.0604 31.1981 28.4584C31.5987 28.6625 31.7961 28.6625 31.7961 28.4584C31.8226 28.4331 31.8437 28.4028 31.8584 28.3693C31.8731 28.3358 31.8809 28.2997 31.8816 28.2631C31.8822 28.2265 31.8756 28.1902 31.8621 28.1562C31.8486 28.1222 31.8285 28.0912 31.803 28.065L31.7961 28.0581L31.5918 28.2623L31.3875 28.0581L31.7881 27.6579L32.2116 28.0581L32.215 28.0616ZM32.4113 27.6613L31.2266 26.6498L31.4309 26.4456L32.4376 27.2439L32.8382 26.6463L33.0425 26.8505L32.4113 27.6613ZM33.8186 25.8549L33.418 25.6508L33.0174 26.0511L33.2217 26.2552L33.0174 26.4593L32.0107 25.0532L32.215 24.8491L33.8197 25.4466L33.8186 25.8549ZM34.4166 24.8491L34.016 25.4466L32.6088 24.6484L33.0094 24.0508C33.2137 23.6505 33.6074 23.8467 34.016 23.8467C34.1968 23.9156 34.3432 24.0527 34.4237 24.2285C34.5042 24.4043 34.5123 24.6046 34.4463 24.7864C34.4424 24.8103 34.4321 24.8327 34.4166 24.8514V24.8491ZM34.8252 24.0531L33.418 23.2548L33.8186 22.249L34.0229 22.4531L33.6223 23.0507L34.0229 23.2548L34.4235 22.6573L34.6278 22.8614L34.2272 23.4589L34.6278 23.6631L35.0284 22.8648L35.2327 23.0689L34.8252 24.0531ZM35.8239 22.2467C35.6196 22.8443 35.2258 22.647 35.025 22.647V22.4429C35.1796 22.428 35.3227 22.355 35.4256 22.2387V21.8327C35.2213 21.8327 35.2213 21.8327 35.2213 22.0369V22.241C35.017 22.4451 35.017 22.6413 34.6232 22.4451C34.4189 22.4451 34.2226 22.241 34.4189 21.8476C34.6152 21.4541 34.8195 21.4473 35.017 21.4473V21.6514C34.8624 21.6663 34.7192 21.7393 34.6164 21.8556V22.2558H34.8207L35.025 22.0517C35.2293 21.8476 35.2293 21.6514 35.623 21.8476C35.8273 21.6434 35.8273 22.241 35.8273 22.241L35.8239 22.2467ZM36.2279 20.6376L35.6299 20.4335L35.4256 21.031L36.0236 21.2352V21.4393L34.4189 21.039V20.8349L35.017 21.039L35.2213 20.4415L34.6232 20.2373V20.0332L36.2279 20.4335V20.6376ZM37.4309 21.6434C37.4309 21.6434 37.2266 23.0495 36.632 23.443V23.2388C36.6324 23.1873 36.652 23.1378 36.6871 23.1001C36.7221 23.0623 36.77 23.039 36.8214 23.0347H36.8283C37.0265 22.6586 37.1618 22.2525 37.2289 21.8327V21.4325C37.2285 21.381 37.2088 21.3314 37.1738 21.2937C37.1387 21.2559 37.0908 21.2326 37.0394 21.2283H37.0474L36.8431 21.0242C36.8141 20.3339 36.9515 19.6467 37.2437 19.0205H37.448C37.448 19.0205 37.6523 19.2247 37.6523 20.0264C37.6324 20.5704 37.564 21.1115 37.448 21.6434" fill="#018152"/>
<path d="M18.406 32.4461C18.5159 32.3384 18.5876 32.1979 18.6103 32.0458C18.6103 31.8416 18.406 31.6455 18.0123 31.6455L17.2133 31.8496L17.4176 33.4531L18.0157 33.2489C18.4163 33.2489 18.4163 33.0448 18.4163 33.0448C18.4427 33.0195 18.4639 32.9892 18.4785 32.9557C18.4932 32.9222 18.5011 32.8861 18.5017 32.8495C18.5024 32.8129 18.4957 32.7766 18.4823 32.7426C18.4688 32.7086 18.4487 32.6776 18.4231 32.6513L18.4163 32.6445C18.6057 32.6445 18.6057 32.4472 18.4094 32.4472L18.406 32.4461ZM17.6105 32.0469H18.0111C18.2154 32.0469 18.2154 32.0469 18.2154 32.251C18.2154 32.4552 18.2154 32.4552 18.0111 32.4552H17.6105V32.0469ZM18.2086 33.0448H17.8079V32.6445H18.2086C18.4129 32.6445 18.4128 32.6445 18.4128 32.8486C18.4124 32.9002 18.3928 32.9497 18.3577 32.9874C18.3227 33.0252 18.2748 33.0485 18.2234 33.0528C18.2165 33.0459 18.2165 33.0459 18.2086 33.0459" fill="#018152"/>
<path d="M18.8066 33.2513H19.2072L19.4115 32.8511H20.0096L20.2139 33.2513H20.6145L20.0164 31.6479H19.6158L18.8066 33.2513ZM19.6056 32.0494L19.8098 32.6469H19.4093L19.6056 32.0494Z" fill="#018152"/>
<path d="M20.8131 32.0484L21.4111 33.2504L21.8117 33.4545L22.0161 31.8511L21.6154 31.647L21.4111 32.849L21.0105 31.647H20.6099L20.4056 33.2504H20.8062L20.8131 32.0484Z" fill="#018152"/>
<path d="M22.4166 33.0459L22.621 32.8418L23.0215 33.6401H23.4222L23.0215 32.6342L23.8205 32.234L23.2224 32.0298L22.6244 32.6274L22.8287 31.8291H22.4281L22.0274 33.4314H22.4281L22.4166 33.0459Z" fill="#018152"/>
<path d="M28.0309 30.6421L27.6303 30.8462L27.8346 31.2465L28.0389 31.0424C28.2283 31.0424 28.2283 30.8462 28.032 30.6421" fill="#018152"/>
<path d="M28.0308 30.2489C28.0308 30.0448 27.8266 30.2489 27.8266 30.2489L27.6222 30.453L27.8266 30.6572L28.0308 30.453V30.2489Z" fill="#018152"/>
<path d="M29.4313 29.8475L28.8332 29.4473L29.0375 30.0448L29.4313 29.8475Z" fill="#018152"/>
<path d="M33.2376 25.6367L32.6396 25.4326L33.0401 25.8329L33.2376 25.6367Z" fill="#018152"/>
<path d="M34.0366 24.2377C33.6359 24.0336 33.4385 24.2377 33.4385 24.2377L33.2342 24.4418L34.0331 25.0394L34.2374 24.8352C34.4417 24.435 34.2374 24.2377 34.0331 24.2377" fill="#018152"/>
<path d="M7.37387 28.041L7.57817 28.4413L7.78246 27.8438L7.37387 28.041Z" fill="#018152"/>
<path d="M29.2259 16.2232C29.2684 13.5141 28.2321 10.8991 26.345 8.95348C24.4579 7.00784 21.8746 5.89092 19.1633 5.84843C16.452 5.80593 13.8349 6.84134 11.8876 8.72689C9.94039 10.6124 8.82255 13.1936 8.78002 15.9027V16.2232C8.74446 18.0312 9.21333 19.8135 10.1341 21.3704C11.0549 22.9273 12.3913 24.1974 13.9936 25.0384V13.6151C14.0246 13.3389 14.1114 13.0718 14.2487 12.8301C14.386 12.5884 14.5711 12.3771 14.7926 12.209C14.7145 11.6539 14.8074 11.0883 15.0587 10.5872C15.3101 10.0861 15.7081 9.67331 16.1998 9.4036C18.8101 7.60406 19.0075 6.3941 19.0075 6.3941C19.4811 7.68177 20.4094 8.75208 21.6177 9.4036C22.1628 9.62161 22.6181 10.0175 22.9094 10.5268C23.2008 11.0362 23.3111 11.629 23.2224 12.209C23.5538 12.3128 23.8372 12.5313 24.0217 12.8252C24.2062 13.1191 24.2798 13.4691 24.2291 13.8124V25.0327C25.7641 24.1299 27.0355 22.8409 27.9166 21.2942C28.7977 19.7476 29.2578 17.9971 29.251 16.2175" fill="#018152"/>
<path d="M15.7958 21.6295C16.8024 21.6295 16.9987 21.2292 16.9987 21.2292H15.1977C15.1583 21.1996 15.125 21.1626 15.1 21.1202C15.075 21.0778 15.0586 21.0309 15.0518 20.9821C15.045 20.9333 15.0479 20.8837 15.0605 20.8361C15.073 20.7884 15.0948 20.7438 15.1247 20.7046C15.1452 20.6767 15.1698 20.6521 15.1977 20.6316C15.5983 20.2313 16.4007 20.4275 16.4007 20.4275L16.605 20.2234C16.7128 20.333 16.8534 20.4047 17.0056 20.4275C17.1095 20.4203 17.2072 20.3758 17.2809 20.3023C17.3545 20.2287 17.399 20.131 17.4062 20.0272V19.2289L17.6105 19.4331V20.635H17.8148C17.8148 20.635 18.0191 20.2348 18.2154 20.2348C18.4117 20.2348 18.616 20.635 18.616 20.635H19.0166V20.8392C19.2209 20.635 19.6147 20.4389 19.6147 20.0409V19.0351C19.6147 18.8309 19.819 19.0351 19.819 19.0351V20.4412C19.9287 20.3334 20.0005 20.1929 20.0233 20.0409C20.2276 19.4433 19.819 18.6348 19.819 18.4375C19.9287 18.3298 20.0005 18.1893 20.0233 18.0372C20.2276 17.8331 20.2276 17.8331 20.0233 17.637C20.0233 17.4328 19.4252 16.8387 19.4252 16.8387V15.6265C19.4252 15.6265 19.0246 15.8306 19.0246 16.0267C19.025 16.0782 19.0446 16.1278 19.0797 16.1655C19.1148 16.2033 19.1627 16.2266 19.2141 16.2309H19.2209V16.435C19.0166 16.435 19.0166 16.435 18.8203 16.2309C18.8203 16.0267 18.616 16.2309 18.616 16.2309V20.0341C18.4117 20.4343 18.4117 20.0341 18.4117 20.0341V19.2358L18.0111 19.6361C17.8068 20.0363 17.6105 19.8402 17.6105 19.8402V17.8365C17.6254 17.6821 17.6984 17.539 17.8148 17.4363C18.0191 17.2321 17.6105 17.036 17.6105 17.036V15.6367C17.0124 16.2343 17.2099 16.435 17.2099 16.435H17.4142C17.4138 16.4865 17.3941 16.536 17.3591 16.5738C17.324 16.6116 17.2761 16.6349 17.2247 16.6391H17.2122C17.2349 16.7912 17.3066 16.9317 17.4165 17.0394V18.2414C17.4165 18.6416 17.0159 17.8411 17.0159 17.8411V17.2435C17.0159 17.0394 16.6152 17.0394 16.6152 17.0394V17.8377C16.725 17.9454 16.7967 18.0859 16.8195 18.2379V19.2438C16.8195 19.644 16.2215 19.2438 16.2215 19.2438C16.2215 19.2438 16.0172 19.0396 16.0172 19.2438C15.8129 19.8413 15.6166 19.0396 15.2183 18.8435C15.0145 18.7931 14.8025 18.7852 14.5955 18.8203C14.3885 18.8554 14.191 18.9328 14.0153 19.0476C14.4159 19.0476 14.6133 19.4479 14.4159 19.4479C14.5905 21.0285 14.7948 21.626 15.7935 21.626L15.7958 21.6295ZM19.6067 17.0212V17.4214H19.811V18.2197H19.609V18.0213V19.8208C19.609 20.2211 19.4047 20.2211 19.2083 20.0249V16.8193C19.3629 16.8342 19.5061 16.9071 19.609 17.0234L19.6067 17.0212ZM15.5915 19.8288L15.7958 20.0329C15.7442 20.0325 15.6947 20.0129 15.6569 19.9779C15.6191 19.9428 15.5957 19.8949 15.5915 19.8436V19.8288C15.3952 20.0261 15.3952 19.6246 15.5915 19.8288Z" fill="#018152"/>
<path d="M15.3952 21.0321C15.3952 21.2363 15.5995 21.0321 15.5995 21.0321C15.5995 21.0321 15.5995 20.828 15.3952 21.0321Z" fill="#018152"/>
<path d="M15.7958 20.8291L16.0001 21.0333L16.2044 20.8291L16.0001 20.625L15.7958 20.8291Z" fill="#018152"/>
<path d="M19.2084 15.0141V14.81H18.6103L18.2097 14.4097L18.0054 14.6138L18.6035 15.0141H19.2084Z" fill="#018152"/>
<path d="M20.8119 20.828C20.8119 22.03 19.4047 21.4256 19.2072 21.2283C19.2072 22.0266 19.8053 21.8259 20.2139 21.8259C20.4738 21.8046 20.7176 21.6918 20.902 21.5075C21.0863 21.3233 21.1992 21.0797 21.2205 20.82H22.2272C22.279 20.8211 22.3304 20.8119 22.3786 20.793C22.4268 20.7741 22.4707 20.7459 22.508 20.71C22.5452 20.6741 22.575 20.6311 22.5955 20.5837C22.6161 20.5362 22.6271 20.4851 22.6278 20.4334V20.4186C22.4183 20.3849 22.2161 20.3159 22.0298 20.2145C21.8132 20.2141 21.6027 20.2859 21.4317 20.4186C21.8323 20.4186 21.8323 20.6227 22.0298 20.6227C21.8255 20.8269 21.4317 20.8269 21.4317 20.6227C21.3973 19.808 21.2628 19.0006 21.0311 18.2188C21.0311 18.0146 21.0311 18.0146 20.8268 18.0146C20.6225 18.0146 20.8268 18.2188 20.8268 18.2188C20.7125 19.0841 20.7075 19.9603 20.8119 20.8269" fill="#018152"/>
<path d="M22.6129 20.2302C23.211 20.0261 22.6129 18.0303 22.6129 18.0303L22.2124 18.6279C22.3925 18.8496 22.5217 19.1081 22.5909 19.3851C22.6602 19.6622 22.6677 19.951 22.6129 20.2313" fill="#018152"/>
<path d="M23.4153 19.8234C23.211 19.8234 23.0147 20.421 23.0147 20.421C23.0147 20.6251 23.219 20.6251 23.4153 20.8212C23.4153 21.2215 21.6143 21.6195 21.6143 21.6195C21.6143 21.6195 21.4099 22.0198 22.0149 22.0198C22.709 21.89 23.3416 21.5368 23.8159 21.014C23.8788 20.7977 23.8742 20.5674 23.8026 20.3538C23.731 20.1403 23.5959 19.9536 23.4153 19.8188V19.8234Z" fill="#018152"/>
<path d="M23.0147 22.0312C22.4166 22.2354 22.6141 22.6288 22.6141 22.6288C22.6141 23.0291 23.0147 23.0291 23.2122 23.0291C23.2122 23.4293 21.6074 23.8273 21.6074 23.8273C21.6078 23.8788 21.6275 23.9283 21.6625 23.9661C21.6976 24.0039 21.7455 24.0272 21.7969 24.0314H21.8037C22.4018 24.0314 23.4085 23.2332 23.4085 22.8295C23.4383 22.7578 23.4538 22.6809 23.4538 22.6032C23.4539 22.5256 23.4385 22.4486 23.4087 22.3769C23.3789 22.3051 23.3352 22.24 23.2801 22.1852C23.2251 22.1304 23.1597 22.087 23.0877 22.0575C23.0661 22.042 23.041 22.0318 23.0147 22.0278" fill="#018152"/>
<path d="M15.394 23.037L14.9934 22.0312L15.1977 23.2332L15.394 23.037Z" fill="#018152"/>
<path d="M16.5982 23.037C17.6048 22.6368 16.8024 22.0312 16.8024 22.0312V22.4315C16.8024 22.6356 16.4018 22.6356 16.4018 22.6356L16.0012 22.2354C15.8623 22.4029 15.7896 22.6155 15.7969 22.8329C15.7969 23.037 16.1975 23.037 16.1975 23.2332C16.1975 23.4293 14.9946 24.0314 14.9946 24.0314V24.2355C15.3396 24.1804 15.666 24.0421 15.9456 23.8327C16.2252 23.6233 16.4495 23.349 16.5993 23.0336" fill="#018152"/>
<path d="M17.4005 23.4359C17.1962 23.8362 17.4005 23.8362 17.4005 24.0335C17.4005 24.2308 15.9932 24.8317 15.7958 24.8317C15.5983 24.8317 15.7958 25.0359 16.0001 25.0359C17.203 24.8318 17.6048 24.03 17.6048 23.8339C18.2029 23.4336 18.2028 23.2364 18.0054 23.0356C17.9985 23.2318 17.4005 23.4359 17.4005 23.4359Z" fill="#018152"/>
<path d="M17.8011 21.6298C17.8444 21.9016 17.9128 22.1688 18.0054 22.428C18.2097 22.2239 18.406 22.0278 18.406 22.2239C18.4398 22.4332 18.5088 22.6352 18.6103 22.8214C18.7039 22.2141 18.6333 21.5929 18.406 21.022C18.406 21.2261 17.8011 21.4223 17.8011 21.6264" fill="#018152"/>
<path d="M20.207 22.0312V22.2354H20.4113L20.6156 22.0312H20.207Z" fill="#018152"/>
<path d="M20.207 22.4312L19.4081 22.2271C19.3932 22.3815 19.3202 22.5246 19.2038 22.6273L18.6057 23.2249C18.5037 24.023 18.5037 24.8308 18.6057 25.6289H18.8101V23.6252L19.0143 23.2249C19.2481 23.0647 19.5312 22.9923 19.8133 23.0208C20.4113 22.8315 20.207 22.4312 20.207 22.4312Z" fill="#018152"/>
<path d="M19.609 24.0337C19.4047 24.434 19.609 25.0395 20.0096 24.832C20.6077 24.832 20.4102 24.4317 20.4102 24.2344C20.0096 24.832 19.6113 24.0303 19.6113 24.0303" fill="#018152"/>
<path d="M22.2123 22.6353H21.8118C21.5622 22.5136 21.2903 22.4441 21.0128 22.4312V22.6353C21.2171 22.6353 21.6109 22.6353 21.6109 22.8394C21.3988 22.9187 21.2124 23.0543 21.0716 23.2315C20.9309 23.4087 20.8411 23.6209 20.812 23.8453C21.262 23.5469 21.7322 23.2802 22.2192 23.047C22.2456 23.0217 22.2668 22.9914 22.2815 22.9579C22.2961 22.9243 22.304 22.8882 22.3046 22.8517C22.3053 22.8151 22.2987 22.7788 22.2852 22.7448C22.2717 22.7107 22.2516 22.6797 22.2261 22.6535C22.2261 22.6467 22.2261 22.6387 22.2192 22.6387" fill="#018152"/>
</svg>
