<svg width="45" height="43" viewBox="0 0 45 43" fill="none" xmlns="http://www.w3.org/2000/svg">
<path d="M43.3533 8.79804H42.5327C42.5196 8.17301 42.2624 7.57787 41.816 7.13977C41.3697 6.70167 40.7696 6.45534 40.1439 6.45339H38.1603V3.35722C38.1584 2.72444 37.9061 2.1181 37.4583 1.67066C37.0104 1.22321 36.4036 0.971044 35.7703 0.969238L9.22748 0.969238C8.59438 0.971344 7.98783 1.22365 7.54026 1.67106C7.09269 2.11847 6.84047 2.72464 6.83867 3.35722V6.45339H4.85275C4.22707 6.45534 3.62696 6.70167 3.1806 7.13977C2.73425 7.57787 2.47705 8.17301 2.46394 8.79804H1.64447C1.28677 8.79834 0.943804 8.94045 0.690873 9.19318C0.437942 9.4459 0.295712 9.78858 0.29541 10.146L0.29541 17.0887C0.295712 17.4461 0.437942 17.7888 0.690873 18.0415C0.943804 18.2942 1.28677 18.4363 1.64447 18.4366H4.58568C4.94338 18.4363 5.28634 18.2942 5.53927 18.0415C5.7922 17.7888 5.93443 17.4461 5.93473 17.0887V10.146C5.93443 9.78858 5.7922 9.4459 5.53927 9.19318C5.28634 8.94045 4.94338 8.79834 4.58568 8.79804H3.76963C3.78082 8.51807 3.89991 8.25328 4.10198 8.05902C4.30406 7.86476 4.57348 7.75608 4.85389 7.75572H6.83867V31.9161C6.83867 32.0888 6.90733 32.2544 7.02955 32.3765C7.15176 32.4986 7.31753 32.5673 7.49037 32.5673C7.66321 32.5673 7.82897 32.4986 7.95119 32.3765C8.07341 32.2544 8.14207 32.0888 8.14207 31.9161V26.546C8.47816 26.7187 8.85069 26.8086 9.22862 26.8083H35.7703C36.1482 26.8086 36.5208 26.7187 36.8569 26.546V37.0604C36.8565 37.3482 36.742 37.6242 36.5383 37.8277C36.3346 38.0313 36.0584 38.1458 35.7703 38.1461H9.22748C8.9394 38.1458 8.66321 38.0313 8.45951 37.8277C8.2558 37.6242 8.14123 37.3482 8.14093 37.0604V34.9267C8.14093 34.754 8.07227 34.5884 7.95005 34.4663C7.82783 34.3442 7.66207 34.2756 7.48923 34.2756C7.31639 34.2756 7.15062 34.3442 7.02841 34.4663C6.90619 34.5884 6.83753 34.754 6.83753 34.9267V37.0604C6.83933 37.6932 7.09171 38.2995 7.53952 38.747C7.98734 39.1944 8.59418 39.4466 9.22748 39.4484H9.90543V40.9617C9.90543 41.4456 10.0978 41.9097 10.4403 42.2519C10.7828 42.5941 11.2472 42.7863 11.7316 42.7863H14.6614C15.1457 42.7863 15.6102 42.5941 15.9526 42.2519C16.2951 41.9097 16.4875 41.4456 16.4875 40.9617V39.4472H28.5126V40.9605C28.5126 41.4445 28.705 41.9086 29.0474 42.2508C29.3899 42.5929 29.8544 42.7852 30.3387 42.7852H33.2685C33.7528 42.7852 34.2173 42.5929 34.5598 42.2508C34.9022 41.9086 35.0946 41.4445 35.0946 40.9605V39.4472H35.7726C36.4059 39.4454 37.0127 39.1933 37.4605 38.7458C37.9083 38.2984 38.1607 37.692 38.1625 37.0593V7.75572H40.1473C40.4276 7.75637 40.6969 7.86513 40.8989 8.05933C41.1009 8.25354 41.2201 8.51817 41.2316 8.79804H40.4144C40.0567 8.79834 39.7137 8.94045 39.4608 9.19318C39.2079 9.4459 39.0656 9.78858 39.0653 10.146V17.0887C39.0656 17.4461 39.2079 17.7888 39.4608 18.0415C39.7137 18.2942 40.0567 18.4363 40.4144 18.4366H43.3556C43.7133 18.4363 44.0563 18.2942 44.3092 18.0415C44.5621 17.7888 44.7043 17.4461 44.7047 17.0887V10.146C44.7043 9.78858 44.5621 9.4459 44.3092 9.19318C44.0563 8.94045 43.7133 8.79834 43.3556 8.79804H43.3533ZM4.58568 10.1004C4.59759 10.1007 4.60891 10.1056 4.61723 10.1141C4.62554 10.1226 4.63019 10.1341 4.63019 10.146V17.0887C4.63019 17.1006 4.62554 17.112 4.61723 17.1206C4.60891 17.1291 4.59759 17.134 4.58568 17.1343H1.64447C1.63236 17.1343 1.62074 17.1295 1.61218 17.121C1.60362 17.1124 1.59881 17.1008 1.59881 17.0887V10.146C1.59881 10.1339 1.60362 10.1223 1.61218 10.1137C1.62074 10.1052 1.63236 10.1004 1.64447 10.1004H4.58568ZM15.1818 40.9617C15.1815 41.0998 15.1265 41.2322 15.0287 41.3299C14.931 41.4275 14.7985 41.4825 14.6602 41.4828H11.7316C11.5932 41.4828 11.4606 41.4279 11.3627 41.3302C11.2649 41.2325 11.21 41.0999 11.21 40.9617V39.4472H15.1818V40.9605V40.9617ZM33.7855 40.9617C33.7855 41.0999 33.7306 41.2325 33.6328 41.3302C33.5349 41.4279 33.4023 41.4828 33.2639 41.4828H30.3376C30.1993 41.4825 30.0668 41.4275 29.9691 41.3299C29.8713 41.2322 29.8163 41.0998 29.816 40.9617V39.4472H33.789L33.7855 40.9617ZM36.8557 8.74672H10.5354C10.3626 8.74672 10.1968 8.81533 10.0746 8.93744C9.9524 9.05956 9.88374 9.22519 9.88374 9.39788C9.88374 9.57058 9.9524 9.73621 10.0746 9.85833C10.1968 9.98044 10.3626 10.049 10.5354 10.049H36.8569V22.3858H32.5506C32.3778 22.3858 32.212 22.4544 32.0898 22.5765C31.9676 22.6987 31.8989 22.8643 31.8989 23.037C31.8989 23.2097 31.9676 23.3753 32.0898 23.4974C32.212 23.6195 32.3778 23.6882 32.5506 23.6882H36.8569V24.4191C36.8565 24.707 36.742 24.983 36.5383 25.1865C36.3346 25.39 36.0584 25.5045 35.7703 25.5048H9.22748C8.9394 25.5045 8.66321 25.39 8.45951 25.1865C8.2558 24.983 8.14123 24.707 8.14093 24.4191V23.6882H29.5135C29.6864 23.6882 29.8521 23.6195 29.9743 23.4974C30.0966 23.3753 30.1652 23.2097 30.1652 23.037C30.1652 22.8643 30.0966 22.6987 29.9743 22.5765C29.8521 22.4544 29.6864 22.3858 29.5135 22.3858H23.0981L29.2476 17.2541C29.38 17.1435 29.4631 16.9849 29.4785 16.8132C29.4939 16.6415 29.4404 16.4706 29.3298 16.3383C29.2191 16.206 29.0604 16.123 28.8885 16.1076C28.7167 16.0922 28.5457 16.1457 28.4133 16.2562L21.0677 22.3858H18.2714L24.4198 17.2541C24.4853 17.1993 24.5395 17.1322 24.5791 17.0566C24.6187 16.9809 24.643 16.8982 24.6507 16.8132C24.6583 16.7282 24.6491 16.6425 24.6236 16.561C24.598 16.4795 24.5567 16.4038 24.5019 16.3383C24.4471 16.2728 24.38 16.2187 24.3043 16.1791C24.2286 16.1395 24.1458 16.1152 24.0607 16.1076C23.9756 16.1 23.8898 16.1092 23.8083 16.1347C23.7267 16.1602 23.651 16.2015 23.5854 16.2562L16.2432 22.3904H8.13979V6.66322H36.8557V8.74672ZM36.8557 5.35975H8.14207V3.35722C8.14237 3.06938 8.25694 2.79342 8.46065 2.58988C8.66435 2.38635 8.94054 2.27187 9.22862 2.27157H35.7703C36.0584 2.27187 36.3346 2.38635 36.5383 2.58988C36.742 2.79342 36.8565 3.06938 36.8569 3.35722L36.8557 5.35975ZM43.399 17.0876C43.399 17.0997 43.3942 17.1113 43.3856 17.1198C43.377 17.1284 43.3654 17.1332 43.3533 17.1332H40.4121C40.4 17.1332 40.3884 17.1284 40.3798 17.1198C40.3713 17.1113 40.3665 17.0997 40.3665 17.0876V10.146C40.3665 10.1339 40.3713 10.1223 40.3798 10.1137C40.3884 10.1052 40.4 10.1004 40.4121 10.1004H43.3533C43.3654 10.1004 43.377 10.1052 43.3856 10.1137C43.3942 10.1223 43.399 10.1339 43.399 10.146V17.0876Z" fill="#FF6E6A"/>
<path d="M16.3939 33.6678C16.682 33.6675 16.9582 33.5531 17.1619 33.3495C17.3656 33.146 17.4802 32.87 17.4805 32.5822V31.5399C17.4796 30.8608 17.2092 30.2099 16.7287 29.7297C16.2481 29.2496 15.5966 28.9794 14.917 28.9785H10.9224C10.6343 28.9788 10.3581 29.0933 10.1544 29.2969C9.95068 29.5004 9.83612 29.7763 9.83582 30.0642V31.1065C9.83672 31.7855 10.1071 32.4365 10.5876 32.9167C11.0682 33.3968 11.7197 33.6669 12.3992 33.6678H16.3939ZM11.1358 31.1065V30.282H14.9159C15.2484 30.2835 15.5669 30.4161 15.802 30.6511C16.0371 30.886 16.1699 31.2042 16.1714 31.5364V32.361H12.3913C12.0588 32.3592 11.7406 32.2264 11.5055 31.9916C11.2704 31.7567 11.1376 31.4386 11.1358 31.1065Z" fill="#FF6E6A"/>
<path d="M32.6009 33.6678C33.2805 33.6669 33.9319 33.3968 34.4125 32.9167C34.893 32.4365 35.1634 31.7855 35.1643 31.1065V30.0642C35.164 29.7763 35.0494 29.5004 34.8457 29.2969C34.642 29.0933 34.3658 28.9788 34.0778 28.9785H30.0831C29.4035 28.9794 28.752 29.2496 28.2715 29.7297C27.7909 30.2099 27.5206 30.8608 27.5197 31.5399V32.5822C27.52 32.87 27.6345 33.146 27.8383 33.3495C28.042 33.5531 28.3181 33.6675 28.6062 33.6678H32.6009ZM28.8208 31.5399C28.8223 31.2076 28.955 30.8894 29.1902 30.6545C29.4253 30.4196 29.7437 30.2869 30.0762 30.2854H33.8563V31.1099C33.8548 31.4422 33.7221 31.7604 33.487 31.9953C33.2518 32.2302 32.9334 32.3629 32.6009 32.3644H28.8208V31.5399Z" fill="#FF6E6A"/>
<path d="M25.3763 37.17C25.5974 37.1697 25.8095 37.0817 25.9659 36.9255C26.1223 36.7692 26.2103 36.5573 26.2106 36.3363V34.6178C26.2103 34.3968 26.1223 34.1849 25.9659 34.0287C25.8095 33.8724 25.5974 33.7845 25.3763 33.7842H19.6217C19.4005 33.7845 19.1885 33.8724 19.0321 34.0287C18.8757 34.1849 18.7877 34.3968 18.7874 34.6178V36.3363C18.7877 36.5573 18.8757 36.7692 19.0321 36.9255C19.1885 37.0817 19.4005 37.1697 19.6217 37.17H25.3763ZM20.0908 35.0865H24.9083V35.8677H20.0908V35.0865Z" fill="#FF6E6A"/>
</svg>
