<svg width="11" height="11" viewBox="0 0 11 11" fill="none" xmlns="http://www.w3.org/2000/svg">
<path d="M9.21738 1.74755C9.21738 1.74185 9.21738 1.73729 9.21054 1.73159C9.20684 1.72242 9.20225 1.71363 9.19684 1.70536C9.19281 1.69577 9.18784 1.6866 9.182 1.67799L9.1626 1.65404C9.15396 1.64855 9.14478 1.64397 9.13521 1.64036L9.1101 1.62781C9.09933 1.6244 9.08824 1.62211 9.077 1.62097H9.05646H8.22443C8.1822 1.04279 7.91627 0.627686 7.57272 0.627686C7.22918 0.627686 6.96325 1.04279 6.91988 1.61641H6.57178C6.53411 1.04279 6.26818 0.627686 5.92464 0.627686C5.5811 0.627686 5.31631 1.04279 5.2718 1.61641H4.9294C4.88603 1.04279 4.61896 0.627686 4.27542 0.627686C3.93187 0.627686 3.66594 1.04279 3.62257 1.61641H3.28017C3.2368 1.04279 2.97087 0.627686 2.62733 0.627686C2.28379 0.627686 2.01786 1.04279 1.97449 1.61641H1.1436C1.10001 1.61641 1.05821 1.63371 1.02739 1.66451C0.996564 1.6953 0.979248 1.73707 0.979248 1.78062V10.345C0.979248 10.3885 0.996564 10.4303 1.02739 10.4611C1.05821 10.4919 1.10001 10.5092 1.1436 10.5092H9.05646C9.10005 10.5092 9.14185 10.4919 9.17267 10.4611C9.20349 10.4303 9.22081 10.3885 9.22081 10.345V9.85119H10.7045C10.7289 9.85119 10.753 9.84576 10.775 9.8353C10.7971 9.82484 10.8165 9.80961 10.8319 9.79072C10.8473 9.77184 10.8583 9.74976 10.8641 9.7261C10.8699 9.70243 10.8704 9.67777 10.8655 9.65391L9.21738 1.74755ZM7.57272 0.957259C7.68686 0.957259 7.85806 1.20929 7.89458 1.61641H7.25658C7.28739 1.20929 7.45288 0.957259 7.57272 0.957259ZM5.92464 0.957259C6.03877 0.957259 6.20997 1.20929 6.2465 1.61641H5.60279C5.63931 1.21043 5.8048 0.957259 5.9235 0.957259H5.92464ZM4.27656 0.957259C4.39069 0.957259 4.56189 1.20929 4.59841 1.61641H3.9547C3.99122 1.21043 4.15672 0.957259 4.27542 0.957259H4.27656ZM2.62847 0.957259C2.74261 0.957259 2.91381 1.20929 2.95033 1.61641H2.30662C2.342 1.20929 2.50863 0.957259 2.62733 0.957259H2.62847ZM1.30909 1.94484H1.97449C2.01672 2.51504 2.28379 2.93356 2.62733 2.93356C2.67107 2.93356 2.71302 2.9162 2.74395 2.8853C2.77488 2.85439 2.79225 2.81248 2.79225 2.76878C2.79225 2.72507 2.77488 2.68316 2.74395 2.65225C2.71302 2.62135 2.67107 2.60399 2.62733 2.60399C2.5132 2.60399 2.342 2.35196 2.30548 1.94484H3.62371C3.66709 2.51504 3.93302 2.93356 4.27656 2.93356C4.3203 2.93356 4.36225 2.9162 4.39317 2.8853C4.4241 2.85439 4.44148 2.81248 4.44148 2.76878C4.44148 2.72507 4.4241 2.68316 4.39317 2.65225C4.36225 2.62135 4.3203 2.60399 4.27656 2.60399C4.16242 2.60399 3.99122 2.35196 3.9547 1.94484H5.2718C5.31517 2.51504 5.5811 2.93356 5.92464 2.93356C5.96838 2.93356 6.01033 2.9162 6.04126 2.8853C6.07219 2.85439 6.08956 2.81248 6.08956 2.76878C6.08956 2.72507 6.07219 2.68316 6.04126 2.65225C6.01033 2.62135 5.96838 2.60399 5.92464 2.60399C5.81051 2.60399 5.63931 2.35196 5.60279 1.94484H6.91988C6.96325 2.51504 7.22918 2.93356 7.57272 2.93356C7.61646 2.93356 7.65841 2.9162 7.68934 2.8853C7.72027 2.85439 7.73765 2.81248 7.73765 2.76878C7.73765 2.72507 7.72027 2.68316 7.68934 2.65225C7.65841 2.62135 7.61646 2.60399 7.57272 2.60399C7.45859 2.60399 7.28739 2.35196 7.25087 1.94484H8.89096V3.59271H1.30909V1.94484ZM8.89096 10.1808H1.30909V3.92228H8.89096V10.1808ZM9.22081 9.52276V3.37832L10.5014 9.52276H9.22081Z" fill="black" fill-opacity="0.59"/>
<path d="M4.60529 6.55664H3.9456C3.90201 6.55664 3.86021 6.57394 3.82939 6.60474C3.79856 6.63553 3.78125 6.67732 3.78125 6.72087V7.37998C3.78125 7.42353 3.79856 7.46531 3.82939 7.49611C3.86021 7.52691 3.90201 7.5442 3.9456 7.5442H4.60529C4.62687 7.5442 4.64824 7.53996 4.66818 7.53171C4.68812 7.52346 4.70624 7.51136 4.7215 7.49611C4.73676 7.48086 4.74887 7.46275 4.75713 7.44283C4.76539 7.4229 4.76964 7.40154 4.76964 7.37998V6.72087C4.76964 6.6993 4.76539 6.67794 4.75713 6.65802C4.74887 6.63809 4.73676 6.61999 4.7215 6.60474C4.70624 6.58949 4.68812 6.57739 4.66818 6.56913C4.64824 6.56088 4.62687 6.55664 4.60529 6.55664ZM4.44094 7.21578H4.1111V6.88621H4.44094V7.21578Z" fill="black" fill-opacity="0.59"/>
<path d="M6.25337 6.55664H5.59367C5.55008 6.55664 5.50828 6.57394 5.47746 6.60474C5.44664 6.63553 5.42932 6.67732 5.42932 6.72087V7.37998C5.42932 7.42353 5.44664 7.46531 5.47746 7.49611C5.50828 7.52691 5.55008 7.5442 5.59367 7.5442H6.25337C6.27496 7.5442 6.29632 7.53996 6.31626 7.53171C6.3362 7.52346 6.35433 7.51136 6.36959 7.49611C6.38485 7.48086 6.39696 7.46275 6.40522 7.44283C6.41348 7.4229 6.41772 7.40154 6.41772 7.37998V6.72087C6.41772 6.6993 6.41348 6.67794 6.40522 6.65802C6.39696 6.63809 6.38485 6.61999 6.36959 6.60474C6.35433 6.58949 6.3362 6.57739 6.31626 6.56913C6.29632 6.56088 6.27496 6.55664 6.25337 6.55664ZM6.08902 7.21578H5.75917V6.88621H6.08902V7.21578Z" fill="black" fill-opacity="0.59"/>
<path d="M2.95721 6.55664H2.29753C2.25394 6.55664 2.21214 6.57394 2.18131 6.60474C2.15049 6.63553 2.13318 6.67732 2.13318 6.72087V7.37998C2.13318 7.42353 2.15049 7.46531 2.18131 7.49611C2.21214 7.52691 2.25394 7.5442 2.29753 7.5442H2.95721C3.0008 7.5442 3.0426 7.52691 3.07343 7.49611C3.10425 7.46531 3.12157 7.42353 3.12157 7.37998V6.72087C3.12157 6.67732 3.10425 6.63553 3.07343 6.60474C3.0426 6.57394 3.0008 6.55664 2.95721 6.55664ZM2.79286 7.21578H2.46302V6.88621H2.79286V7.21578Z" fill="black" fill-opacity="0.59"/>
<path d="M4.60529 8.20459H3.9456C3.90201 8.20459 3.86021 8.22189 3.82939 8.25269C3.79856 8.28348 3.78125 8.32527 3.78125 8.36882V9.02794C3.78125 9.07149 3.79856 9.11328 3.82939 9.14407C3.86021 9.17487 3.90201 9.19217 3.9456 9.19217H4.60529C4.62687 9.19217 4.64824 9.18793 4.66818 9.17968C4.68812 9.17142 4.70624 9.15932 4.7215 9.14407C4.73676 9.12882 4.74887 9.11071 4.75713 9.09079C4.76539 9.07087 4.76964 9.0495 4.76964 9.02794V8.36882C4.76964 8.34726 4.76539 8.32589 4.75713 8.30597C4.74887 8.28604 4.73676 8.26794 4.7215 8.25269C4.70624 8.23744 4.68812 8.22534 4.66818 8.21708C4.64824 8.20883 4.62687 8.20459 4.60529 8.20459ZM4.44094 8.86374H4.1111V8.53417H4.44094V8.86374Z" fill="black" fill-opacity="0.59"/>
<path d="M6.25337 8.20459H5.59367C5.55008 8.20459 5.50828 8.22189 5.47746 8.25269C5.44664 8.28348 5.42932 8.32527 5.42932 8.36882V9.02794C5.42932 9.07149 5.44664 9.11328 5.47746 9.14407C5.50828 9.17487 5.55008 9.19217 5.59367 9.19217H6.25337C6.27496 9.19217 6.29632 9.18793 6.31626 9.17968C6.3362 9.17142 6.35433 9.15932 6.36959 9.14407C6.38485 9.12882 6.39696 9.11071 6.40522 9.09079C6.41348 9.07087 6.41772 9.0495 6.41772 9.02794V8.36882C6.41772 8.34726 6.41348 8.32589 6.40522 8.30597C6.39696 8.28604 6.38485 8.26794 6.36959 8.25269C6.35433 8.23744 6.3362 8.22534 6.31626 8.21708C6.29632 8.20883 6.27496 8.20459 6.25337 8.20459ZM6.08902 8.86374H5.75917V8.53417H6.08902V8.86374Z" fill="black" fill-opacity="0.59"/>
<path d="M2.95721 8.20459H2.29753C2.25394 8.20459 2.21214 8.22189 2.18131 8.25269C2.15049 8.28348 2.13318 8.32527 2.13318 8.36882V9.02794C2.13318 9.07149 2.15049 9.11328 2.18131 9.14407C2.21214 9.17487 2.25394 9.19217 2.29753 9.19217H2.95721C3.0008 9.19217 3.0426 9.17487 3.07343 9.14407C3.10425 9.11328 3.12157 9.07149 3.12157 9.02794V8.36882C3.12157 8.32527 3.10425 8.28348 3.07343 8.25269C3.0426 8.22189 3.0008 8.20459 2.95721 8.20459ZM2.79286 8.86374H2.46302V8.53417H2.79286V8.86374Z" fill="black" fill-opacity="0.59"/>
<path d="M4.60529 4.90991H3.9456C3.90201 4.90991 3.86021 4.92721 3.82939 4.95801C3.79856 4.9888 3.78125 5.03057 3.78125 5.07412V5.73326C3.78125 5.77682 3.79856 5.81858 3.82939 5.84938C3.86021 5.88018 3.90201 5.89748 3.9456 5.89748H4.60529C4.62687 5.89748 4.64824 5.89323 4.66818 5.88498C4.68812 5.87673 4.70624 5.86463 4.7215 5.84938C4.73676 5.83413 4.74887 5.81602 4.75713 5.7961C4.76539 5.77618 4.76964 5.75483 4.76964 5.73326V5.07412C4.76964 5.05256 4.76539 5.03121 4.75713 5.01129C4.74887 4.99137 4.73676 4.97326 4.7215 4.95801C4.70624 4.94276 4.68812 4.93066 4.66818 4.92241C4.64824 4.91415 4.62687 4.90991 4.60529 4.90991ZM4.44094 5.56905H4.1111V5.23948H4.44094V5.56905Z" fill="black" fill-opacity="0.59"/>
<path d="M6.25337 4.90991H5.59367C5.55008 4.90991 5.50828 4.92721 5.47746 4.95801C5.44664 4.9888 5.42932 5.03057 5.42932 5.07412V5.73326C5.42932 5.77682 5.44664 5.81858 5.47746 5.84938C5.50828 5.88018 5.55008 5.89748 5.59367 5.89748H6.25337C6.27496 5.89748 6.29632 5.89323 6.31626 5.88498C6.3362 5.87673 6.35433 5.86463 6.36959 5.84938C6.38485 5.83413 6.39696 5.81602 6.40522 5.7961C6.41348 5.77618 6.41772 5.75483 6.41772 5.73326V5.07412C6.41772 5.05256 6.41348 5.03121 6.40522 5.01129C6.39696 4.99137 6.38485 4.97326 6.36959 4.95801C6.35433 4.94276 6.3362 4.93066 6.31626 4.92241C6.29632 4.91415 6.27496 4.90991 6.25337 4.90991ZM6.08902 5.56905H5.75917V5.23948H6.08902V5.56905Z" fill="black" fill-opacity="0.59"/>
<path d="M7.90253 6.55664H7.24286C7.19927 6.55664 7.15745 6.57394 7.12663 6.60474C7.09581 6.63553 7.07849 6.67732 7.07849 6.72087V7.37998C7.07849 7.42353 7.09581 7.46531 7.12663 7.49611C7.15745 7.52691 7.19927 7.5442 7.24286 7.5442H7.90253C7.94612 7.5442 7.98794 7.52691 8.01876 7.49611C8.04958 7.46531 8.06689 7.42353 8.06689 7.37998V6.72087C8.06689 6.67732 8.04958 6.63553 8.01876 6.60474C7.98794 6.57394 7.94612 6.55664 7.90253 6.55664ZM7.73819 7.21578H7.40834V6.88621H7.73819V7.21578Z" fill="black" fill-opacity="0.59"/>
<path d="M7.90253 8.20459H7.24286C7.19927 8.20459 7.15745 8.22189 7.12663 8.25269C7.09581 8.28348 7.07849 8.32527 7.07849 8.36882V9.02794C7.07849 9.07149 7.09581 9.11328 7.12663 9.14407C7.15745 9.17487 7.19927 9.19217 7.24286 9.19217H7.90253C7.94612 9.19217 7.98794 9.17487 8.01876 9.14407C8.04958 9.11328 8.06689 9.07149 8.06689 9.02794V8.36882C8.06689 8.32527 8.04958 8.28348 8.01876 8.25269C7.98794 8.22189 7.94612 8.20459 7.90253 8.20459ZM7.73819 8.86374H7.40834V8.53417H7.73819V8.86374Z" fill="black" fill-opacity="0.59"/>
<path d="M7.90253 4.90991H7.24286C7.19927 4.90991 7.15745 4.92721 7.12663 4.95801C7.09581 4.9888 7.07849 5.03057 7.07849 5.07412V5.73326C7.07849 5.77682 7.09581 5.81858 7.12663 5.84938C7.15745 5.88018 7.19927 5.89748 7.24286 5.89748H7.90253C7.94612 5.89748 7.98794 5.88018 8.01876 5.84938C8.04958 5.81858 8.06689 5.77682 8.06689 5.73326V5.07412C8.06689 5.03057 8.04958 4.9888 8.01876 4.95801C7.98794 4.92721 7.94612 4.90991 7.90253 4.90991ZM7.73819 5.56905H7.40834V5.23948H7.73819V5.56905Z" fill="black" fill-opacity="0.59"/>
<path d="M2.95721 4.90991H2.29753C2.25394 4.90991 2.21214 4.92721 2.18131 4.95801C2.15049 4.9888 2.13318 5.03057 2.13318 5.07412V5.73326C2.13318 5.77682 2.15049 5.81858 2.18131 5.84938C2.21214 5.88018 2.25394 5.89748 2.29753 5.89748H2.95721C3.0008 5.89748 3.0426 5.88018 3.07343 5.84938C3.10425 5.81858 3.12157 5.77682 3.12157 5.73326V5.07412C3.12157 5.03057 3.10425 4.9888 3.07343 4.95801C3.0426 4.92721 3.0008 4.90991 2.95721 4.90991ZM2.79286 5.56905H2.46302V5.23948H2.79286V5.56905Z" fill="black" fill-opacity="0.59"/>
</svg>
