<svg width="51" height="40" viewBox="0 0 51 40" fill="none" xmlns="http://www.w3.org/2000/svg">
<path d="M48.8631 15.3909L47.7606 14.2243L43.8903 3.79996C43.5664 2.94008 42.9887 2.19877 42.2338 1.67419C41.4789 1.1496 40.5823 0.86648 39.6628 0.862305H12.0197C11.1005 0.865331 10.204 1.14806 9.44958 1.67286C8.69517 2.19766 8.11865 2.93962 7.79678 3.79996L3.97674 14.0909L2.38686 15.5643C1.70291 16.1464 1.15351 16.8699 0.776563 17.6848C0.399614 18.4997 0.204093 19.3866 0.203491 20.2843L0.203491 35.4721C0.209524 36.6657 0.688209 37.8083 1.53491 38.6502C2.38162 39.4922 3.52748 39.965 4.72203 39.9653H7.57537C8.76992 39.965 9.91578 39.4922 10.7625 38.6502C11.6092 37.8083 12.0879 36.6657 12.0939 35.4721V33.2689H38.9061V35.4721C38.9122 36.6657 39.3908 37.8083 40.2375 38.6502C41.0842 39.4922 42.2301 39.965 43.4247 39.9653H46.278C47.4725 39.965 48.6184 39.4922 49.4651 38.6502C50.3118 37.8083 50.7905 36.6657 50.7965 35.4721V19.8841C50.7923 19.0439 50.619 18.2131 50.2868 17.4412C49.9547 16.6693 49.4705 15.972 48.8631 15.3909ZM9.8295 4.53437C9.99761 4.08894 10.2979 3.70544 10.6901 3.4352C11.0824 3.16496 11.5478 3.02087 12.0243 3.02221H39.6788C40.1548 3.02294 40.6193 3.16785 41.0112 3.43782C41.403 3.70779 41.7037 4.09013 41.8736 4.53437L45.2462 13.6085H42.7227C42.4574 11.8544 41.5713 10.2536 40.2253 9.09679C38.8794 7.93993 37.1628 7.30374 35.3874 7.30374C33.612 7.30374 31.8954 7.93993 30.5494 9.09679C29.2035 10.2536 28.3174 11.8544 28.052 13.6085H6.45229L9.8295 4.53437ZM40.5211 13.6085H30.2365C30.4819 12.4275 31.127 11.3671 32.0634 10.6058C32.9997 9.84445 34.17 9.4288 35.3771 9.4288C36.5843 9.4288 37.7546 9.84445 38.6909 10.6058C39.6272 11.3671 40.2723 12.4275 40.5177 13.6085H40.5211ZM9.93336 35.4721C9.92914 36.0934 9.67878 36.6877 9.23708 37.125C8.79538 37.5622 8.1983 37.8069 7.57651 37.8054H4.72317C4.10138 37.8069 3.5043 37.5622 3.0626 37.125C2.6209 36.6877 2.37054 36.0934 2.36632 35.4721V32.6417C3.07701 33.0685 3.89415 33.2856 4.72317 33.2677H9.93336V35.4721ZM48.636 35.4721C48.6318 36.0934 48.3814 36.6877 47.9397 37.125C47.498 37.5622 46.9009 37.8069 46.2791 37.8054H43.4258C42.8036 37.8066 42.2061 37.562 41.7635 37.125C41.321 36.6879 41.0693 36.0938 41.0632 35.4721V33.2689H46.2791C47.1082 33.2867 47.9253 33.0697 48.636 32.6428V35.4733V35.4721ZM46.2791 31.1078H4.72203C4.1035 31.1142 3.50775 30.8749 3.06578 30.4425C2.62381 30.0101 2.3718 29.42 2.36518 28.802V20.2843C2.36624 19.696 2.49542 19.1149 2.74375 18.5815C2.99208 18.048 3.35361 17.5749 3.80326 17.195L3.84663 17.1517L5.31667 15.7695H46.2575L47.2949 16.8826C47.3052 16.9042 47.3383 16.9145 47.3486 16.9362C47.7503 17.3155 48.0707 17.7726 48.29 18.2796C48.5094 18.7866 48.6232 19.3329 48.6246 19.8852V28.802H48.6348C48.6264 29.4192 48.374 30.0081 47.9327 30.4401C47.4913 30.8721 46.8969 31.1121 46.2791 31.1078Z" fill="#FF6E6A"/>
<path d="M14.4736 20.0894H6.37015C6.08377 20.0903 5.80938 20.2043 5.60688 20.4067C5.40437 20.609 5.29021 20.8832 5.28931 21.1693V26.7869C5.29021 27.073 5.40437 27.3472 5.60688 27.5495C5.80938 27.7518 6.08377 27.8659 6.37015 27.8668H14.4736C14.76 27.8659 15.0344 27.7518 15.2369 27.5495C15.4394 27.3472 15.5535 27.073 15.5545 26.7869V21.1693C15.5535 20.8832 15.4394 20.609 15.2369 20.4067C15.0344 20.2043 14.76 20.0903 14.4736 20.0894ZM13.3928 25.7069H7.44642V22.2504H13.3882L13.3928 25.7069Z" fill="#FF6E6A"/>
<path d="M44.6356 20.0894H36.5321C36.2457 20.0903 35.9714 20.2043 35.7689 20.4067C35.5664 20.609 35.4522 20.8832 35.4513 21.1693V26.7869C35.4522 27.073 35.5664 27.3472 35.7689 27.5495C35.9714 27.7518 36.2457 27.8659 36.5321 27.8668H44.6356C44.922 27.8659 45.1964 27.7518 45.3989 27.5495C45.6014 27.3472 45.7155 27.073 45.7164 26.7869V21.1693C45.7155 20.8832 45.6014 20.609 45.3989 20.4067C45.1964 20.2043 44.922 20.0903 44.6356 20.0894ZM43.5548 25.7069H37.6084V22.2504H43.5548V25.7069Z" fill="#FF6E6A"/>
<path d="M30.7262 24.627H20.283C19.9963 24.627 19.7214 24.7407 19.5187 24.9433C19.316 25.1458 19.2021 25.4205 19.2021 25.7069C19.2021 25.9933 19.316 26.268 19.5187 26.4706C19.7214 26.6731 19.9963 26.7869 20.283 26.7869H30.7262C31.0128 26.7869 31.2878 26.6731 31.4905 26.4706C31.6932 26.268 31.807 25.9933 31.807 25.7069C31.807 25.4205 31.6932 25.1458 31.4905 24.9433C31.2878 24.7407 31.0128 24.627 30.7262 24.627Z" fill="#FF6E6A"/>
<path d="M30.7262 21.2778H20.283C19.9963 21.2778 19.7214 21.3916 19.5187 21.5941C19.316 21.7967 19.2021 22.0714 19.2021 22.3578C19.2021 22.6442 19.316 22.9189 19.5187 23.1214C19.7214 23.3239 19.9963 23.4377 20.283 23.4377H30.7262C31.0128 23.4377 31.2878 23.3239 31.4905 23.1214C31.6932 22.9189 31.807 22.6442 31.807 22.3578C31.807 22.0714 31.6932 21.7967 31.4905 21.5941C31.2878 21.3916 31.0128 21.2778 30.7262 21.2778Z" fill="#FF6E6A"/>
</svg>
