<svg width="28" height="28" viewBox="0 0 28 28" fill="none" xmlns="http://www.w3.org/2000/svg">
<path d="M16.8344 11.0114C16.5133 10.6887 16.1573 10.4026 15.773 10.1584C14.5557 9.37799 13.1072 9.03871 11.6696 9.1973C10.232 9.35588 8.89249 10.0027 7.87493 11.0297L2.12717 16.7738C0.941497 17.9585 0.275391 19.5654 0.275391 21.2408C0.275391 22.9162 0.941497 24.523 2.12717 25.7077C3.31285 26.8924 4.92098 27.558 6.59778 27.558C8.27458 27.558 9.8827 26.8924 11.0684 25.7077L15.8095 20.9705C15.871 20.9065 15.9125 20.826 15.9289 20.7389C15.9453 20.6517 15.9359 20.5616 15.9019 20.4797C15.8678 20.3977 15.8106 20.3275 15.7372 20.2776C15.6639 20.2276 15.5775 20.2001 15.4888 20.1985H15.3084C14.3178 20.2018 13.3361 20.0116 12.4186 19.6385C12.3358 19.6053 12.2452 19.5969 12.1578 19.6146C12.0703 19.6322 11.99 19.675 11.9267 19.7378L8.5175 23.1487C8.00911 23.6566 7.3196 23.942 6.60063 23.942C5.88166 23.942 5.19215 23.6566 4.68376 23.1487C4.17538 22.6407 3.88977 21.9517 3.88977 21.2334C3.88977 20.515 4.17538 19.826 4.68376 19.3181L10.4327 13.5659C10.9387 13.0562 11.6266 12.7682 12.3451 12.7652C13.0636 12.7622 13.7539 13.0445 14.2641 13.5499L14.2801 13.5659C14.6244 13.8941 15.082 14.0771 15.5578 14.0771C16.0336 14.0771 16.4912 13.8941 16.8355 13.5659C17.1731 13.2266 17.3625 12.7676 17.3625 12.2892C17.3625 11.8108 17.1731 11.3519 16.8355 11.0126L16.8344 11.0114ZM16.1758 12.9421C16.0031 13.1053 15.7744 13.1963 15.5367 13.1963C15.299 13.1963 15.0703 13.1053 14.8976 12.9421C14.2202 12.2656 13.3016 11.8855 12.3438 11.8855C11.386 11.8855 10.4675 12.2656 9.79009 12.9421L4.04119 18.6874C3.69843 19.0212 3.42545 19.4196 3.23807 19.8596C3.0507 20.2997 2.95267 20.7725 2.94969 21.2507C2.94671 21.7289 3.03882 22.2029 3.22069 22.6452C3.40256 23.0875 3.67056 23.4894 4.00912 23.8273C4.34769 24.1653 4.75007 24.4327 5.19292 24.6141C5.63577 24.7954 6.11026 24.887 6.58884 24.8836C7.06741 24.8802 7.54055 24.7818 7.98076 24.5942C8.42098 24.4066 8.81951 24.1335 9.15322 23.7907L12.3547 20.5873C13.0257 20.8328 13.7252 20.9918 14.4365 21.0606L10.4327 25.0714C9.41467 26.0885 8.034 26.6599 6.59435 26.6599C5.15471 26.6599 3.77403 26.0885 2.75605 25.0714C1.73807 24.0542 1.16617 22.6747 1.16617 21.2362C1.16617 19.7978 1.73807 18.4182 2.75605 17.4011L8.51408 11.666C8.81661 11.3582 9.15451 11.0872 9.52073 10.8586C10.3928 10.3378 11.3924 10.0692 12.4083 10.0827C13.4241 10.0962 14.4163 10.3913 15.2742 10.935C15.6013 11.1445 15.9041 11.3897 16.177 11.666C16.2608 11.7499 16.3273 11.8494 16.3726 11.9589C16.4179 12.0684 16.4411 12.1858 16.441 12.3043C16.4409 12.4228 16.4175 12.5401 16.372 12.6496C16.3265 12.759 16.2598 12.8584 16.1758 12.9421Z" fill="#C3CBCE"/>
<path d="M25.5278 2.32631C24.9408 1.73965 24.2438 1.27427 23.4768 0.956759C22.7097 0.639251 21.8875 0.47583 21.0572 0.47583C20.2269 0.47583 19.4048 0.639251 18.6377 0.956759C17.8706 1.27427 17.1737 1.73965 16.5866 2.32631L11.8501 7.05895C11.7881 7.12349 11.7464 7.20483 11.7303 7.29284C11.7143 7.38085 11.7244 7.47165 11.7596 7.55393C11.7947 7.63621 11.8533 7.70635 11.9281 7.75561C12.0028 7.80488 12.0904 7.83109 12.1799 7.831H12.3466C13.336 7.82937 14.3161 8.02113 15.2319 8.39549C15.3146 8.42877 15.4053 8.43711 15.4927 8.41947C15.5801 8.40184 15.6604 8.35901 15.7238 8.29628L19.1375 4.88536C19.6457 4.37694 20.3353 4.09107 21.0545 4.09064C21.7737 4.09021 22.4635 4.37526 22.9724 4.88308C23.4812 5.39089 23.7673 6.07988 23.7678 6.79847C23.7682 7.51705 23.4829 8.20638 22.9747 8.7148L18.7392 12.9343L18.7027 12.9753L17.2258 14.4647C16.7198 14.9744 16.0319 15.2624 15.3134 15.2654C14.5948 15.2684 13.9046 14.9861 13.3943 14.4806L13.3783 14.4647C13.034 14.1365 12.5765 13.9534 12.1006 13.9534C11.6248 13.9534 11.1672 14.1365 10.8229 14.4647C10.4854 14.804 10.2959 15.2629 10.2959 15.7413C10.2959 16.2197 10.4854 16.6787 10.8229 17.018C11.3457 17.5426 11.9574 17.9704 12.6296 18.2816C12.7244 18.3272 12.8145 18.3671 12.9138 18.4036C13.0131 18.4401 13.0987 18.48 13.2026 18.5119C13.3064 18.5439 13.3966 18.5792 13.4913 18.6066L13.7573 18.6784C13.9376 18.724 14.1191 18.7594 14.304 18.7925C14.5271 18.8254 14.7519 18.8464 14.9774 18.8552H15.637C15.7446 18.8588 15.8523 18.8496 15.9578 18.8278H16.1107L16.4223 18.7822L16.5672 18.7548L16.8286 18.7012H16.8788C17.9881 18.4229 19.0011 17.849 19.8098 17.0408L25.5313 11.2567C26.7153 10.0716 27.38 8.46535 27.3794 6.79082C27.3787 5.11628 26.7128 3.5105 25.5278 2.32631ZM24.9001 10.6329L19.1421 16.368C18.4438 17.0666 17.5676 17.5611 16.6083 17.798L16.3732 17.8437L16.2374 17.871L15.9794 17.9075H15.8265L15.5686 17.9303H14.9979C14.8164 17.9221 14.6354 17.9042 14.4558 17.8767C14.3028 17.8494 14.1442 17.8186 13.9992 17.7821L13.771 17.7194C13.6856 17.7062 13.603 17.6789 13.5267 17.6384C13.432 17.6019 13.3647 17.5802 13.2779 17.5483L13.0337 17.4445C12.4574 17.1776 11.933 16.8108 11.4849 16.3611C11.3182 16.1912 11.2254 15.9624 11.2266 15.7244C11.2278 15.4865 11.3229 15.2586 11.4913 15.0903C11.6597 14.9221 11.8878 14.827 12.1259 14.8258C12.3641 14.8246 12.5931 14.9173 12.7632 15.0839C13.4406 15.7604 14.3591 16.1405 15.3169 16.1405C16.2747 16.1405 17.1932 15.7604 17.8706 15.0839L19.3703 13.5683L19.4069 13.5273L23.607 9.33517C24.2638 8.65384 24.6264 7.74196 24.6167 6.79602C24.6071 5.85007 24.2259 4.94578 23.5553 4.27798C22.8847 3.61019 21.9784 3.23234 21.0317 3.22586C20.0849 3.21937 19.1735 3.58477 18.4938 4.24332L15.2878 7.44668C14.6198 7.20077 13.9234 7.04022 13.2151 6.96886L17.2201 2.96265C17.7241 2.45902 18.3225 2.05951 18.9811 1.78694C19.6397 1.51437 20.3455 1.37408 21.0584 1.37408C21.7712 1.37408 22.4771 1.51437 23.1357 1.78694C23.7942 2.05951 24.3926 2.45902 24.8967 2.96265C25.4007 3.46629 25.8006 4.0642 26.0734 4.72223C26.3462 5.38027 26.4866 6.08555 26.4866 6.7978C26.4866 7.51005 26.3462 8.21533 26.0734 8.87336C25.8006 9.5314 25.4007 10.1293 24.8967 10.6329H24.9001Z" fill="#C3CBCE"/>
</svg>
