<svg width="140" height="102" viewBox="0 0 140 102" fill="none" xmlns="http://www.w3.org/2000/svg">
<path d="M36.6252 43.2599H14.3384V47.7189H36.6252V43.2599Z" fill="black"/>
<path d="M47.7829 56.6368H14.3384V61.0957H47.7829V56.6368Z" fill="black"/>
<path d="M94.6152 70.0148H14.3384V74.4737H94.6152V70.0148Z" fill="black"/>
<path d="M27.7274 83.3654H14.3384V87.8243H27.7274V83.3654Z" fill="black"/>
<path d="M50.0141 83.3654H36.6251V87.8243H50.0141V83.3654Z" fill="black"/>
<path d="M72.3283 83.3654H58.9393V87.8243H72.3283V83.3654Z" fill="black"/>
<path d="M92.3838 41.0305C90.8226 41.0354 89.2912 41.458 87.9486 42.2542C86.5927 41.4605 85.051 41.0386 83.4796 41.0312C81.9081 41.0238 80.3625 41.431 78.9991 42.2118C77.6357 42.9926 76.5028 44.1193 75.7149 45.4779C74.927 46.8364 74.5121 48.3788 74.5121 49.949C74.5121 51.5192 74.927 53.0615 75.7149 54.4201C76.5028 55.7787 77.6357 56.9053 78.9991 57.6861C80.3625 58.4669 81.9081 58.8742 83.4796 58.8668C85.051 58.8593 86.5927 58.4375 87.9486 57.6438C89.2912 58.4399 90.8226 58.8624 92.3838 58.8674C94.7511 58.8674 97.0214 57.9278 98.6953 56.2553C100.369 54.5827 101.31 52.3143 101.31 49.949C101.31 47.5837 100.369 45.3152 98.6953 43.6427C97.0214 41.9701 94.7511 41.0305 92.3838 41.0305ZM84.6011 54.2454C84.2301 54.3526 83.8459 54.4075 83.4598 54.4085C82.2762 54.4085 81.1411 53.9387 80.3042 53.1025C79.4673 52.2663 78.9972 51.1321 78.9972 49.9495C78.9972 48.767 79.4673 47.6328 80.3042 46.7966C81.1411 45.9604 82.2762 45.4906 83.4598 45.4906C83.845 45.5031 84.2278 45.5578 84.6011 45.6537C83.8521 46.9617 83.4582 48.4426 83.4582 49.9495C83.4582 51.4565 83.8521 52.9374 84.6011 54.2454ZM92.3838 54.4085C91.5012 54.4085 90.6384 54.147 89.9045 53.657C89.1707 53.1671 88.5987 52.4707 88.2609 51.6559C87.9232 50.8411 87.8348 49.9446 88.007 49.0796C88.1792 48.2147 88.6042 47.4202 89.2283 46.7966C89.8524 46.173 90.6476 45.7483 91.5132 45.5763C92.3789 45.4042 93.2762 45.4925 94.0916 45.83C94.9071 46.1675 95.604 46.739 96.0944 47.4723C96.5847 48.2056 96.8465 49.0676 96.8465 49.9495C96.841 51.1305 96.3692 52.2615 95.5334 53.0965C94.6977 53.9316 93.5657 54.4031 92.3838 54.4085Z" fill="black"/>
<path d="M134.536 30.7248L40.9793 1.19654C40.3265 0.97872 35.1015 -0.734149 32.5974 5.54714L24.8968 29.882H7.64326C5.87042 29.8901 4.1725 30.5974 2.9189 31.85C1.6653 33.1025 0.957448 34.799 0.949342 36.5704V94.5127C0.948742 95.3912 1.12148 96.2612 1.45766 97.073C1.79385 97.8847 2.2869 98.6223 2.90861 99.2435C3.53031 99.8646 4.26849 100.357 5.0809 100.693C5.89331 101.029 6.76404 101.202 7.64326 101.201H105.772C106.88 101.202 107.97 100.927 108.945 100.4C109.919 99.8724 110.746 99.1103 111.351 98.1825C112.566 98.5381 113.802 98.8195 115.052 99.0252C116.475 99.0319 117.862 98.5808 119.009 97.7388C120.156 96.8968 121.001 95.7086 121.419 94.3496L138.89 39.0998C139.433 37.4189 139.814 32.1388 134.536 30.7248ZM34.1484 15.3899L80.1099 29.882H50.4764L31.4549 23.8733L34.1484 15.3899ZM30.1207 28.1418L35.6995 29.9094H29.5774L30.1207 28.1418ZM108.003 94.5127H107.976C107.973 95.1032 107.737 95.6687 107.319 96.0862C106.901 96.5037 106.335 96.7395 105.744 96.7422H7.64326C7.05232 96.7395 6.48634 96.5037 6.06848 96.0862C5.65061 95.6687 5.41466 95.1032 5.41196 94.5127V36.5704C5.41436 35.9798 5.65018 35.414 6.06808 34.9962C6.48597 34.5784 7.05212 34.3425 7.64326 34.3398H105.772C106.363 34.3425 106.929 34.5783 107.346 34.9958C107.764 35.4133 108 35.9788 108.003 36.5693V94.5127ZM117.174 93.0176C116.988 93.5767 116.591 94.0407 116.067 94.3102C115.543 94.5798 114.934 94.6332 114.37 94.4591L112.438 93.8604V54.1359L127.923 59.0305L117.174 93.0176ZM129.256 54.7608L112.438 49.4592V40.1079L131.955 46.2524L129.256 54.7608ZM134.644 37.769L133.311 42.0101L112.33 35.4015C112.052 33.8644 111.243 32.4732 110.045 31.4699C108.847 30.4665 107.335 29.9143 105.772 29.9094H94.9142L35.4815 11.1488L36.8146 6.90763C36.9973 6.34663 37.3943 5.88037 37.9192 5.61023C38.4441 5.34009 39.0545 5.28791 39.6177 5.46503L133.175 34.967C133.466 35.0372 133.739 35.1688 133.976 35.3529C134.212 35.537 134.406 35.7695 134.545 36.0347C134.684 36.2998 134.765 36.5917 134.782 36.8906C134.799 37.1895 134.752 37.4886 134.644 37.7678V37.769Z" fill="black"/>
</svg>
