<svg width="24" height="28" viewBox="0 0 24 28" fill="none" xmlns="http://www.w3.org/2000/svg">
<path d="M12.2113 11.4044V12.7376C12.1977 13.1059 12.285 13.471 12.4635 13.7936C12.5682 13.9764 12.7194 14.1282 12.9019 14.2338C13.0843 14.3393 13.2914 14.3948 13.5022 14.3946C13.7394 14.3811 13.9716 14.3204 14.185 14.216C14.3985 14.1117 14.5889 13.9657 14.7451 13.7867L19.1529 9.38252C19.6176 8.91691 19.8786 8.28617 19.8786 7.62859C19.8786 6.97101 19.6176 6.34027 19.1529 5.87467L14.7485 1.46932C14.5923 1.28996 14.4018 1.14366 14.1881 1.03907C13.9745 0.934482 13.742 0.873713 13.5044 0.860352C12.863 0.860352 12.2113 1.37353 12.2113 2.51734V3.72844C9.15858 3.91254 6.26666 5.15855 4.03723 7.25033C1.80781 9.34211 0.381549 12.1477 0.00588569 15.1803C-0.0152631 15.351 0.020935 15.524 0.108798 15.6719C0.19666 15.8199 0.331213 15.9345 0.491333 15.9978C0.651453 16.0611 0.828074 16.0695 0.993471 16.0216C1.15887 15.9738 1.30367 15.8724 1.40516 15.7334C2.61817 14.07 4.27529 12.7815 6.18693 12.0151C8.09856 11.2488 10.1875 11.0355 12.2147 11.3999L12.2113 11.4044ZM2.25089 12.579C3.09863 10.423 4.57635 8.57186 6.4917 7.26665C8.40705 5.96144 10.6713 5.26261 12.9897 5.26113C13.1958 5.26113 13.3935 5.17931 13.5393 5.03367C13.6851 4.88803 13.7669 4.69049 13.7669 4.48453V2.68498L18.0561 6.97287C18.2295 7.14685 18.3269 7.38243 18.3269 7.62802C18.3269 7.87361 18.2295 8.10919 18.0561 8.28318L13.7704 12.5654V10.7715C13.7704 10.5965 13.7112 10.4265 13.6025 10.2893C13.4937 10.152 13.3417 10.0555 13.1712 10.0154C11.2773 9.56293 9.30387 9.55897 7.40825 10.0039C5.51262 10.4488 3.74731 11.3302 2.25317 12.5779L2.25089 12.579Z" fill="#FF6E6A"/>
<path d="M22.7208 12.2483C22.5609 12.1853 22.3845 12.177 22.2194 12.2246C22.0542 12.2723 21.9095 12.3732 21.8078 12.5117C20.5946 14.175 18.9375 15.4634 17.0259 16.2298C15.1143 16.9961 13.0254 17.2094 10.9982 16.8452V15.5121C10.9982 14.3717 10.3499 13.8551 9.70848 13.8551C9.47112 13.8686 9.23887 13.9295 9.02541 14.034C8.81195 14.1386 8.62159 14.2848 8.46557 14.4641L4.05774 18.8683C3.59301 19.3339 3.33203 19.9646 3.33203 20.6222C3.33203 21.2798 3.59301 21.9105 4.05774 22.3761L8.46557 26.7803C8.62169 26.9593 8.81209 27.1053 9.02555 27.2097C9.239 27.3141 9.47121 27.3748 9.70848 27.3881C10.3511 27.3881 10.9982 26.8761 10.9982 25.7311V24.52C14.0519 24.3375 16.9454 23.0924 19.1762 21.0007C21.4069 18.909 22.8343 16.1029 23.2104 13.0694C23.2316 12.8985 23.1953 12.7255 23.1073 12.5775C23.0193 12.4295 22.8845 12.3149 22.7242 12.2517L22.7208 12.2483ZM10.2198 22.9851C10.0137 22.9851 9.81596 23.0669 9.67019 23.2125C9.52443 23.3582 9.44255 23.5557 9.44255 23.7617V25.5544L5.15684 21.2722C4.98309 21.0984 4.8855 20.8627 4.8855 20.6171C4.8855 20.3714 4.98309 20.1357 5.15684 19.9619L9.44255 15.6797V17.477C9.44273 17.652 9.50197 17.8218 9.6107 17.959C9.71944 18.0962 9.8713 18.1928 10.0418 18.2331C11.9354 18.6854 13.9086 18.6892 15.8041 18.2443C17.6995 17.7994 19.4646 16.9181 20.9586 15.6706C20.1109 17.8267 18.6331 19.6778 16.7178 20.983C14.8024 22.2882 12.5382 22.987 10.2198 22.9885V22.9851Z" fill="#FF6E6A"/>
</svg>
