<svg width="28" height="28" viewBox="0 0 28 28" fill="none" xmlns="http://www.w3.org/2000/svg">
<path d="M27.0338 5.85021H24.8436C25.0597 5.5484 25.1983 5.19812 25.247 4.83023C25.2958 4.46233 25.2533 4.0881 25.1232 3.74048L24.4578 1.95805C24.3481 1.66249 24.1779 1.39299 23.9583 1.16667C23.7386 0.940354 23.4743 0.762169 23.182 0.643442C22.8897 0.524714 22.5759 0.468042 22.2605 0.477027C21.9451 0.486012 21.635 0.560457 21.35 0.695631L16.0999 3.18967C15.8317 2.99756 15.5099 2.89426 15.1799 2.89431H12.8105C12.4802 2.89402 12.158 2.99733 11.8895 3.18967L6.63364 0.694491C6.34845 0.559331 6.03823 0.484927 5.72271 0.476007C5.40718 0.467088 5.09325 0.523847 4.80087 0.64268C4.50848 0.761512 4.24403 0.939818 4.02432 1.16627C3.80461 1.39271 3.63445 1.66235 3.52465 1.95805L2.86154 3.74048C2.75253 4.03557 2.70579 4.35 2.72425 4.66401C2.74272 4.97801 2.82598 5.28481 2.96882 5.56511C3.01925 5.66312 3.07686 5.75727 3.14116 5.84679H0.948663C0.893816 5.84679 0.839512 5.85764 0.788884 5.87871C0.738255 5.89979 0.692304 5.93067 0.653681 5.96958C0.615058 6.00849 0.584529 6.05465 0.563853 6.10541C0.543177 6.15617 0.532765 6.21052 0.533217 6.26532V9.25657C0.533217 9.36666 0.576987 9.47224 0.654898 9.55009C0.732809 9.62794 0.83848 9.67167 0.948663 9.67167C1.05885 9.67167 1.16452 9.62794 1.24243 9.55009C1.32034 9.47224 1.36411 9.36666 1.36411 9.25657V6.67928H4.2494C4.29505 6.69524 4.34299 6.71007 4.38978 6.72375L7.8777 7.68283C7.1018 8.87175 6.41841 10.1184 5.83357 11.4119H1.36411V10.9136C1.36411 10.8035 1.32034 10.6979 1.24243 10.62C1.16452 10.5422 1.05885 10.4985 0.948663 10.4985C0.83848 10.4985 0.732809 10.5422 0.654898 10.62C0.576987 10.6979 0.533217 10.8035 0.533217 10.9136V11.8259C0.533217 11.936 0.576987 12.0416 0.654898 12.1194C0.732809 12.1972 0.83848 12.241 0.948663 12.241H2.4324V26.9327C2.4324 27.0428 2.47617 27.1483 2.55408 27.2262C2.63199 27.304 2.73766 27.3478 2.84784 27.3478H25.1369C25.1915 27.3478 25.2455 27.337 25.2959 27.3162C25.3463 27.2953 25.3921 27.2647 25.4307 27.2262C25.4693 27.1877 25.4999 27.1419 25.5208 27.0915C25.5416 27.0412 25.5524 26.9872 25.5524 26.9327V24.5264C25.5524 24.4164 25.5086 24.3108 25.4307 24.2329C25.3528 24.1551 25.2471 24.1113 25.1369 24.1113C25.0268 24.1113 24.9211 24.1551 24.8432 24.2329C24.7653 24.3108 24.7215 24.4164 24.7215 24.5264V26.5221H16.4834V12.4953C17.6642 14.7286 18.4554 17.1466 18.8231 19.6456C18.8349 19.7266 18.8705 19.8023 18.9254 19.8632C18.9802 19.9241 19.0518 19.9674 19.1312 19.9877C19.1648 19.9962 19.1993 20.0004 19.234 20.0002C19.2984 20.0003 19.3619 19.9853 19.4195 19.9567C19.4772 19.928 19.5273 19.8863 19.5661 19.8349C20.1717 19.0305 20.7241 18.1874 21.2199 17.3112C22.0695 17.8904 22.8804 18.5242 23.6475 19.2088C23.7113 19.2644 23.7905 19.2993 23.8746 19.3087C23.9587 19.3181 24.0437 19.3016 24.1182 19.2614C24.1926 19.2212 24.253 19.1592 24.2913 19.0838C24.3296 19.0084 24.3439 18.9231 24.3323 18.8393C23.9976 16.5732 23.3842 14.357 22.5062 12.241H24.7192V22.8649C24.7192 22.975 24.763 23.0806 24.8409 23.1584C24.9188 23.2363 25.0245 23.28 25.1347 23.28C25.2448 23.28 25.3505 23.2363 25.4284 23.1584C25.5063 23.0806 25.5501 22.975 25.5501 22.8649V12.2421H27.0338C27.0884 12.2421 27.1424 12.2314 27.1928 12.2105C27.2432 12.1897 27.289 12.1591 27.3276 12.1205C27.3662 12.082 27.3968 12.0362 27.4177 11.9859C27.4385 11.9355 27.4493 11.8815 27.4493 11.827V6.26532C27.4493 6.2108 27.4385 6.15683 27.4177 6.10646C27.3968 6.0561 27.3662 6.01034 27.3276 5.97179C27.289 5.93325 27.2432 5.90267 27.1928 5.88181C27.1424 5.86095 27.0884 5.85021 27.0338 5.85021ZM21.7061 1.44487C21.8869 1.35905 22.0836 1.31171 22.2836 1.30583C22.4837 1.29995 22.6828 1.33567 22.8683 1.41072C23.0539 1.48577 23.2218 1.59852 23.3614 1.74181C23.501 1.88511 23.6093 2.05583 23.6795 2.24315L24.3437 4.02672C24.4134 4.21436 24.4433 4.41442 24.4314 4.6142C24.4196 4.81399 24.3663 5.00913 24.275 5.18725C24.1837 5.36537 24.0563 5.52256 23.9009 5.64887C23.7455 5.77517 23.5656 5.86781 23.3724 5.92092L16.7596 7.74555V5.74758C18.2433 4.83526 21.9515 2.96273 22.8737 4.26506C22.9374 4.35489 23.0342 4.41575 23.1428 4.43425C23.2515 4.45275 23.363 4.42737 23.4529 4.36371C23.5428 4.30004 23.6037 4.2033 23.6222 4.09476C23.6407 3.98623 23.6153 3.87479 23.5516 3.78496C22.8394 2.78141 21.3397 2.73238 19.0936 3.64013C18.2913 3.9706 17.5116 4.35346 16.7596 4.78622V4.47946C16.7598 4.26416 16.7159 4.0511 16.6306 3.85338L21.7061 1.44487ZM12.8105 3.72566H15.1742C15.3745 3.72596 15.5665 3.80559 15.7082 3.94711C15.8498 4.08862 15.9295 4.28047 15.9298 4.4806V7.90976C15.9295 8.10989 15.8498 8.30174 15.7082 8.44325C15.5665 8.58477 15.3745 8.6644 15.1742 8.6647H12.8105C12.6102 8.6644 12.4182 8.58477 12.2766 8.44325C12.135 8.30174 12.0553 8.10989 12.055 7.90976V4.47946C12.0553 4.27933 12.135 4.08748 12.2766 3.94597C12.4182 3.80445 12.6102 3.72482 12.8105 3.72452V3.72566ZM12.112 11.4131C12.5101 10.7519 12.9425 10.1121 13.4075 9.49605H14.5716C15.0367 10.1116 15.4691 10.7511 15.867 11.4119L12.112 11.4131ZM3.70841 5.18992C3.61618 5.01203 3.56242 4.81674 3.55062 4.61674C3.53882 4.41674 3.56925 4.21649 3.63993 4.029L4.29962 2.24543C4.3696 2.058 4.47782 1.88716 4.61743 1.74377C4.75703 1.60038 4.92495 1.48756 5.11053 1.41249C5.29611 1.33742 5.49528 1.30173 5.6954 1.3077C5.89552 1.31367 6.09222 1.36116 6.27298 1.44715L11.3519 3.85338C11.2666 4.05108 11.2227 4.26416 11.2229 4.47946V4.80903C10.4585 4.3667 9.66546 3.97582 8.84897 3.63899C6.60169 2.73123 5.09855 2.78027 4.38978 3.78268C4.35823 3.82716 4.33576 3.87741 4.32365 3.93056C4.31153 3.98372 4.31002 4.03874 4.31918 4.09248C4.32835 4.14622 4.34802 4.19764 4.37708 4.24378C4.40613 4.28993 4.44399 4.3299 4.48851 4.36143C4.53302 4.39295 4.58332 4.41541 4.63652 4.42751C4.68972 4.43961 4.74478 4.44113 4.79857 4.43197C4.85235 4.42281 4.90381 4.40315 4.94999 4.37412C4.99618 4.3451 5.03618 4.30726 5.06773 4.26278C5.99906 2.95019 9.76546 4.87289 11.2229 5.77267V7.74213L4.6112 5.92434C4.41767 5.87222 4.23727 5.77999 4.08173 5.65366C3.9262 5.52733 3.799 5.36972 3.70841 5.19106V5.18992ZM11.4101 8.65444C11.5139 8.84804 11.6566 9.01814 11.8293 9.15413C12.0019 9.29011 12.2007 9.38904 12.4134 9.44473C10.4687 12.1574 9.13541 15.259 8.50543 18.536C8.06018 17.8853 7.64912 17.2119 7.27393 16.5186C7.24664 16.4681 7.20916 16.4238 7.16387 16.3885C7.11858 16.3532 7.06645 16.3277 7.01079 16.3136C6.95513 16.2994 6.89713 16.2969 6.84047 16.3063C6.7838 16.3157 6.7297 16.3367 6.68158 16.3681C5.98184 16.8249 5.3064 17.3178 4.658 17.8449C5.33681 14.2978 6.71783 10.922 8.72 7.91547L11.4101 8.65444ZM3.261 12.2421H5.47405C4.59604 14.3581 3.98269 16.5743 3.64792 18.8404C3.63633 18.9242 3.65063 19.0095 3.6889 19.0849C3.72717 19.1604 3.78758 19.2223 3.86205 19.2625C3.93653 19.3027 4.0215 19.3192 4.10562 19.3098C4.18973 19.3004 4.26897 19.2656 4.33272 19.2099C5.09977 18.5253 5.9107 17.8914 6.76033 17.3123C7.25606 18.1886 7.8085 19.0316 8.41412 19.836C8.45287 19.8874 8.50304 19.9291 8.56068 19.9578C8.61832 19.9865 8.68185 20.0014 8.74625 20.0014C8.78093 20.0012 8.81545 19.9966 8.84897 19.9877C8.92839 19.9674 9.00002 19.9241 9.05485 19.8632C9.10969 19.8023 9.14528 19.7266 9.15713 19.6456C9.52498 17.1467 10.3162 14.7287 11.4969 12.4953V26.5221H3.261V12.2421ZM12.33 26.5221V12.2421H15.6536V26.521L12.33 26.5221ZM21.3021 16.3726C21.2539 16.3413 21.1998 16.3203 21.1432 16.3109C21.0865 16.3015 21.0285 16.304 20.9728 16.3181C20.9172 16.3323 20.8651 16.3578 20.8198 16.3931C20.7745 16.4284 20.737 16.4727 20.7097 16.5232C20.3348 17.2153 19.9242 17.8876 19.4794 18.5371C18.8496 15.2601 17.5163 12.1585 15.5714 9.44587C15.7841 9.39018 15.9829 9.29125 16.1555 9.15527C16.3281 9.01928 16.4708 8.84918 16.5747 8.65558L19.2648 7.91547C21.2669 10.9229 22.6479 14.2994 23.3268 17.8472C22.6791 17.3198 22.0044 16.8265 21.3055 16.3692L21.3021 16.3726ZM26.6184 11.4142H22.1501C21.5653 10.12 20.8819 8.87252 20.1059 7.68283L23.5882 6.72375C23.6361 6.71007 23.6829 6.69524 23.7285 6.67928H26.6138L26.6184 11.4142Z" fill="#C3CBCE"/>
</svg>
