<svg width="17" height="16" viewBox="0 0 17 16" fill="none" xmlns="http://www.w3.org/2000/svg">
<path d="M8.50018 3.0933C10.0024 3.0933 11.0157 3.74219 11.5935 4.28441L13.8513 2.07997C12.4646 0.791081 10.6602 -3.05176e-05 8.50018 -3.05176e-05C5.37129 -3.05176e-05 2.66907 1.79552 1.35352 4.40886L3.94018 6.41775C4.58907 4.48886 6.38463 3.0933 8.50018 3.0933Z" fill="#EA4335"/>
<path d="M16.18 8.17758C16.18 7.5198 16.1267 7.0398 16.0111 6.54202H8.5V9.51091H12.9089C12.82 10.2487 12.34 11.3598 11.2733 12.1065L13.7978 14.062C15.3089 12.6665 16.18 10.6131 16.18 8.17758Z" fill="#4285F4"/>
<path d="M3.94889 9.58242C3.78 9.08464 3.68222 8.55131 3.68222 8.0002C3.68222 7.44909 3.78 6.91575 3.94 6.41798L1.35333 4.40909C0.811111 5.49353 0.5 6.71131 0.5 8.0002C0.5 9.28909 0.811111 10.5069 1.35333 11.5913L3.94889 9.58242Z" fill="#FBBC05"/>
<path d="M8.49959 16C10.6596 16 12.4729 15.2889 13.7974 14.0622L11.2729 12.1067C10.5974 12.5778 9.6907 12.9067 8.49959 12.9067C6.38404 12.9067 4.58848 11.5111 3.94848 9.58224L1.36182 11.5911C2.67737 14.2045 5.37071 16 8.49959 16Z" fill="#34A853"/>
</svg>
