<svg width="37" height="33" viewBox="0 0 37 33" fill="none" xmlns="http://www.w3.org/2000/svg">
<path d="M3.09343 27.5363L3.15619 28.6026L2.97925 28.6094C2.96707 28.3432 2.86534 28.0888 2.6905 27.8876C2.48588 27.7607 2.24564 27.7034 2.00573 27.7245C1.85807 27.7184 1.71014 27.7264 1.56401 27.7484C1.51379 27.7667 1.49212 27.8168 1.49212 27.9115V28.8922L1.5583 28.9002H1.5971C1.6866 28.9115 1.77753 28.9009 1.86202 28.8693C1.94652 28.8378 2.02211 28.7861 2.08222 28.7189C2.15195 28.5987 2.1911 28.4632 2.19633 28.3243H2.38803V29.6928H2.1895V29.6107C2.19497 29.5223 2.1777 29.434 2.13934 29.3541C2.10098 29.2743 2.0428 29.2055 1.97034 29.1545C1.86364 29.1036 1.74607 29.0798 1.62796 29.085H1.48752V30.1593V30.2356C1.48682 30.2554 1.492 30.2749 1.50236 30.2918C1.51271 30.3086 1.52781 30.322 1.54576 30.3303C1.59983 30.3421 1.65479 30.3494 1.71009 30.352C1.72949 30.352 1.7672 30.352 1.82998 30.352C1.89275 30.352 1.96237 30.352 2.01144 30.352C2.2533 30.3716 2.49555 30.3192 2.70764 30.2014C2.89916 30.0046 3.01378 29.7456 3.03066 29.4716L3.04431 29.4317L3.21554 29.4419L3.13223 30.5493H0.568756V30.3725L0.819886 30.3577C0.854057 30.3623 0.888842 30.3582 0.921104 30.3461C0.953366 30.3339 0.982087 30.314 1.00477 30.2881C1.02601 30.2293 1.03495 30.1668 1.03103 30.1045V27.9674C1.03103 27.8442 1.01505 27.7689 0.97739 27.7484C0.846347 27.7166 0.711508 27.7032 0.576767 27.7085V27.5317L3.09343 27.5363Z" fill="#004A9C"/>
<path fill-rule="evenodd" clip-rule="evenodd" d="M4.70155 30.3187C4.78635 30.2721 4.85625 30.2026 4.90329 30.118C4.95032 30.0335 4.97256 29.9375 4.96744 29.8409L4.97316 29.5934V29.5273C4.74338 29.5455 4.5186 29.6038 4.30894 29.6995C4.23612 29.7298 4.17377 29.7806 4.12956 29.8459C4.08535 29.9111 4.06119 29.9879 4.06011 30.0667C4.06213 30.1546 4.09439 30.2392 4.15143 30.3062C4.18315 30.3406 4.22216 30.3674 4.26561 30.3848C4.30905 30.4021 4.3558 30.4096 4.40249 30.4066C4.50806 30.4066 4.6116 30.3774 4.70155 30.3221V30.3187ZM4.14231 29.557C4.41137 29.4603 4.68983 29.3923 4.97316 29.3539C4.97316 29.3357 4.97316 29.3186 4.97316 29.3072C4.97564 29.2879 4.97564 29.2683 4.97316 29.249C4.9852 29.1154 4.95399 28.9815 4.88413 28.867C4.83659 28.816 4.77775 28.7769 4.71234 28.7528C4.64694 28.7286 4.57683 28.7201 4.50754 28.7279C4.41992 28.7295 4.33332 28.7469 4.25188 28.7792C4.16971 28.8111 4.12517 28.843 4.12517 28.8932C4.13759 28.9244 4.1533 28.9542 4.17198 28.9822C4.19953 29.0286 4.21519 29.0811 4.21761 29.135C4.21819 29.1617 4.21334 29.1881 4.20333 29.2128C4.19332 29.2375 4.17834 29.2599 4.15937 29.2787C4.11262 29.3134 4.05559 29.3315 3.99734 29.33C3.96437 29.3315 3.93148 29.3257 3.90107 29.3129C3.87066 29.3 3.8435 29.2805 3.82159 29.2559C3.77866 29.2041 3.75632 29.1383 3.75882 29.0711C3.76246 28.9963 3.78535 28.9238 3.82535 28.8604C3.86534 28.7971 3.92103 28.7451 3.98703 28.7096C4.15891 28.606 4.35705 28.5541 4.5577 28.5602C4.68281 28.5442 4.80993 28.5578 4.92885 28.5998C5.04778 28.6417 5.15525 28.7111 5.24254 28.802C5.31698 28.9184 5.35254 29.0553 5.3441 29.1931V29.2946L5.32815 29.9264V30.0109C5.3233 30.0857 5.3306 30.1607 5.34982 30.2332C5.35781 30.2671 5.3775 30.2972 5.40548 30.318C5.43345 30.3389 5.46788 30.3493 5.50272 30.3473C5.53587 30.346 5.5685 30.3383 5.59865 30.3244C5.62179 30.3112 5.64743 30.3031 5.67395 30.3005C5.67984 30.2998 5.6858 30.3007 5.69123 30.3031C5.69665 30.3055 5.7013 30.3094 5.70474 30.3142C5.71064 30.3193 5.71537 30.3255 5.71853 30.3326C5.72169 30.3397 5.72318 30.3475 5.72299 30.3553C5.72299 30.402 5.68762 30.4499 5.61571 30.5092C5.54059 30.568 5.44759 30.5994 5.35211 30.5981C5.30007 30.6015 5.24789 30.5931 5.19963 30.5733C5.15136 30.5536 5.10827 30.523 5.07361 30.4841C5.02942 30.424 4.99653 30.3564 4.97657 30.2845C4.88664 30.398 4.76863 30.4861 4.63418 30.54C4.50756 30.5909 4.37236 30.6172 4.23586 30.6175C4.08015 30.6261 3.92603 30.5827 3.79762 30.4943C3.74145 30.4492 3.69699 30.3913 3.66798 30.3254C3.63898 30.2595 3.62629 30.1876 3.63099 30.1157C3.63099 29.8877 3.79529 29.6984 4.12057 29.5627L4.14231 29.557Z" fill="#004A9C"/>
<path d="M6.20128 28.7166C6.26112 28.6579 6.33274 28.6125 6.41145 28.5836C6.49016 28.5547 6.57413 28.5429 6.65777 28.5489C6.7703 28.5479 6.88197 28.5688 6.9865 28.6105C7.05144 28.6396 7.11178 28.678 7.16567 28.7245L7.29238 28.5683H7.42822V29.2662H7.27636C7.24019 29.1448 7.18595 29.0295 7.11544 28.9241C7.06008 28.8573 6.99017 28.8039 6.91106 28.7681C6.83194 28.7324 6.74575 28.7151 6.65895 28.7177C6.55824 28.7125 6.45886 28.7428 6.37815 28.8032C6.34589 28.8279 6.31996 28.86 6.3025 28.8966C6.28504 28.9333 6.27653 28.9736 6.2777 29.0142C6.27571 29.0603 6.28661 29.1061 6.30918 29.1464C6.33176 29.1867 6.36512 29.2199 6.40553 29.2423C6.48535 29.2825 6.57081 29.3106 6.65895 29.3255L7.00817 29.3951C7.16382 29.4223 7.3093 29.4908 7.42934 29.5935C7.47719 29.6495 7.51348 29.7144 7.5362 29.7844C7.55892 29.8545 7.56758 29.9283 7.56169 30.0017C7.56752 30.0889 7.55176 30.1762 7.51572 30.2557C7.47968 30.3353 7.42452 30.4048 7.35515 30.4579C7.21636 30.5662 7.04374 30.6219 6.8678 30.6153C6.75972 30.6183 6.65219 30.5992 6.55168 30.5594C6.46183 30.5217 6.37673 30.4735 6.29825 30.4158L6.15447 30.5982H6.0141V29.7999H6.17042C6.20483 29.9382 6.26316 30.0694 6.34276 30.1877C6.40546 30.2719 6.48791 30.3396 6.58281 30.3847C6.67771 30.4298 6.78216 30.4511 6.88716 30.4465C6.99951 30.4539 7.11041 30.4175 7.19653 30.345C7.2314 30.3192 7.25977 30.2857 7.27957 30.2472C7.29936 30.2086 7.31002 30.166 7.31064 30.1227C7.31479 30.0751 7.30505 30.0274 7.28256 29.9853C7.26007 29.9431 7.22577 29.9085 7.18392 29.8854C7.01664 29.8165 6.84314 29.7638 6.66578 29.7281C6.49158 29.6972 6.32633 29.6282 6.18184 29.5262C6.13053 29.4749 6.09114 29.413 6.06648 29.3448C6.04183 29.2766 6.03251 29.2038 6.03918 29.1316C6.03656 29.0548 6.04991 28.9782 6.0784 28.9068C6.10688 28.8353 6.1499 28.7706 6.20469 28.7166H6.20128Z" fill="#004A9C"/>
<path d="M7.798 28.616L7.84251 28.6092C7.94425 28.6002 8.04066 28.5598 8.11837 28.4936C8.19609 28.4274 8.25127 28.3386 8.27623 28.2397C8.33207 28.0871 8.36285 27.9265 8.36748 27.7642H8.5376V28.6172H9.16191V28.7859H8.533V30.0153C8.53076 30.0846 8.54244 30.1535 8.56727 30.2183C8.58396 30.2642 8.61535 30.3033 8.65665 30.3295C8.69795 30.3557 8.74677 30.3675 8.79548 30.3631C8.85945 30.3612 8.92109 30.3386 8.9711 30.2987C9.02111 30.2588 9.05685 30.2038 9.07288 30.1419C9.1065 30.0309 9.12455 29.9157 9.12652 29.7997H9.29656C9.29843 29.967 9.26939 30.1333 9.21095 30.2902C9.16307 30.3949 9.08374 30.4822 8.98392 30.5398C8.8841 30.5975 8.76878 30.6226 8.654 30.6117C8.56602 30.6219 8.47696 30.6056 8.39827 30.565C8.31959 30.5244 8.25484 30.4612 8.21228 30.3836C8.16924 30.28 8.149 30.1684 8.15292 30.0564V28.8019H7.79681V28.6195L7.798 28.616Z" fill="#004A9C"/>
<path fill-rule="evenodd" clip-rule="evenodd" d="M10.8373 29.4157C10.8665 29.3755 10.8792 29.3257 10.8727 29.2765C10.8728 29.1751 10.8538 29.0745 10.8168 28.98C10.7898 28.9021 10.7386 28.8348 10.6706 28.7881C10.6027 28.7413 10.5215 28.7175 10.439 28.7201C10.2404 28.7201 10.0966 28.8341 10.0156 29.0816C9.97351 29.1972 9.95108 29.3189 9.94934 29.4419H10.705C10.7505 29.4441 10.7958 29.4355 10.8373 29.4168V29.4157ZM9.77247 28.8614C9.85347 28.7618 9.95611 28.682 10.0726 28.6278C10.189 28.5737 10.3163 28.5467 10.4447 28.549C10.5641 28.544 10.6829 28.5683 10.7908 28.6198C10.8986 28.6713 10.9922 28.7484 11.0633 28.8444C11.2228 29.0681 11.3086 29.336 11.3087 29.6107H9.9391C9.93354 29.7702 9.96276 29.9289 10.0247 30.0759C10.0686 30.179 10.1437 30.2658 10.2396 30.3239C10.3354 30.382 10.4471 30.4085 10.5589 30.3998C10.6314 30.4023 10.7037 30.3904 10.7716 30.3645C10.8394 30.3387 10.9013 30.2995 10.9537 30.2493C11.0411 30.1622 11.1147 30.0622 11.1718 29.9528L11.3144 30.0326C11.2429 30.2014 11.1308 30.3498 10.988 30.4648C10.8319 30.5696 10.6464 30.622 10.4584 30.6142C10.2089 30.6192 9.96736 30.5258 9.7862 30.3542C9.68919 30.2534 9.6143 30.1335 9.56634 30.0022C9.51839 29.8708 9.49841 29.7308 9.50769 29.5913C9.50134 29.3233 9.59626 29.0627 9.77359 28.8614H9.77247Z" fill="#004A9C"/>
<path d="M11.5393 28.7803V28.6161L12.2743 28.5704V29.2217C12.3189 29.0789 12.3847 28.9436 12.4695 28.8202C12.5203 28.7433 12.5895 28.6802 12.6708 28.6366C12.7521 28.593 12.8429 28.5703 12.9352 28.5704C12.9803 28.5659 13.0259 28.5712 13.0687 28.586C13.1115 28.6009 13.1506 28.6248 13.1832 28.6563C13.2158 28.6878 13.2411 28.7261 13.2574 28.7684C13.2737 28.8107 13.2806 28.856 13.2775 28.9012C13.2785 28.9687 13.2577 29.0346 13.2182 29.0893C13.1962 29.1183 13.1674 29.1414 13.1344 29.1565C13.1013 29.1716 13.065 29.1783 13.0287 29.176C13 29.1767 12.9715 29.1714 12.9449 29.1604C12.9184 29.1494 12.8944 29.133 12.8746 29.1122C12.8516 29.0921 12.8336 29.0669 12.8221 29.0385C12.8106 29.0102 12.8059 28.9796 12.8084 28.9491C12.8065 28.9101 12.8131 28.8712 12.8279 28.8351C12.8504 28.805 12.8743 28.776 12.8998 28.7483C12.7035 28.7791 12.5574 28.9229 12.4512 29.1795C12.3431 29.4625 12.2908 29.7637 12.2971 30.0666C12.2922 30.1542 12.2992 30.2421 12.3177 30.3278C12.3325 30.3609 12.3827 30.3826 12.458 30.3826H12.7035V30.5491H11.5804V30.3826H11.6374C11.6534 30.3809 11.6694 30.3809 11.6854 30.3826H11.7607C11.8303 30.3826 11.8817 30.3735 11.9011 30.3438C11.9272 30.2978 11.9376 30.2446 11.9308 30.1921V29.1886V29.0449C11.9316 28.9759 11.9191 28.9074 11.8942 28.843C11.8755 28.8217 11.8523 28.8049 11.8262 28.7939C11.8001 28.7828 11.7719 28.7778 11.7436 28.7792L11.5393 28.7803Z" fill="#004A9C"/>
<path d="M13.427 30.3884H13.6085C13.6522 30.3937 13.6965 30.384 13.734 30.361C13.758 30.3427 13.7694 30.3028 13.7694 30.239V29.0097C13.7694 28.9013 13.7512 28.8352 13.7124 28.8147C13.6085 28.7815 13.4988 28.7709 13.3905 28.7839V28.6197L14.137 28.5741V28.9823C14.2 28.8873 14.2739 28.8001 14.3572 28.7223C14.4853 28.622 14.6442 28.5692 14.8069 28.5729C14.8975 28.5661 14.9884 28.5808 15.0723 28.6157C15.1562 28.6506 15.2307 28.7047 15.2897 28.7736C15.4057 28.9346 15.4618 29.1311 15.4483 29.329V30.247C15.4437 30.2851 15.454 30.3234 15.4769 30.3542C15.4917 30.3758 15.5362 30.3861 15.6001 30.3861H15.7839V30.5526H14.7282V30.3861C14.8238 30.39 14.9195 30.3831 15.0135 30.3656C15.0489 30.3508 15.066 30.3097 15.066 30.2379V29.3256C15.0726 29.1971 15.0416 29.0695 14.9769 28.9584C14.9418 28.9126 14.8956 28.8765 14.8428 28.8534C14.7899 28.8303 14.732 28.8208 14.6745 28.826C14.5764 28.8256 14.4806 28.856 14.4006 28.9128C14.3108 28.9868 14.2407 29.0818 14.1967 29.1895C14.1527 29.2972 14.1361 29.414 14.1484 29.5297V30.2287C14.1484 30.2926 14.1552 30.3325 14.1758 30.3508C14.2115 30.3772 14.2561 30.3887 14.3002 30.3827H14.4862V30.5492H13.427V30.3827V30.3884Z" fill="#004A9C"/>
<path fill-rule="evenodd" clip-rule="evenodd" d="M18.2583 29.0883C18.1796 29.0952 18.1247 29.0952 18.0734 29.0963V30.1227C18.0734 30.2367 18.0974 30.3052 18.1327 30.3325C18.2345 30.358 18.3397 30.3673 18.4443 30.3599C18.6885 30.3858 18.9348 30.3373 19.1508 30.2208C19.218 30.1539 19.269 30.0726 19.3001 29.9831C19.3311 29.8936 19.3414 29.7982 19.33 29.7041C19.3418 29.5952 19.319 29.4854 19.2649 29.39C19.2109 29.2947 19.1283 29.2187 19.0287 29.1728C18.8321 29.1021 18.6234 29.0711 18.4147 29.0815H18.2583V29.0883ZM17.1546 30.377C17.2924 30.3819 17.4302 30.3661 17.5633 30.3302C17.6021 30.3074 17.6191 30.2356 17.6191 30.1113V27.9V27.8419C17.6172 27.822 17.6099 27.803 17.5978 27.7871C17.5857 27.7712 17.5693 27.7589 17.5506 27.7518C17.499 27.7392 17.4462 27.7323 17.3931 27.7313L17.1649 27.7198V27.5431H18.7285C18.9929 27.5181 19.2565 27.5971 19.4635 27.7632C19.5349 27.827 19.5921 27.905 19.6314 27.9922C19.6707 28.0794 19.6913 28.1739 19.6918 28.2695C19.6983 28.3839 19.6728 28.4978 19.6182 28.5985C19.5636 28.6992 19.482 28.7827 19.3825 28.8397C19.2498 28.9139 19.1041 28.9622 18.9533 28.9823C19.1332 28.9974 19.3085 29.0474 19.4693 29.1294C19.5851 29.1824 19.6827 29.2685 19.7495 29.3769C19.8164 29.4853 19.8495 29.6111 19.8447 29.7384C19.8513 29.8996 19.8024 30.0582 19.7063 30.1879C19.6102 30.3176 19.4726 30.4104 19.3164 30.4511C19.0584 30.5336 18.788 30.5699 18.5174 30.5583H17.1626V30.3816L17.1546 30.377ZM18.9556 28.8135C19.0428 28.7683 19.1137 28.6971 19.1586 28.6099C19.2036 28.5227 19.2204 28.4237 19.2068 28.3266C19.2197 28.2237 19.2021 28.1192 19.1563 28.0262C19.1104 27.9331 19.0383 27.8556 18.9488 27.8031C18.7773 27.7341 18.5923 27.7049 18.4078 27.7176C18.3148 27.7079 18.2209 27.7237 18.1361 27.7632C18.0962 27.7849 18.0723 27.851 18.0723 27.9422V28.899C18.3691 28.932 18.6696 28.9029 18.9545 28.8135H18.9556Z" fill="#004A9C"/>
<path fill-rule="evenodd" clip-rule="evenodd" d="M21.2885 30.3188C21.3715 30.2702 21.4399 30.2002 21.4864 30.1161C21.533 30.0321 21.5562 29.937 21.5534 29.841V29.5936V29.5274C21.3236 29.5458 21.0988 29.6041 20.8891 29.6996C20.8169 29.7299 20.7553 29.781 20.7124 29.8464C20.6695 29.9119 20.6472 29.9886 20.6483 30.0668C20.6471 30.1541 20.677 30.239 20.7327 30.3063C20.7639 30.3403 20.8024 30.367 20.8453 30.3844C20.8881 30.4017 20.9343 30.4093 20.9804 30.4067C21.0876 30.4052 21.1925 30.3761 21.2851 30.3222L21.2885 30.3188ZM20.7236 29.5571C20.9931 29.4607 21.2719 29.3926 21.5556 29.3541C21.5579 29.3386 21.5579 29.3229 21.5556 29.3074V29.2492C21.5691 29.1161 21.5395 28.9822 21.4712 28.8671C21.4234 28.8161 21.3644 28.777 21.2988 28.7528C21.2332 28.7287 21.1629 28.7202 21.0934 28.7281C21.0043 28.7298 20.9162 28.7471 20.8332 28.7794C20.7498 28.8113 20.7042 28.8432 20.7042 28.8934C20.7186 28.925 20.7366 28.9548 20.7578 28.9823C20.7835 29.0294 20.7983 29.0816 20.8012 29.1352C20.8023 29.162 20.7976 29.1887 20.7874 29.2135C20.7771 29.2384 20.7616 29.2606 20.7419 29.2788C20.6958 29.314 20.6389 29.3321 20.5809 29.3301C20.548 29.3325 20.515 29.3271 20.4846 29.3142C20.4543 29.3013 20.4275 29.2813 20.4063 29.256C20.3645 29.2039 20.344 29.1379 20.3492 29.0713C20.352 28.9962 20.3745 28.9233 20.4146 28.8598C20.4547 28.7963 20.5109 28.7445 20.5775 28.7098C20.7496 28.6068 20.9476 28.555 21.1482 28.5604C21.2733 28.5449 21.4003 28.5587 21.5191 28.6006C21.638 28.6426 21.7454 28.7116 21.833 28.8022C21.9093 28.9178 21.9458 29.0551 21.9369 29.1933V29.2948L21.9197 29.9265V30.011C21.9173 30.0857 21.9242 30.1603 21.9403 30.2333C21.9478 30.2672 21.9673 30.2974 21.9951 30.3183C22.0229 30.3392 22.0573 30.3495 22.0921 30.3474C22.1256 30.3463 22.1586 30.3385 22.189 30.3245C22.2118 30.3114 22.2371 30.3032 22.2632 30.3006C22.2695 30.2998 22.2758 30.3007 22.2816 30.3031C22.2874 30.3055 22.2925 30.3094 22.2964 30.3143C22.3023 30.3193 22.3069 30.3256 22.3098 30.3327C22.3128 30.3399 22.314 30.3477 22.3135 30.3554C22.3135 30.4021 22.2792 30.45 22.2051 30.5093C22.13 30.5674 22.0375 30.5987 21.9425 30.5982C21.8905 30.6016 21.8384 30.5932 21.7901 30.5734C21.7418 30.5537 21.6987 30.5231 21.6641 30.4842C21.6199 30.4241 21.587 30.3565 21.567 30.2846C21.477 30.398 21.359 30.486 21.2246 30.5401C21.0981 30.5914 20.9629 30.6177 20.8263 30.6176C20.6702 30.6271 20.5154 30.5836 20.3869 30.4944C20.3318 30.4487 20.2884 30.3905 20.2604 30.3247C20.2324 30.2588 20.2206 30.1872 20.226 30.1159C20.226 29.8878 20.3869 29.6985 20.7122 29.5628L20.7236 29.5571Z" fill="#004A9C"/>
<path d="M22.5007 30.3884H22.681C22.7254 30.3927 22.77 30.3831 22.8088 30.361C22.8328 30.3427 22.8396 30.3028 22.8396 30.239V29.0097C22.8396 28.9013 22.8248 28.8352 22.7848 28.8147C22.6825 28.782 22.5743 28.7714 22.4675 28.7839V28.6197L23.2105 28.5741V28.9823C23.2725 28.8862 23.347 28.7988 23.432 28.7223C23.5591 28.6227 23.7167 28.5699 23.8782 28.5729C23.9693 28.5661 24.0607 28.5808 24.1452 28.6156C24.2296 28.6505 24.3047 28.7046 24.3645 28.7736C24.4784 28.9357 24.5346 29.1312 24.5242 29.329V30.247C24.5205 30.2847 24.5298 30.3225 24.5505 30.3542C24.5664 30.3758 24.6121 30.3861 24.676 30.3861H24.8621V30.5526H23.8017V30.3861C23.8981 30.3892 23.9945 30.3824 24.0894 30.3656C24.1259 30.3508 24.1407 30.3097 24.1407 30.2379V29.3256C24.149 29.1965 24.1167 29.0681 24.0483 28.9584C24.0146 28.9122 23.9693 28.8756 23.917 28.8524C23.8647 28.8292 23.8073 28.8201 23.7504 28.826C23.6519 28.8253 23.5556 28.8557 23.4754 28.9128C23.3844 28.9859 23.3134 29.0808 23.2689 29.1886C23.2244 29.2964 23.2079 29.4137 23.2208 29.5297V30.2287C23.2141 30.2503 23.2134 30.2732 23.2189 30.2951C23.2243 30.317 23.2357 30.3369 23.2517 30.3528C23.2677 30.3687 23.2877 30.3799 23.3097 30.3851C23.3316 30.3904 23.3546 30.3896 23.376 30.3827H23.5598V30.5492H22.5007V30.3827V30.3884Z" fill="#004A9C"/>
<path d="M24.9967 27.6822V27.5065L25.7535 27.4678V29.5559L26.3789 28.9708L26.4336 28.9115C26.4447 28.8968 26.45 28.8785 26.4485 28.8602C26.4483 28.851 26.4462 28.842 26.4423 28.8338C26.4383 28.8255 26.4327 28.8181 26.4257 28.8123C26.3979 28.789 26.3626 28.7769 26.3264 28.7781H26.0982V28.6139H27.1961V28.7781C27.0833 28.7857 26.9724 28.8107 26.8674 28.8522C26.7639 28.8979 26.6702 28.9629 26.5912 29.0438L26.2933 29.3049L26.8639 30.0736C26.9176 30.1553 26.983 30.2286 27.058 30.2914C27.1528 30.36 27.2687 30.3934 27.3856 30.386V30.5525H26.2945V30.386H26.4302C26.4686 30.3853 26.5069 30.3808 26.5444 30.3724C26.5515 30.3684 26.5575 30.3626 26.5617 30.3556C26.5659 30.3486 26.5682 30.3406 26.5684 30.3324C26.5701 30.3193 26.5672 30.3061 26.5604 30.2949C26.5462 30.2669 26.5298 30.2402 26.5113 30.215L26.0262 29.5478L25.7603 29.7942V30.2195C25.7544 30.266 25.7644 30.313 25.7888 30.353C25.807 30.3769 25.8459 30.3872 25.903 30.3872H26.0776V30.5537H25.0504V30.3872H25.225C25.2992 30.3872 25.3391 30.3781 25.362 30.353C25.3837 30.3121 25.3924 30.2655 25.387 30.2195V27.884C25.387 27.8053 25.3723 27.7517 25.3346 27.7312C25.2683 27.703 25.1966 27.6898 25.1246 27.6924H25.0105L24.9967 27.6822Z" fill="#004A9C"/>
<path d="M28.7175 30.555V30.3782C28.8693 30.3713 28.9594 30.3634 28.9903 30.3634C29.0126 30.3625 29.0347 30.3595 29.0564 30.3542C29.0752 30.3515 29.0932 30.3449 29.1091 30.3347C29.1251 30.3245 29.1386 30.3109 29.1489 30.2949C29.1676 30.2506 29.1762 30.2027 29.174 30.1547V27.9345C29.174 27.8273 29.1455 27.7645 29.0987 27.7463C28.9732 27.7246 28.846 27.7139 28.7187 27.7143V27.5376H30.1008V27.7143C29.9658 27.7109 29.8307 27.7216 29.6979 27.7463C29.6557 27.7645 29.6328 27.8261 29.6328 27.9345V30.1125C29.6328 30.2266 29.6568 30.303 29.7047 30.3315C29.8173 30.3734 29.9378 30.3893 30.0574 30.3782C30.27 30.3901 30.4822 30.349 30.6749 30.2585C30.8063 30.1583 30.9135 30.0298 30.9884 29.8825C31.0632 29.7352 31.1039 29.573 31.1074 29.4078L31.2797 29.4157L31.1964 30.5561L28.7175 30.555Z" fill="#004A9C"/>
<path d="M31.4327 28.616L31.4795 28.6092C31.5811 28.5995 31.6773 28.5588 31.755 28.4928C31.8328 28.4267 31.8884 28.3383 31.9144 28.2397C31.9694 28.0871 31.9987 27.9264 32.0011 27.7642H32.178V28.6171H32.7977V28.7859H32.178V30.0153C32.1752 30.0842 32.1853 30.153 32.2077 30.2182C32.225 30.2625 32.2558 30.3003 32.2957 30.3263C32.3356 30.3523 32.3826 30.3651 32.4302 30.3631C32.495 30.3628 32.5579 30.3409 32.6088 30.3008C32.6597 30.2607 32.6957 30.2048 32.711 30.1419C32.7453 30.0308 32.7652 29.9158 32.7704 29.7997H32.9359C32.9381 29.9673 32.9078 30.1339 32.8469 30.2901C32.8 30.3957 32.7207 30.4836 32.6207 30.5414C32.5206 30.5992 32.4048 30.6238 32.2898 30.6117C32.2027 30.6213 32.1147 30.6048 32.037 30.5641C31.9594 30.5235 31.8956 30.4606 31.8539 30.3836C31.8075 30.281 31.7864 30.1688 31.7922 30.0563V28.8019H31.4338V28.6194L31.4327 28.616Z" fill="#004A9C"/>
<path fill-rule="evenodd" clip-rule="evenodd" d="M33.7245 30.1782C33.7576 30.245 33.8092 30.3008 33.8732 30.339C33.9371 30.3772 34.0107 30.3963 34.0852 30.3938C34.1887 30.3941 34.2892 30.3593 34.3703 30.2951C34.4513 30.2309 34.5082 30.141 34.5315 30.0403C34.5741 29.892 34.5949 29.7383 34.5931 29.5841C34.5981 29.4184 34.5705 29.2534 34.512 29.0983C34.4842 29.0104 34.4288 28.9338 34.354 28.88C34.2791 28.8262 34.1889 28.7979 34.0966 28.7995C34.0044 28.7993 33.9146 28.8299 33.8418 28.8865C33.769 28.9432 33.7173 29.0225 33.6948 29.1119C33.634 29.272 33.6065 29.4427 33.6138 29.6137C33.6039 29.8103 33.6431 30.0063 33.728 30.1839L33.7245 30.1782ZM33.4107 28.8793C33.4785 28.7804 33.5703 28.7002 33.6774 28.6461C33.7846 28.5921 33.9036 28.566 34.0236 28.5703C34.1383 28.5703 34.2513 28.5989 34.3523 28.6535C34.4475 28.7117 34.526 28.7934 34.5805 28.8907V27.8643C34.5805 27.7697 34.5463 27.7093 34.4744 27.6933C34.3701 27.6829 34.2652 27.6799 34.1605 27.6842V27.5085L34.9595 27.4697V30.2136C34.9585 30.2532 34.9676 30.2924 34.9857 30.3277C35.0022 30.348 35.0237 30.3637 35.0481 30.3733C35.0725 30.3829 35.099 30.386 35.125 30.3824H35.295V30.5489L34.5953 30.591V30.225C34.5543 30.3163 34.494 30.3976 34.4185 30.4633C34.2945 30.561 34.1403 30.6123 33.9825 30.6082C33.8748 30.6106 33.7679 30.5894 33.6693 30.5461C33.5707 30.5027 33.4827 30.4383 33.4118 30.3573C33.2558 30.142 33.1711 29.8833 33.1694 29.6175C33.1678 29.3517 33.2493 29.0919 33.4027 28.8747L33.4107 28.8793Z" fill="#004A9C"/>
<path d="M36.1567 30.1671C36.2056 30.2154 36.2335 30.2809 36.2343 30.3495C36.233 30.4201 36.2053 30.4876 36.1567 30.5389C36.1322 30.5614 36.1034 30.5789 36.0721 30.5903C36.0407 30.6016 36.0074 30.6066 35.9741 30.605C35.9058 30.6082 35.839 30.5845 35.7881 30.5389C35.7373 30.4888 35.7082 30.4208 35.707 30.3495C35.7081 30.2809 35.7359 30.2155 35.7846 30.1671C35.809 30.1426 35.838 30.1232 35.8699 30.11C35.9019 30.0967 35.9361 30.0898 35.9707 30.0898C36.0052 30.0898 36.0395 30.0967 36.0714 30.11C36.1033 30.1232 36.1323 30.1426 36.1567 30.1671Z" fill="#004A9C"/>
<path d="M11.9171 17.3638C11.9171 17.3638 2.04569 23.3201 0.710327 19.6298C0.710327 19.6298 -0.979994 15.4559 6.58363 10.2968C6.58363 10.2968 2.71338 10.4758 4.52924 8.29768C6.51809 6.28625 8.93751 4.75157 11.6055 3.80908L11.0725 4.47394C11.0725 4.47394 7.05614 6.19595 7.82883 8.12322C8.27167 9.23283 10.1423 7.90425 10.1423 7.90425L10.9024 8.16996C10.9024 8.16996 2.58553 13.5024 4.62509 17.5474C4.62509 17.5474 6.84616 20.3049 11.3442 17.0605L11.9148 17.3707L11.9171 17.3638Z" fill="#004A9C"/>
<path d="M12.4957 4.12392C12.4238 4.18778 12.4957 4.65761 12.4957 4.65761C12.4957 4.65761 15.4746 3.18535 16.366 3.98704C16.366 3.98704 17.2129 5.14455 12.4523 7.81308V8.88049C12.4523 8.88049 19.7979 4.47741 20.3275 9.28075C20.3275 9.28075 20.8651 13.5002 15.5271 19.9024C15.5271 19.9024 24.9146 13.1478 24.6863 7.68194C24.6863 7.68194 24.2401 3.54573 17.3053 5.85731C17.3053 5.85731 19.9304 3.72818 17.876 2.48401C17.876 2.48401 15.7006 1.27635 12.4923 4.12733L12.4957 4.12392Z" fill="#FC9200"/>
<path d="M13.0321 0.612442L12.4523 20.534C20.8069 18.7094 31.5 16.5632 34.1125 16.8745C34.1125 16.8745 34.9195 17.3637 33.4072 17.6728C33.4072 17.6728 11.4731 23.0532 3.06602 26.9613L1.90755 22.9175C1.90755 22.9175 6.32907 21.8717 11.9239 20.6446C11.9593 18.7721 12.2206 4.20925 11.4308 2.91833L13.0287 0.611328L13.0321 0.612442Z" fill="#00973D"/>
<path d="M32.2465 19.8223V18.7958H32.582V18.6875H31.7831V18.7958H32.1118V19.8223H32.2465Z" fill="#1A1818"/>
<path d="M32.751 19.8227V18.6914H32.9347L33.2589 19.5467C33.2737 19.5958 33.2919 19.6505 33.3113 19.7075C33.3307 19.655 33.3502 19.5935 33.3696 19.5467L33.6812 18.6914H33.8558V19.8227H33.7234V18.8807C33.6983 18.9786 33.6674 19.075 33.6309 19.1692L33.3889 19.8227H33.2292L32.985 19.1795C32.9541 19.0985 32.921 19.0005 32.8811 18.8818V19.8239L32.751 19.8227Z" fill="#1A1818"/>
<path d="M36.3336 32.8994H0.568756V32.9838H36.3336V32.8994Z" fill="#1A1818"/>
</svg>
