<svg width="49" height="32" viewBox="0 0 49 32" fill="none" xmlns="http://www.w3.org/2000/svg">
<path fill-rule="evenodd" clip-rule="evenodd" d="M17.4638 21.4437L20.7741 10.5474H23.7244L20.4141 21.4437H17.4638Z" fill="#00498C"/>
<path fill-rule="evenodd" clip-rule="evenodd" d="M16.1407 10.5508L13.4858 15.1705C12.9579 15.9748 12.5364 16.8437 12.2308 17.7558H12.1896C12.2375 16.7864 12.1018 15.597 12.0892 14.9242L11.7955 10.5508H6.82842L6.77715 10.8438C7.05389 10.8183 7.33299 10.8491 7.59748 10.9344C7.86197 11.0197 8.10627 11.1577 8.31583 11.3401C8.52538 11.5225 8.69602 11.7455 8.81683 11.9956C8.93763 12.2457 9.00601 12.5176 9.01857 12.7951L9.98658 21.4449H13.0444L19.227 10.5508H16.1407Z" fill="#00498C"/>
<path fill-rule="evenodd" clip-rule="evenodd" d="M39.0895 21.4448L39.0075 19.8243H35.3222L34.5687 21.4482H31.3637L37.1735 10.5723H41.1063L42.0899 21.4482L39.0895 21.4448ZM38.7473 15.0175C38.7036 14.1647 38.7036 13.3102 38.7473 12.4574H38.7038C38.5246 12.9979 37.7532 14.6241 37.4142 15.4224L36.3164 17.8104H38.9033L38.7529 15.0175H38.7473Z" fill="#00498C"/>
<path fill-rule="evenodd" clip-rule="evenodd" d="M26.8146 21.7516C25.2415 21.7659 23.6972 21.3307 22.3635 20.4972L23.7695 18.3521C24.6918 19.0334 25.8058 19.4065 26.9528 19.4184C27.2046 19.4442 27.4587 19.3998 27.6867 19.2901C27.9148 19.1803 28.1077 19.0097 28.2446 18.7969C28.6543 18.0876 28.1501 17.7066 26.9973 17.0543L26.4267 16.6849C24.7147 15.5182 23.9786 14.4041 24.7832 12.4757C25.298 11.2383 26.6557 10.2998 28.8916 10.2998C30.2771 10.3267 31.6195 10.7883 32.728 11.6193L31.1118 13.5134C30.4953 12.9175 29.6855 12.5619 28.8292 12.511C28.5888 12.4859 28.3458 12.5248 28.1253 12.6237C27.9048 12.7227 27.7145 12.8781 27.5736 13.0744C27.2654 13.6834 27.6729 14.1007 28.5711 14.655L29.2477 15.0849C31.3226 16.3918 31.8172 17.7637 31.3024 19.0455C30.9603 19.9271 30.3349 20.6704 29.5247 21.1589C28.7144 21.6473 27.7652 21.8534 26.8251 21.7448L26.8146 21.7516Z" fill="#00498C"/>
<path fill-rule="evenodd" clip-rule="evenodd" d="M42.9693 12.0238H42.8417V11.2461H43.137C43.3242 11.2461 43.4212 11.3122 43.4212 11.4742C43.4231 11.5018 43.4195 11.5294 43.4101 11.5554C43.4007 11.5814 43.3857 11.6051 43.3666 11.6251C43.3475 11.6451 43.3242 11.6608 43.2986 11.6714C43.2731 11.6819 43.246 11.687 43.2184 11.6863L43.4363 12.0284H43.2925L43.0913 11.6966H42.9715V12.0284L42.9693 12.0238ZM43.1119 11.5825C43.2078 11.5825 43.2925 11.5734 43.2925 11.4605C43.2925 11.367 43.2001 11.3556 43.1236 11.3556H42.9693V11.5837L43.1119 11.5825ZM43.1119 12.3249C43.0197 12.3269 42.9282 12.3099 42.8428 12.2751C42.7573 12.2403 42.6795 12.1884 42.6148 12.1227C42.5502 12.0569 42.4999 11.9785 42.4666 11.8925C42.4333 11.8065 42.4179 11.7146 42.4215 11.6224C42.419 11.5306 42.4352 11.4391 42.4688 11.3536C42.5025 11.2681 42.5532 11.1903 42.6176 11.1247C42.6821 11.0591 42.7589 11.0072 42.8439 10.972C42.9288 10.9369 43.02 10.9191 43.1119 10.9199C43.2034 10.9199 43.294 10.9382 43.3783 10.9737C43.4626 11.0092 43.5391 11.0613 43.6029 11.1267C43.6667 11.1922 43.7167 11.2698 43.75 11.355C43.7834 11.4401 43.7993 11.5311 43.7968 11.6224C43.7993 11.7138 43.7834 11.8048 43.75 11.8899C43.7167 11.975 43.6667 12.0526 43.6029 12.1181C43.5391 12.1836 43.4626 12.2356 43.3783 12.2712C43.294 12.3067 43.2034 12.325 43.1119 12.3249ZM43.1119 11.042C43.0376 11.0424 42.9643 11.0581 42.8963 11.0879C42.8282 11.1178 42.7669 11.1612 42.7163 11.2156C42.6656 11.2699 42.6264 11.3341 42.6015 11.404C42.5765 11.474 42.566 11.5483 42.5708 11.6224C42.5653 11.6967 42.5756 11.7713 42.6003 11.8416C42.6251 11.9118 42.6638 11.9762 42.7146 12.0307C42.7654 12.0852 42.8268 12.1287 42.8952 12.1583C42.9635 12.1879 43.0374 12.2031 43.1119 12.2029C43.186 12.2021 43.2593 12.1862 43.3271 12.1562C43.3948 12.1262 43.4556 12.0828 43.5059 12.0284C43.5563 11.9741 43.5949 11.91 43.6196 11.8402C43.6443 11.7704 43.6547 11.6963 43.6497 11.6224C43.6545 11.5486 43.6438 11.4746 43.6191 11.4048C43.5943 11.3351 43.5557 11.2711 43.5054 11.2168C43.4551 11.1625 43.3947 11.119 43.3271 11.0889C43.2594 11.0589 43.186 11.0429 43.1119 11.042Z" fill="#00498C"/>
<path fill-rule="evenodd" clip-rule="evenodd" d="M48.7256 24.8281H0.397263V31.2896H48.7256V24.8281Z" fill="#FD9615"/>
<path fill-rule="evenodd" clip-rule="evenodd" d="M48.6359 0.753418H0.306412V7.2149H48.6359V0.753418Z" fill="#00498C"/>
<path fill-rule="evenodd" clip-rule="evenodd" d="M47.5308 30.8291H47.4031V30.0513H47.6985C47.8868 30.0513 47.9827 30.1175 47.9827 30.2794C47.9846 30.307 47.981 30.3347 47.9716 30.3606C47.9622 30.3866 47.9472 30.4104 47.9281 30.4304C47.909 30.4503 47.8863 30.4661 47.8607 30.4766C47.8351 30.4871 47.8075 30.4922 47.7799 30.4915L47.9978 30.8337H47.854L47.6517 30.5018H47.5319V30.8337L47.5308 30.8291ZM47.6734 30.3878C47.7693 30.3878 47.854 30.3786 47.854 30.2657C47.854 30.1722 47.7616 30.1608 47.6851 30.1608H47.5308V30.3889L47.6734 30.3878ZM47.6734 31.1302C47.5811 31.1323 47.4893 31.1155 47.4037 31.0807C47.3181 31.046 47.241 30.9941 47.1763 30.9283C47.1116 30.8625 47.0607 30.7841 47.0275 30.698C46.9943 30.6119 46.9792 30.5198 46.9829 30.4276C46.9805 30.3358 46.9966 30.2444 47.0303 30.1589C47.064 30.0733 47.1147 29.9955 47.1791 29.9299C47.2436 29.8643 47.3204 29.8124 47.4054 29.7772C47.4903 29.742 47.5815 29.7243 47.6734 29.7251C47.7649 29.7251 47.8555 29.7434 47.9398 29.7789C48.0241 29.8145 48.1006 29.8665 48.1644 29.932C48.2282 29.9974 48.2782 30.0751 48.3115 30.1602C48.3448 30.2453 48.3608 30.3363 48.3583 30.4276C48.3608 30.519 48.3448 30.61 48.3115 30.6951C48.2782 30.7802 48.2282 30.8579 48.1644 30.9234C48.1006 30.9888 48.0241 31.0409 47.9398 31.0764C47.8555 31.1119 47.7649 31.1302 47.6734 31.1302ZM47.6734 29.8472C47.5991 29.8476 47.5258 29.8633 47.4578 29.8931C47.3897 29.923 47.3284 29.9664 47.2777 30.0208C47.2271 30.0751 47.1879 30.1393 47.1629 30.2092C47.138 30.2792 47.128 30.3535 47.1329 30.4276C47.1273 30.5019 47.1371 30.5765 47.1618 30.6468C47.1865 30.7171 47.2253 30.7815 47.2761 30.836C47.3269 30.8905 47.3883 30.9339 47.4566 30.9636C47.525 30.9932 47.5989 31.0083 47.6734 31.0081C47.7476 31.0075 47.8207 30.9918 47.8885 30.9618C47.9564 30.9319 48.0176 30.8884 48.068 30.834C48.1183 30.7796 48.157 30.7155 48.1817 30.6457C48.2063 30.5758 48.2164 30.5016 48.2112 30.4276C48.2162 30.3538 48.2058 30.2797 48.1811 30.2099C48.1564 30.1401 48.1178 30.076 48.0674 30.0217C48.0171 29.9673 47.9563 29.9238 47.8885 29.8938C47.8208 29.8638 47.7475 29.8479 47.6734 29.8472Z" fill="#00498C"/>
</svg>
