<svg width="36" height="17" viewBox="0 0 36 17" fill="none" xmlns="http://www.w3.org/2000/svg">
<path d="M35.8773 12.3354H0.433228V16.9302H35.8773V12.3354Z" fill="#6D6F72"/>
<path d="M0.433217 0.145996H7.22304V3.04374H3.82755V4.03131H8.01398V2.09264L9.85953 5.0896L7.94777 7.9223V6.62227H3.86179V7.74098H7.19678V10.3639H0.432068L0.433217 0.145996Z" fill="#E50019"/>
<path d="M8.16693 0.40918L12.068 5.25013L8.16693 10.2439H11.7576L13.5917 7.8696L15.71 10.2439H18.8612L15.4509 5.25013L18.8612 0.40918H15.1667L13.643 2.83595L11.5247 0.40918H8.16693Z" fill="#007939"/>
<path d="M23.0476 0.40918H19.6887V10.2451H23.0476V0.40918Z" fill="#007939"/>
<path d="M24.545 0.40918V10.245H27.7979V7.43171L29.7621 10.3557H30.8418L32.6885 7.24238V10.3557H35.8751V0.40918H32.0345L30.2083 4.28649L28.1539 0.40918H24.545Z" fill="#007939"/>
</svg>
