<svg width="37" height="19" viewBox="0 0 37 19" fill="none" xmlns="http://www.w3.org/2000/svg">
<path d="M4.31916 5.58984V10.6075C4.31856 10.8242 4.23215 11.0318 4.07881 11.185C3.92547 11.3382 3.71767 11.4246 3.50082 11.4252H2.89706C2.68002 11.4252 2.47188 11.339 2.31841 11.1857C2.16494 11.0323 2.07872 10.8244 2.07872 10.6075V5.58984H1.05153C0.811183 5.58984 0.580683 5.68524 0.410734 5.85505C0.240786 6.02485 0.145309 6.25516 0.145309 6.49531V10.6007C0.148827 10.9529 0.223641 11.3009 0.365249 11.6235C0.506856 11.9461 0.712329 12.2368 0.969302 12.478C1.22627 12.7192 1.52943 12.9059 1.86053 13.027C2.19163 13.1481 2.54382 13.201 2.89592 13.1825H3.49968C3.85177 13.201 4.20397 13.1481 4.53507 13.027C4.86617 12.9059 5.16933 12.7192 5.4263 12.478C5.68327 12.2368 5.88874 11.9461 6.03035 11.6235C6.17196 11.3009 6.24677 10.9529 6.25029 10.6007V6.49531C6.25029 6.25556 6.15513 6.02559 5.98567 5.85585C5.81622 5.68611 5.5863 5.59045 5.34636 5.58984H4.31916Z" fill="#303133"/>
<path d="M12.9613 10.0785C12.7928 10.0805 12.6283 10.1302 12.4869 10.2218C12.3455 10.3135 12.233 10.4433 12.1624 10.5962C12.0428 10.8449 11.8555 11.0548 11.6219 11.2018C11.3883 11.3489 11.1179 11.4271 10.8419 11.4276H10.5246C10.1364 11.4273 9.76424 11.273 9.48987 10.9987C9.2155 10.7243 9.06138 10.3523 9.06138 9.96447V8.60739C9.06138 8.21935 9.21566 7.84719 9.49027 7.5728C9.76489 7.29841 10.1373 7.14426 10.5257 7.14426H10.843C11.1036 7.14459 11.3594 7.21429 11.584 7.34618C11.8087 7.47806 11.9942 7.66738 12.1213 7.89464C12.1976 8.02455 12.3069 8.13194 12.4383 8.20586C12.5696 8.27978 12.7182 8.3176 12.8689 8.31545H14.0787C14.0047 7.50878 13.632 6.75878 13.0334 6.21241C12.4349 5.66605 11.6537 5.3627 10.843 5.36182H10.5257C10.099 5.36182 9.67646 5.4458 9.28222 5.60896C8.88799 5.77212 8.52978 6.01127 8.22805 6.31276C7.92632 6.61424 7.68697 6.97216 7.52367 7.36607C7.36037 7.75998 7.27632 8.18217 7.27632 8.60853V9.96447C7.27632 10.8255 7.61867 11.6514 8.22805 12.2602C8.83743 12.8691 9.66392 13.2112 10.5257 13.2112H10.843C11.6847 13.2105 12.4933 12.8837 13.0987 12.2994C13.7041 11.7151 14.0591 10.919 14.089 10.0785H12.9613Z" fill="#303133"/>
<path d="M20.1848 9.04559C20.4023 8.90644 20.5812 8.71483 20.7051 8.48844C20.8289 8.26204 20.8938 8.00813 20.8936 7.75012V7.46502C20.8936 6.95086 20.6892 6.45775 20.3253 6.09418C19.9614 5.73062 19.4679 5.52637 18.9533 5.52637H15.6572C15.5473 5.52652 15.4385 5.54829 15.3371 5.59043C15.2356 5.63258 15.1435 5.69428 15.0659 5.772C14.9883 5.84973 14.9269 5.94196 14.8849 6.04343C14.843 6.14491 14.8216 6.25364 14.8217 6.36341V12.1702C14.8217 12.3983 14.9124 12.617 15.0738 12.7782C15.2351 12.9395 15.454 13.0301 15.6823 13.0301H18.8974C19.1822 13.0301 19.4642 12.974 19.7273 12.8652C19.9904 12.7563 20.2294 12.5967 20.4308 12.3955C20.6322 12.1943 20.7919 11.9554 20.9009 11.6925C21.0098 11.4297 21.0659 11.1479 21.0659 10.8634V10.2624C21.0655 9.99282 20.9801 9.73025 20.822 9.51186C20.6638 9.29346 20.4409 9.13034 20.1848 9.04559ZM16.6467 7.21186H18.5105C18.5682 7.21171 18.6254 7.22291 18.6787 7.24484C18.7321 7.26676 18.7806 7.29898 18.8215 7.33964C18.8624 7.38031 18.8949 7.42862 18.9172 7.48183C18.9394 7.53504 18.9509 7.5921 18.951 7.64976V7.82082C18.9499 7.8861 18.9353 7.95044 18.9082 8.00988C18.8812 8.06932 18.8423 8.12259 18.7938 8.1664C18.7454 8.21022 18.6884 8.24364 18.6266 8.26462C18.5647 8.2856 18.4992 8.29369 18.434 8.28838H16.6467V7.21186ZM19.1314 10.6855C19.1311 10.8575 19.0626 11.0223 18.9408 11.144C18.8191 11.2656 18.6541 11.334 18.482 11.3343H16.6467V9.92027H18.6109C18.7489 9.92057 18.8811 9.97545 18.9786 10.0729C19.0761 10.1704 19.1311 10.3025 19.1314 10.4403V10.6855Z" fill="#303133"/>
<path d="M31.8059 15.9995C31.8543 15.7067 31.8425 15.4071 31.771 15.119C31.6996 14.831 31.5701 14.5605 31.3904 14.3242C31.0275 13.9616 27.422 10.2701 24.7068 7.48756C23.9 6.66062 23.4549 5.54744 23.4692 4.39269C23.4836 3.23794 23.9562 2.13613 24.7833 1.32945C25.5935 0.53903 26.6847 0.102552 27.817 0.116026C28.9493 0.129499 30.0298 0.591819 30.8209 1.40129L35.8827 6.58095C36.6035 7.3184 37.0017 8.31159 36.99 9.34228C36.9782 10.373 36.5574 11.3568 35.82 12.0776L31.8059 15.9995Z" fill="url(#paint0_linear_380_866)"/>
<path d="M30.7399 12.8028C30.7734 12.5995 30.7651 12.3915 30.7155 12.1915C30.6658 11.9915 30.5759 11.8037 30.4511 11.6396C30.1989 11.3876 27.6971 8.82513 25.8116 6.89445C25.2514 6.32043 24.9422 5.54764 24.9521 4.74594C24.9619 3.94424 25.2899 3.17926 25.8641 2.61914C26.427 2.07143 27.1843 1.76913 27.97 1.77853C28.7556 1.78794 29.5055 2.10829 30.0551 2.66932L33.5681 6.26496C34.0685 6.77683 34.3451 7.46629 34.3369 8.1818C34.3288 8.8973 34.0367 9.58031 33.5248 10.0807L30.7399 12.8028Z" fill="url(#paint1_linear_380_866)"/>
<path d="M31.2854 15.2172C31.3892 15.5068 31.4065 15.8203 31.3352 16.1196C31.2638 16.4188 31.107 16.6909 30.8836 16.9027L30.806 16.9791C29.9781 17.7848 28.864 18.2292 27.7084 18.2146C26.5528 18.2001 25.4502 17.7278 24.6429 16.9016C24.251 16.5008 23.942 16.0268 23.7335 15.5066C23.5251 14.9864 23.4213 14.4303 23.4281 13.8701C23.4349 13.3098 23.5521 12.7564 23.7731 12.2414C23.994 11.7264 24.3144 11.26 24.7159 10.8688L25.9885 9.62695C28.3191 12.0115 30.6919 14.4429 30.9841 14.7337C31.1176 14.8718 31.2203 15.0365 31.2854 15.2172Z" fill="#7B7D81"/>
<defs>
<linearGradient id="paint0_linear_380_866" x1="23.4689" y1="8.05759" x2="36.9902" y2="8.05759" gradientUnits="userSpaceOnUse">
<stop stop-color="#DF1A29"/>
<stop offset="0.16" stop-color="#DA1A28"/>
<stop offset="0.334" stop-color="#CD1A27"/>
<stop offset="0.515" stop-color="#B71B26"/>
<stop offset="0.699" stop-color="#991C24"/>
<stop offset="0.886" stop-color="#721D21"/>
<stop offset="1" stop-color="#571F20"/>
</linearGradient>
<linearGradient id="paint1_linear_380_866" x1="25.9654" y1="2.6272" x2="29.3218" y2="5.33755" gradientUnits="userSpaceOnUse">
<stop stop-color="white"/>
<stop offset="0.007" stop-color="white" stop-opacity="0.965"/>
<stop offset="0.048" stop-color="white" stop-opacity="0.784"/>
<stop offset="0.093" stop-color="white" stop-opacity="0.616"/>
<stop offset="0.142" stop-color="white" stop-opacity="0.467"/>
<stop offset="0.195" stop-color="white" stop-opacity="0.341"/>
<stop offset="0.254" stop-color="white" stop-opacity="0.231"/>
<stop offset="0.32" stop-color="white" stop-opacity="0.145"/>
<stop offset="0.397" stop-color="white" stop-opacity="0.078"/>
<stop offset="0.493" stop-color="white" stop-opacity="0.035"/>
<stop offset="0.627" stop-color="white" stop-opacity="0.01"/>
<stop offset="1" stop-color="white" stop-opacity="0"/>
</linearGradient>
</defs>
</svg>
