<svg width="36" height="26" viewBox="0 0 36 26" fill="none" xmlns="http://www.w3.org/2000/svg">
<path d="M7.24614 25.0707V23.6441H7.45387V23.8471C7.4982 23.7773 7.55896 23.7193 7.63081 23.6783C7.70672 23.6346 7.79316 23.6125 7.88076 23.6144C7.97121 23.6109 8.06072 23.6334 8.13865 23.6795C8.20408 23.7244 8.25393 23.7886 8.28131 23.8631C8.32603 23.7873 8.3898 23.7245 8.46626 23.6809C8.54273 23.6373 8.62928 23.6144 8.71733 23.6144C8.77596 23.6101 8.83488 23.618 8.8903 23.6376C8.94571 23.6572 8.99638 23.6882 9.03916 23.7285C9.12202 23.8296 9.16292 23.9586 9.15334 24.0889V25.0673H8.91823V24.171C8.92127 24.1001 8.91275 24.0293 8.89308 23.9611C8.87736 23.918 8.84708 23.8817 8.80747 23.8585C8.76459 23.8322 8.71508 23.8188 8.6648 23.8197C8.61878 23.8187 8.57303 23.827 8.53028 23.844C8.48753 23.861 8.44871 23.8865 8.41604 23.9189C8.34286 24.0089 8.30766 24.1239 8.31789 24.2394V25.0662H8.08278V24.1413C8.0897 24.0566 8.06839 23.972 8.02224 23.9007C7.99996 23.8721 7.97081 23.8497 7.93746 23.8356C7.90412 23.8214 7.86768 23.8159 7.83165 23.8197C7.76513 23.8199 7.69998 23.8384 7.64335 23.8733C7.58599 23.9112 7.54265 23.9669 7.52005 24.0318C7.49139 24.1276 7.47871 24.2273 7.48243 24.3272V25.0662L7.24614 25.0707Z" fill="#231F20"/>
<path d="M10.4191 24.8918C10.3461 24.9613 10.2605 25.0163 10.1668 25.0537C10.0825 25.0852 9.99317 25.1011 9.90317 25.1005C9.77286 25.1092 9.64408 25.0685 9.54254 24.9864C9.50133 24.9497 9.46864 24.9045 9.44675 24.8539C9.42487 24.8032 9.41431 24.7484 9.41582 24.6933C9.41584 24.6262 9.43314 24.5602 9.46605 24.5017C9.49381 24.4454 9.53592 24.3974 9.58816 24.3626C9.64155 24.3278 9.70014 24.3016 9.76169 24.285C9.81077 24.2736 9.88266 24.26 9.97625 24.2474C10.1214 24.2348 10.2649 24.2069 10.4042 24.1642C10.4042 24.1322 10.4042 24.1106 10.4042 24.1026C10.4084 24.0655 10.4045 24.028 10.3929 23.9926C10.3813 23.9572 10.3622 23.9247 10.3369 23.8973C10.2579 23.8372 10.1597 23.808 10.0607 23.8152C9.9732 23.8083 9.88577 23.829 9.81073 23.8745C9.74917 23.9279 9.70873 24.0015 9.69663 24.082L9.45922 24.0513C9.47462 23.9625 9.51056 23.8785 9.5642 23.8061C9.62015 23.7401 9.6932 23.6907 9.77534 23.6635C9.87854 23.6284 9.98706 23.6114 10.0961 23.6133C10.1956 23.6097 10.2949 23.624 10.3894 23.6555C10.453 23.6768 10.51 23.7141 10.5549 23.7639C10.593 23.8111 10.6184 23.8672 10.629 23.9269C10.6402 24.0005 10.6448 24.0749 10.6428 24.1493V24.4721C10.6391 24.614 10.6437 24.756 10.6565 24.8974C10.6672 24.9576 10.6873 25.0157 10.7158 25.0697H10.4636C10.4372 25.0133 10.421 24.9526 10.4157 24.8906L10.4191 24.8918ZM10.4031 24.3523C10.2747 24.3984 10.1414 24.4294 10.0059 24.4447C9.93427 24.4523 9.86376 24.4684 9.79589 24.4926C9.75768 24.5091 9.72518 24.5365 9.70234 24.5713C9.6738 24.6142 9.66196 24.6661 9.66911 24.7172C9.67626 24.7683 9.7019 24.8149 9.74114 24.8484C9.80257 24.8949 9.87879 24.9176 9.9557 24.9123C10.0422 24.9144 10.1276 24.8936 10.2033 24.8518C10.2731 24.8149 10.3291 24.7565 10.3631 24.6853C10.3933 24.6081 10.4065 24.5252 10.4019 24.4424L10.4031 24.3523Z" fill="#231F20"/>
<path d="M11.0057 25.0697V23.1025H11.2431V24.2224L11.8137 23.6454H12.123L11.5809 24.1768L12.1745 25.0709H11.8811L11.4131 24.3421L11.2454 24.5075V25.0709L11.0057 25.0697Z" fill="#231F20"/>
<path d="M12.3593 23.1025H12.5956V23.3785H12.3593V23.1025ZM12.3593 23.6442H12.5956V25.0698H12.3593V23.6442Z" fill="#231F20"/>
<path d="M12.9631 25.0705V23.6439H13.1777V23.8469C13.225 23.7732 13.291 23.7132 13.369 23.6732C13.447 23.6331 13.5341 23.6144 13.6216 23.6188C13.7001 23.6182 13.7778 23.6337 13.8499 23.6644C13.9131 23.6902 13.9682 23.7323 14.0097 23.7864C14.0473 23.8399 14.0726 23.9011 14.0839 23.9655C14.094 24.043 14.0978 24.1211 14.0953 24.1992V25.0739H13.8602V24.2084C13.8634 24.1341 13.8546 24.0597 13.8339 23.9883C13.8137 23.9411 13.7794 23.9013 13.7358 23.8742C13.6848 23.8449 13.6268 23.8299 13.568 23.8309C13.4711 23.8295 13.3773 23.865 13.3055 23.9301C13.2619 23.9804 13.2292 24.0393 13.2095 24.1029C13.1899 24.1665 13.1837 24.2335 13.1914 24.2996V25.0773L12.9631 25.0705Z" fill="#231F20"/>
<path d="M14.4206 25.188L14.6488 25.2188C14.6542 25.281 14.6837 25.3387 14.731 25.3796C14.8021 25.4277 14.8872 25.4509 14.9729 25.4457C15.0642 25.4523 15.1552 25.4291 15.2321 25.3796C15.2943 25.334 15.338 25.2676 15.3553 25.1925C15.3705 25.0899 15.3766 24.9861 15.3736 24.8824C15.3269 24.9417 15.2673 24.9895 15.1992 25.0221C15.1311 25.0547 15.0564 25.0713 14.981 25.0705C14.8943 25.0748 14.808 25.0576 14.7296 25.0206C14.6512 24.9836 14.5831 24.9279 14.5313 24.8584C14.4232 24.7121 14.3674 24.5338 14.3727 24.3521C14.3702 24.2224 14.3942 24.0935 14.4434 23.9735C14.4871 23.8667 14.5609 23.7748 14.6557 23.7089C14.7528 23.6452 14.8671 23.6125 14.9833 23.6154C15.0634 23.6147 15.1427 23.6329 15.2145 23.6686C15.2863 23.7043 15.3486 23.7564 15.3964 23.8207V23.6451H15.611V24.8778C15.6211 25.0372 15.5974 25.1969 15.5414 25.3465C15.4965 25.4409 15.4225 25.5185 15.3302 25.5677C15.2195 25.6244 15.0961 25.6519 14.9718 25.6475C14.8283 25.6548 14.6863 25.6147 14.5678 25.5335C14.5159 25.4938 14.475 25.4416 14.4488 25.3818C14.4227 25.3219 14.4122 25.2564 14.4183 25.1914L14.4206 25.188ZM14.6157 24.3373C14.6046 24.4822 14.645 24.6263 14.7299 24.7444C14.7635 24.7855 14.8061 24.8184 14.8543 24.8408C14.9025 24.8631 14.9552 24.8742 15.0083 24.8732C15.0614 24.8736 15.114 24.8624 15.1624 24.8403C15.2107 24.8182 15.2535 24.7859 15.288 24.7455C15.3723 24.6298 15.4128 24.488 15.4021 24.3452C15.4134 24.2046 15.3728 24.0646 15.288 23.9518C15.2544 23.9103 15.212 23.8769 15.1638 23.854C15.1156 23.8311 15.0629 23.8193 15.0095 23.8195C14.9569 23.8187 14.9049 23.83 14.8574 23.8526C14.8099 23.8751 14.7682 23.9083 14.7356 23.9495C14.6515 24.0605 14.6108 24.1984 14.6214 24.3373" fill="#231F20"/>
<path d="M16.6268 24.6375L16.8619 24.6068C16.8708 24.6922 16.9115 24.7712 16.976 24.828C17.0493 24.8773 17.1353 24.9043 17.2236 24.9057C17.312 24.9071 17.3988 24.8829 17.4736 24.836C17.4977 24.8168 17.5171 24.7925 17.5305 24.7649C17.5439 24.7373 17.551 24.707 17.5512 24.6763C17.5518 24.6508 17.5457 24.6256 17.5335 24.6032C17.5213 24.5808 17.5034 24.5619 17.4817 24.5486C17.4042 24.5107 17.322 24.4831 17.2374 24.4665C17.1131 24.4398 16.9916 24.4016 16.8744 24.3524C16.8094 24.325 16.755 24.2774 16.7192 24.2167C16.6829 24.1599 16.6643 24.0937 16.6656 24.0263C16.6652 23.9646 16.6805 23.9037 16.7101 23.8495C16.7376 23.7967 16.7766 23.7508 16.8242 23.715C16.8704 23.6837 16.9213 23.6598 16.9749 23.6443C17.0428 23.6252 17.1131 23.6159 17.1837 23.6169C17.2829 23.6147 17.3816 23.6309 17.4748 23.6648C17.5472 23.6896 17.611 23.7348 17.6585 23.7948C17.7034 23.8605 17.732 23.9359 17.7418 24.0149L17.5078 24.0445C17.5047 24.0116 17.495 23.9796 17.4793 23.9504C17.4636 23.9212 17.4423 23.8955 17.4166 23.8746C17.3548 23.831 17.2798 23.8097 17.2043 23.8142C17.121 23.807 17.0376 23.8262 16.9657 23.8689C16.9451 23.8834 16.9282 23.9025 16.9163 23.9246C16.9044 23.9468 16.8979 23.9715 16.8973 23.9967C16.8961 24.0277 16.9062 24.0581 16.9258 24.0822C16.9504 24.1111 16.9817 24.1334 17.0171 24.1472C17.0411 24.1552 17.1118 24.1768 17.2282 24.2087C17.3475 24.2386 17.4646 24.2767 17.5786 24.3228C17.642 24.3488 17.6966 24.3923 17.7361 24.4482C17.7761 24.5099 17.7961 24.5824 17.7932 24.6558C17.7937 24.7371 17.7694 24.8167 17.7236 24.8839C17.675 24.9574 17.6054 25.0146 17.5239 25.0481C17.4297 25.0881 17.3283 25.1079 17.226 25.1062C17.0785 25.1171 16.9318 25.0768 16.8105 24.9922C16.7095 24.9044 16.6441 24.7827 16.6268 24.6501" fill="#231F20"/>
<path d="M19.0373 24.6112L19.2815 24.642C19.2503 24.7768 19.1748 24.8972 19.067 24.9841C18.9496 25.065 18.8088 25.1051 18.6663 25.0981C18.5759 25.1024 18.4856 25.0874 18.4014 25.0542C18.3172 25.021 18.241 24.9702 18.1779 24.9054C18.0511 24.756 17.9865 24.5638 17.9975 24.3683C17.9848 24.1657 18.0506 23.966 18.1813 23.8106C18.2408 23.7452 18.314 23.6936 18.3956 23.6593C18.4772 23.625 18.5653 23.609 18.6538 23.6122C18.7393 23.6102 18.8243 23.6264 18.903 23.6599C18.9818 23.6933 19.0525 23.7431 19.1104 23.8061C19.237 23.959 19.3007 24.1543 19.2884 24.3523V24.4173H18.2417C18.2426 24.5489 18.2881 24.6763 18.3708 24.7788C18.4085 24.8188 18.4542 24.8505 18.5049 24.872C18.5556 24.8934 18.6102 24.904 18.6652 24.9031C18.7471 24.9069 18.8277 24.8823 18.8935 24.8335C18.9644 24.7738 19.0161 24.6945 19.0419 24.6055L19.0373 24.6112ZM18.2601 24.2166H19.0441C19.0427 24.1194 19.0112 24.025 18.954 23.9463C18.9192 23.9013 18.8744 23.8652 18.823 23.8408C18.7716 23.8164 18.7152 23.8045 18.6584 23.8061C18.6069 23.8048 18.5558 23.8144 18.5082 23.834C18.4606 23.8536 18.4177 23.883 18.3822 23.9201C18.3045 24.0004 18.2603 24.1072 18.2589 24.2189" fill="#231F20"/>
<path d="M19.5806 25.0705V23.6439H19.7951V23.8469C19.8429 23.7731 19.9093 23.7131 19.9877 23.6731C20.066 23.6331 20.1535 23.6143 20.2414 23.6188C20.3198 23.6176 20.3977 23.6332 20.4696 23.6644C20.5334 23.6898 20.589 23.7319 20.6306 23.7865C20.6665 23.8406 20.691 23.9015 20.7024 23.9655C20.7136 24.0429 20.7179 24.1211 20.7151 24.1993V25.0739H20.4811V24.2084C20.4836 24.1339 20.4739 24.0596 20.4525 23.9883C20.4336 23.9403 20.399 23.9001 20.3544 23.8743C20.3042 23.8449 20.247 23.83 20.1889 23.8309C20.0922 23.8287 19.9984 23.8643 19.9275 23.9301C19.8837 23.9803 19.8509 24.0391 19.8312 24.1028C19.8115 24.1664 19.8054 24.2335 19.8134 24.2996V25.0773L19.5806 25.0705Z" fill="#231F20"/>
<path d="M20.989 24.6374L21.2241 24.6066C21.233 24.6921 21.2737 24.7711 21.3382 24.8279C21.4105 24.8826 21.4999 24.9097 21.5904 24.9043C21.6778 24.9119 21.7651 24.8876 21.8359 24.8358C21.8605 24.8171 21.8805 24.7929 21.8943 24.7653C21.9081 24.7376 21.9155 24.7071 21.9158 24.6762C21.9159 24.6508 21.9095 24.6257 21.8974 24.6034C21.8852 24.581 21.8676 24.5621 21.8461 24.5485C21.7684 24.5111 21.6864 24.4835 21.6019 24.4664C21.4774 24.4392 21.3555 24.401 21.2377 24.3523C21.1733 24.3241 21.1191 24.2767 21.0825 24.2166C21.0503 24.1613 21.0326 24.0987 21.031 24.0348C21.0294 23.9708 21.044 23.9074 21.0734 23.8506C21.1019 23.7984 21.1408 23.7527 21.1876 23.716C21.2346 23.6847 21.2862 23.6609 21.3405 23.6453C21.4076 23.6261 21.4772 23.6169 21.547 23.6179C21.6469 23.6154 21.7465 23.6317 21.8404 23.6658C21.9127 23.6909 21.9764 23.736 22.0242 23.7958C22.0682 23.8618 22.0964 23.9372 22.1064 24.0159L21.8781 24.0456C21.87 23.979 21.8364 23.9181 21.7844 23.8757C21.722 23.8324 21.647 23.8111 21.5711 23.8152C21.4889 23.808 21.4064 23.8272 21.3359 23.8699C21.3148 23.884 21.2974 23.903 21.2853 23.9252C21.2732 23.9475 21.2667 23.9723 21.2663 23.9977C21.2653 24.0283 21.2745 24.0584 21.2926 24.0832C21.3177 24.112 21.3494 24.1342 21.385 24.1482C21.409 24.1562 21.4809 24.1778 21.595 24.2098C21.7157 24.24 21.8343 24.2781 21.95 24.3238C22.0159 24.3496 22.0718 24.3956 22.1098 24.4553C22.1477 24.5149 22.1657 24.5851 22.1611 24.6557C22.1606 24.7368 22.1364 24.8161 22.0915 24.8837C22.0428 24.9576 21.9727 25.0149 21.8906 25.048C21.7973 25.088 21.6966 25.1078 21.595 25.1061C21.4468 25.117 21.2994 25.0767 21.1773 24.9921C21.0769 24.9038 21.0117 24.7823 20.9935 24.65" fill="#231F20"/>
<path d="M23.4006 24.6113L23.6448 24.6421C23.6149 24.7778 23.5387 24.8988 23.4291 24.9842C23.2946 25.0735 23.1339 25.1148 22.973 25.1016C22.8121 25.0883 22.6603 25.0213 22.5422 24.9112C22.4149 24.7622 22.3504 24.5697 22.362 24.3741C22.3488 24.1715 22.4147 23.9716 22.5457 23.8165C22.6048 23.7513 22.6773 23.6998 22.7583 23.6655C22.8394 23.6312 22.9268 23.615 23.0148 23.618C23.1003 23.6156 23.1855 23.6317 23.2643 23.6651C23.3431 23.6986 23.4137 23.7486 23.4713 23.8119C23.6 23.9637 23.6647 24.1596 23.6517 24.3582C23.653 24.3798 23.653 24.4015 23.6517 24.4231H22.6016C22.6018 24.5551 22.6478 24.6828 22.7317 24.7847C22.769 24.8249 22.8145 24.8568 22.8651 24.8783C22.9156 24.8997 22.9702 24.9102 23.0251 24.909C23.1068 24.9121 23.1873 24.8876 23.2534 24.8394C23.3236 24.7795 23.3744 24.7001 23.3994 24.6113H23.4006ZM22.6199 24.2224H23.4017C23.4013 24.125 23.3697 24.0303 23.3115 23.9522C23.2771 23.9071 23.2325 23.8709 23.1813 23.8465C23.1301 23.8221 23.0738 23.8102 23.0171 23.8119C22.9658 23.8106 22.9148 23.8201 22.8674 23.8397C22.82 23.8594 22.7773 23.8888 22.742 23.9259C22.6644 24.0063 22.6203 24.1131 22.6187 24.2247" fill="#231F20"/>
<path d="M24.6104 24.357C24.6018 24.2498 24.6165 24.142 24.6535 24.041C24.6906 23.94 24.7491 23.8482 24.825 23.772C24.9474 23.6663 25.105 23.6101 25.2667 23.6146C25.3544 23.6117 25.4417 23.6274 25.523 23.6606C25.6042 23.6939 25.6775 23.7438 25.7381 23.8073C25.867 23.9534 25.9331 24.1443 25.9219 24.3388C25.9285 24.487 25.9012 24.6349 25.842 24.771C25.7875 24.8731 25.7052 24.9577 25.6045 25.015C25.5003 25.0742 25.382 25.1042 25.2622 25.1017C25.1737 25.1056 25.0855 25.0905 25.0034 25.0574C24.9213 25.0244 24.8472 24.9742 24.7862 24.9101C24.6557 24.757 24.5909 24.5587 24.6059 24.3582L24.6104 24.357ZM24.8501 24.3582C24.8391 24.5041 24.8795 24.6493 24.9642 24.7687C25.0004 24.8121 25.0458 24.8467 25.0972 24.8702C25.1485 24.8937 25.2045 24.9054 25.261 24.9044C25.317 24.9051 25.3725 24.8931 25.4233 24.8694C25.4741 24.8457 25.5188 24.8109 25.5543 24.7676C25.6401 24.6469 25.6805 24.4999 25.6684 24.3524C25.6796 24.21 25.6392 24.0683 25.5543 23.9533C25.5188 23.9099 25.4741 23.8751 25.4233 23.8514C25.3725 23.8277 25.317 23.8158 25.261 23.8164C25.2045 23.8155 25.1485 23.8272 25.0972 23.8506C25.0458 23.8741 25.0004 23.9088 24.9642 23.9522C24.8796 24.0703 24.8393 24.2144 24.8501 24.3593" fill="#231F20"/>
<path d="M26.2585 25.066V23.8275H26.0485V23.6394H26.2585V23.49C26.2546 23.4184 26.2631 23.3466 26.2836 23.2779C26.3063 23.2155 26.3488 23.1622 26.4046 23.1262C26.4778 23.0834 26.5618 23.0628 26.6465 23.0669C26.7233 23.0679 26.7997 23.0763 26.8748 23.092L26.836 23.303C26.7904 23.2948 26.7442 23.2906 26.6979 23.2904C26.6702 23.2875 26.6422 23.2901 26.6155 23.2981C26.5889 23.3062 26.5641 23.3194 26.5427 23.3372C26.5075 23.3878 26.4917 23.4493 26.4982 23.5105V23.6394H26.7744V23.8275H26.4982V25.066H26.2585Z" fill="#231F20"/>
<path d="M27.7046 25.0708V23.6442H27.9157V23.8472C27.9592 23.7771 28.0196 23.719 28.0915 23.6784C28.1675 23.6349 28.2539 23.6128 28.3414 23.6145C28.4319 23.6106 28.5216 23.6332 28.5994 23.6796C28.6656 23.7236 28.7157 23.7881 28.7421 23.8632C28.7863 23.7875 28.8496 23.7247 28.9257 23.6811C29.0018 23.6375 29.088 23.6145 29.1758 23.6145C29.2349 23.61 29.2944 23.6178 29.3504 23.6374C29.4064 23.657 29.4577 23.6881 29.501 23.7286C29.5847 23.8292 29.6257 23.9585 29.6151 24.0889V25.0674H29.3789V24.1711C29.3819 24.1004 29.3741 24.0296 29.3561 23.9612C29.3396 23.9185 29.3095 23.8824 29.2704 23.8586C29.2275 23.8325 29.178 23.8191 29.1278 23.8198C29.0819 23.819 29.0364 23.8273 28.9939 23.8443C28.9513 23.8614 28.9127 23.8868 28.8801 23.919C28.8069 24.009 28.7717 24.124 28.782 24.2395V25.0662H28.5446V24.1414C28.5502 24.057 28.5295 23.9729 28.4852 23.9008C28.4627 23.8725 28.4335 23.8502 28.4002 23.8361C28.3669 23.822 28.3306 23.8164 28.2946 23.8198C28.228 23.8196 28.1628 23.8381 28.1063 23.8734C28.0484 23.9107 28.0048 23.9666 27.983 24.0319C27.9528 24.1273 27.9397 24.2273 27.9442 24.3273V25.0662L27.7046 25.0708Z" fill="#231F20"/>
<path d="M29.873 24.3571C29.8642 24.2496 29.8791 24.1416 29.9166 24.0405C29.954 23.9395 30.0132 23.8478 30.0899 23.772C30.2119 23.6664 30.3691 23.6103 30.5305 23.6147C30.6181 23.6115 30.7053 23.627 30.7864 23.6602C30.8675 23.6935 30.9406 23.7437 31.0007 23.8074C31.065 23.8794 31.1143 23.9635 31.1458 24.0547C31.1774 24.1459 31.1905 24.2425 31.1845 24.3388C31.1913 24.4872 31.1635 24.6352 31.1034 24.771C31.0516 24.8743 30.9696 24.9594 30.8683 25.0151C30.764 25.0741 30.6457 25.104 30.5259 25.1017C30.4375 25.1055 30.3493 25.0903 30.2672 25.0573C30.1852 25.0242 30.1111 24.9741 30.05 24.9102C29.92 24.7567 29.8549 24.5588 29.8685 24.3582L29.873 24.3571ZM30.115 24.3582C30.103 24.5043 30.1434 24.6498 30.2291 24.7688C30.2651 24.812 30.3104 24.8467 30.3616 24.8701C30.4127 24.8936 30.4685 24.9053 30.5248 24.9045C30.5807 24.9054 30.636 24.8935 30.6867 24.8698C30.7373 24.8461 30.7819 24.8111 30.8169 24.7676C30.9028 24.647 30.9432 24.5 30.931 24.3525C30.9423 24.2101 30.9018 24.0684 30.8169 23.9534C30.7816 23.9101 30.737 23.8753 30.6865 23.8517C30.6359 23.828 30.5806 23.816 30.5248 23.8165C30.4685 23.8156 30.4127 23.8274 30.3616 23.8508C30.3104 23.8743 30.2651 23.909 30.2291 23.9522C30.1436 24.0699 30.1031 24.2144 30.115 24.3593" fill="#231F20"/>
<path d="M31.4607 25.0709V23.6443H31.6753V23.8473C31.7232 23.7737 31.7897 23.7138 31.868 23.6738C31.9463 23.6338 32.0337 23.615 32.1215 23.6192C32.1999 23.6186 32.2777 23.6342 32.3498 23.6649C32.4129 23.6901 32.4678 23.7324 32.5084 23.7869C32.5447 23.8411 32.5699 23.9019 32.5826 23.9659C32.5922 24.0434 32.596 24.1216 32.594 24.1997V25.0743H32.3589V24.2088C32.3627 24.1343 32.353 24.0598 32.3304 23.9887C32.3115 23.9407 32.2769 23.9005 32.2322 23.8747C32.1822 23.8449 32.1249 23.8299 32.0668 23.8314C31.9698 23.8295 31.8757 23.865 31.8042 23.9306C31.7608 23.981 31.7283 24.0399 31.7087 24.1034C31.6891 24.167 31.6827 24.2339 31.6901 24.3V25.0778L31.4607 25.0709Z" fill="#231F20"/>
<path d="M33.9316 24.6112L34.1759 24.642C34.1464 24.777 34.0715 24.8977 33.9636 24.9841C33.8454 25.0651 33.7038 25.1051 33.5607 25.0982C33.4708 25.1023 33.381 25.0873 33.2974 25.054C33.2137 25.0208 33.1381 24.9701 33.0756 24.9054C32.9475 24.7568 32.8824 24.5641 32.8941 24.3683C32.8823 24.1662 32.9471 23.9671 33.0756 23.8106C33.1357 23.7453 33.2093 23.6937 33.2913 23.6594C33.3733 23.6252 33.4617 23.6091 33.5504 23.6122C33.636 23.6098 33.7211 23.6258 33.7999 23.6593C33.8787 23.6928 33.9494 23.7428 34.007 23.8061C34.1337 23.9589 34.1972 24.1543 34.185 24.3523V24.4173H33.1396C33.1398 24.5493 33.1857 24.677 33.2696 24.7788C33.3071 24.8192 33.3528 24.8512 33.4035 24.8726C33.4543 24.894 33.5091 24.9044 33.5642 24.9031C33.6459 24.906 33.7262 24.8815 33.7924 24.8336C33.8623 24.7734 33.9132 24.6941 33.9385 24.6055L33.9316 24.6112ZM33.1566 24.2166H33.9431C33.939 24.1195 33.9069 24.0256 33.8506 23.9463C33.8163 23.9014 33.7718 23.8653 33.7208 23.8409C33.6698 23.8165 33.6138 23.8046 33.5573 23.8061C33.506 23.8046 33.4549 23.814 33.4075 23.8336C33.3601 23.8533 33.3174 23.8828 33.2822 23.9201C33.2035 23.9999 33.1585 24.1069 33.1566 24.2189" fill="#231F20"/>
<path d="M34.4624 25.618L34.4315 25.3899C34.4768 25.403 34.5236 25.4103 34.5708 25.4116C34.6144 25.4138 34.658 25.4052 34.6975 25.3865C34.7304 25.3681 34.7582 25.3419 34.7785 25.3101C34.8063 25.2513 34.8311 25.1912 34.8527 25.1299L34.8733 25.0718L34.3357 23.6418H34.589L34.8858 24.4662C34.9269 24.5712 34.96 24.6806 34.992 24.7958C35.0178 24.6865 35.0498 24.5788 35.0878 24.4731L35.3846 23.6406H35.6243L35.0935 25.0911C35.0545 25.201 35.0095 25.3088 34.9589 25.4139C34.9254 25.4829 34.8756 25.5427 34.8139 25.5883C34.7551 25.6262 34.6864 25.6456 34.6165 25.6442C34.564 25.6426 34.512 25.633 34.4624 25.6157" fill="#231F20"/>
<path d="M10.2056 17.8109V17.2407H8.57811C8.57811 17.2407 7.13205 17.2864 7.09439 19.1646C7.09439 19.1646 7.09439 20.9151 8.36355 20.9893H10.2011V20.4476H8.84178C8.84178 20.4476 7.75518 20.5012 7.7917 19.0072C7.7917 19.0072 7.87388 17.7995 8.88852 17.7995L10.2056 17.8109Z" fill="#ED1D24"/>
<path d="M11.3755 15.7983H10.7261V16.4997H11.3755V15.7983Z" fill="#ED1D24"/>
<path d="M11.3755 17.251H10.7261V21.0109H11.3755V17.251Z" fill="#ED1D24"/>
<path d="M12.5488 17.7927H11.8012V17.2225H12.5488V15.7993H13.188V17.2431H14.3201V17.7939H13.2119V19.9857C13.2119 19.9857 13.1765 20.4647 13.5976 20.475H14.3087V21.0349H13.342C13.2329 21.0373 13.1246 21.0168 13.0238 20.9749C12.9231 20.933 12.8322 20.8706 12.757 20.7916C12.6818 20.7126 12.624 20.6188 12.5871 20.5161C12.5503 20.4135 12.5353 20.3043 12.5431 20.1956L12.5488 17.7927Z" fill="#ED1D24"/>
<path d="M15.3485 17.2422H14.6991V19.962C14.6991 19.962 14.7173 21.0637 16.0835 21.0637H17.2545C17.2845 21.1351 17.2948 21.2132 17.2843 21.2899C17.2738 21.3666 17.243 21.4391 17.195 21.4998C17.147 21.5606 17.0836 21.6074 17.0114 21.6354C16.9391 21.6634 16.8607 21.6715 16.7843 21.659H14.7173V22.2189H16.9555C17.0918 22.2298 17.2288 22.2105 17.3567 22.1623C17.4847 22.1142 17.6004 22.0383 17.6956 21.9403C17.7908 21.8422 17.8632 21.7243 17.9075 21.595C17.9518 21.4658 17.9669 21.3283 17.9519 21.1925V17.2479H17.3218V20.4923H16.0972C16.0972 20.4923 15.3953 20.4923 15.3439 19.8628L15.3485 17.2422Z" fill="#ED1D24"/>
<path d="M22.4362 17.2077H21.1419V15.8164H20.4833V21.0804H22.5583C24.1071 20.898 23.9941 19.1064 23.9941 19.1064C23.9222 17.2522 22.435 17.2077 22.435 17.2077H22.4362ZM23.2591 18.9833C23.3287 20.4521 22.1542 20.4521 22.1542 20.4521H21.159V17.7927H22.1542C22.4583 17.8055 22.745 17.9377 22.9519 18.1607C23.1588 18.3837 23.2693 18.6793 23.2591 18.9833Z" fill="#ED1D24"/>
<path d="M27.0037 17.2695H24.6926V17.8101H26.7469C27.571 17.8625 27.4819 18.7828 27.4819 18.7828H25.7837C24.4883 18.7828 24.4723 19.8229 24.4723 19.8229C24.4609 19.9814 24.4831 20.1405 24.5376 20.2898C24.592 20.4391 24.6774 20.5752 24.7882 20.6893C24.899 20.8033 25.0327 20.8926 25.1804 20.9515C25.3282 21.0103 25.4867 21.0372 25.6456 21.0306H28.0777V18.1967C28.0424 17.306 27.0094 17.2718 27.0094 17.2718L27.0037 17.2695ZM27.4523 20.4889H25.7631C25.6839 20.4932 25.6046 20.4805 25.5307 20.4517C25.4567 20.4229 25.3898 20.3785 25.3344 20.3217C25.2791 20.2649 25.2365 20.1968 25.2097 20.1222C25.1828 20.0476 25.1723 19.9681 25.1787 19.889C25.1787 19.889 25.132 19.3063 25.891 19.3405H27.4534L27.4523 20.4889Z" fill="#ED1D24"/>
<path d="M29.1392 17.8363V21.0293H28.5263V17.3037H30.7679C30.7679 17.3037 31.8693 17.3562 31.835 18.3517V21.0293H31.2222V18.6128C31.2222 18.6128 31.2815 17.8066 30.3091 17.834L29.1392 17.8363Z" fill="#ED1D24"/>
<path d="M32.9889 19.4133V21.0931H32.3042V15.8804H32.9832V18.7257H33.1214L34.9874 17.3139H35.7715L33.9808 18.8329H34.7626C34.9944 18.8313 35.2176 18.9203 35.3846 19.081C35.5516 19.2417 35.649 19.4612 35.6562 19.6927V21.0453H35.0958V20.0075C35.1081 19.9315 35.1031 19.8538 35.0813 19.78C35.0595 19.7062 35.0214 19.6382 34.9698 19.5811C34.9182 19.524 34.8545 19.4792 34.7833 19.4499C34.712 19.4207 34.6351 19.4078 34.5583 19.4122L32.9889 19.4133Z" fill="#ED1D24"/>
<path d="M0.815903 6.28261C0.815903 6.28261 5.4885 6.57455 10.9372 0.838379C10.9372 0.838379 13.4687 9.10166 23.5866 14.352C23.5866 14.352 7.04529 7.83811 1.01221 23.2003C1.01221 23.2003 4.90413 11.6311 0.817017 6.28376" fill="#231F20"/>
<path d="M15.0004 7.60673C13.2353 5.62304 11.8569 3.32718 10.9361 0.837402C9.61623 2.25754 8.1037 3.48589 6.44266 4.48664C7.15942 5.40807 8.20487 6.77768 9.34392 8.33545C11.19 7.85166 13.0907 7.60675 14.9993 7.60673" fill="#ED1D24"/>
<path d="M6.44378 4.48438C4.76895 5.58941 2.82167 6.21167 0.815903 6.28278C1.91329 7.87061 2.53844 9.73636 2.61916 11.6643C4.6031 10.0964 6.89453 8.9623 9.34503 8.3355C8.2037 6.77657 7.15942 5.40809 6.44266 4.48551" fill="#DFE0E4"/>
<path d="M2.6192 11.6643C2.75758 15.5738 2.2134 19.4776 1.01106 23.2005C4.06413 16.3102 8.37382 13.5664 12.4118 12.7328C11.4303 11.2423 10.3574 9.71647 9.34508 8.33545C6.8942 8.96217 4.6024 10.0963 2.61808 11.6643" fill="#ED1D24"/>
<path d="M9.45807 7.60693H9.34621V14.3524H9.45807V7.60693Z" fill="white"/>
<path d="M9.5699 7.60693H9.45807V14.3524H9.5699V7.60693Z" fill="#FEFEFE"/>
<path d="M9.68178 7.60693H9.5699V14.3524H9.68178V7.60693Z" fill="#FDFDFD"/>
<path d="M9.79475 7.60693H9.68291V14.3524H9.79475V7.60693Z" fill="#FCFCFC"/>
<path d="M9.9066 7.60693H9.79475V14.3524H9.9066V7.60693Z" fill="#FBFBFB"/>
<path d="M10.0185 7.60693H9.9066V14.3524H10.0185V7.60693Z" fill="#FAFAFA"/>
<path d="M10.1303 7.60693H10.0185V14.3524H10.1303V7.60693Z" fill="#F8F9F9"/>
<path d="M10.2433 7.60693H10.1315V14.3524H10.2433V7.60693Z" fill="#F7F7F8"/>
<path d="M10.3551 7.60693H10.2433V14.3524H10.3551V7.60693Z" fill="#F6F6F7"/>
<path d="M10.467 7.60693H10.3551V14.3524H10.467V7.60693Z" fill="#F5F5F6"/>
<path d="M10.5788 7.60693H10.467V14.3524H10.5788V7.60693Z" fill="#F4F4F5"/>
<path d="M10.6918 7.60693H10.58V14.3524H10.6918V7.60693Z" fill="#F3F3F4"/>
<path d="M10.8037 7.60693H10.6918V14.3524H10.8037V7.60693Z" fill="#F2F2F2"/>
<path d="M10.9155 7.60693H10.8037V14.3524H10.9155V7.60693Z" fill="#F1F1F1"/>
<path d="M11.0274 7.60693H10.9155V14.3524H11.0274V7.60693Z" fill="#F0F0F0"/>
<path d="M11.1404 7.60693H11.0285V14.3524H11.1404V7.60693Z" fill="#EFEFEF"/>
<path d="M11.2522 7.60693H11.1404V14.3524H11.2522V7.60693Z" fill="#EEEEEE"/>
<path d="M11.3641 7.60693H11.2522V14.3524H11.3641V7.60693Z" fill="#EDEDED"/>
<path d="M11.4759 7.60693H11.3641V14.3524H11.4759V7.60693Z" fill="#EBECEC"/>
<path d="M11.5889 7.60693H11.4771V14.3524H11.5889V7.60693Z" fill="#EAEBEB"/>
<path d="M11.7008 7.60693H11.5889V14.3524H11.7008V7.60693Z" fill="#E9EAEA"/>
<path d="M11.8126 7.60693H11.7008V14.3524H11.8126V7.60693Z" fill="#E8E9E9"/>
<path d="M11.9245 7.60693H11.8126V14.3524H11.9245V7.60693Z" fill="#E7E8E8"/>
<path d="M12.0363 7.60693H11.9245V14.3524H12.0363V7.60693Z" fill="#E6E6E7"/>
<path d="M12.1493 7.60693H12.0375V14.3524H12.1493V7.60693Z" fill="#E5E5E6"/>
<path d="M12.2612 7.60693H12.1493V14.3524H12.2612V7.60693Z" fill="#E4E4E5"/>
<path d="M12.373 7.60693H12.2612V14.3524H12.373V7.60693Z" fill="#E3E3E4"/>
<path d="M12.4849 7.60693H12.373V14.3524H12.4849V7.60693Z" fill="#E2E2E3"/>
<path d="M12.5979 7.60693H12.486V14.3524H12.5979V7.60693Z" fill="#E1E1E2"/>
<path d="M12.7097 7.60693H12.5979V14.3524H12.7097V7.60693Z" fill="#E0E0E1"/>
<path d="M12.8216 7.60693H12.7097V14.3524H12.8216V7.60693Z" fill="#DFDFE0"/>
<path d="M12.9334 7.60693H12.8216V14.3524H12.9334V7.60693Z" fill="#DEDEDF"/>
<path d="M13.0464 7.60693H12.9346V14.3524H13.0464V7.60693Z" fill="#DCDDDE"/>
<path d="M13.1583 7.60693H13.0464V14.3524H13.1583V7.60693Z" fill="#DBDCDD"/>
<path d="M13.2701 7.60693H13.1583V14.3524H13.2701V7.60693Z" fill="#DADBDC"/>
<path d="M13.382 7.60693H13.2701V14.3524H13.382V7.60693Z" fill="#D9DADB"/>
<path d="M13.4949 7.60693H13.3831V14.3524H13.4949V7.60693Z" fill="#D8D9DA"/>
<path d="M13.6068 7.60693H13.4949V14.3524H13.6068V7.60693Z" fill="#D7D8D9"/>
<path d="M13.7186 7.60693H13.6068V14.3524H13.7186V7.60693Z" fill="#D6D7D8"/>
<path d="M13.8305 7.60693H13.7186V14.3524H13.8305V7.60693Z" fill="#D5D6D7"/>
<path d="M13.9435 7.60693H13.8316V14.3524H13.9435V7.60693Z" fill="#D4D5D6"/>
<path d="M14.0553 7.60693H13.9435V14.3524H14.0553V7.60693Z" fill="#D3D4D5"/>
<path d="M14.1672 7.60693H14.0553V14.3524H14.1672V7.60693Z" fill="#D2D3D4"/>
<path d="M14.2791 7.60693H14.1672V14.3524H14.2791V7.60693Z" fill="#D1D2D3"/>
<path d="M14.3909 7.60693H14.2791V14.3524H14.3909V7.60693Z" fill="#D0D0D2"/>
<path d="M14.5039 7.60693H14.392V14.3524H14.5039V7.60693Z" fill="#CFCFD1"/>
<path d="M14.6158 7.60693H14.5039V14.3524H14.6158V7.60693Z" fill="#CECED0"/>
<path d="M14.7276 7.60693H14.6158V14.3524H14.7276V7.60693Z" fill="#CDCDCF"/>
<path d="M14.8394 7.60693H14.7276V14.3524H14.8394V7.60693Z" fill="#CCCCCE"/>
<path d="M14.9524 7.60693H14.8406V14.3524H14.9524V7.60693Z" fill="#CACBCD"/>
<path d="M15.0643 7.60693H14.9524V14.3524H15.0643V7.60693Z" fill="#C9CACC"/>
<path d="M15.1761 7.60693H15.0643V14.3524H15.1761V7.60693Z" fill="#C8C9CB"/>
<path d="M15.288 7.60693H15.1761V14.3524H15.288V7.60693Z" fill="#C7C8CA"/>
<path d="M15.401 7.60693H15.2891V14.3524H15.401V7.60693Z" fill="#C6C7C9"/>
<path d="M15.5128 7.60693H15.401V14.3524H15.5128V7.60693Z" fill="#C5C6C8"/>
<path d="M15.6247 7.60693H15.5128V14.3524H15.6247V7.60693Z" fill="#C4C5C7"/>
<path d="M15.7365 7.60693H15.6247V14.3524H15.7365V7.60693Z" fill="#C3C4C6"/>
<path d="M15.8495 7.60693H15.7377V14.3524H15.8495V7.60693Z" fill="#C2C3C5"/>
<path d="M15.9614 7.60693H15.8495V14.3524H15.9614V7.60693Z" fill="#C1C2C4"/>
<path d="M16.0732 7.60693H15.9614V14.3524H16.0732V7.60693Z" fill="#C0C1C3"/>
<path d="M16.1851 7.60693H16.0732V14.3524H16.1851V7.60693Z" fill="#BFC0C2"/>
<path d="M16.2981 7.60693H16.1862V14.3524H16.2981V7.60693Z" fill="#BEBFC1"/>
<path d="M16.4099 7.60693H16.2981V14.3524H16.4099V7.60693Z" fill="#BDBEC0"/>
<path d="M16.5218 7.60693H16.4099V14.3524H16.5218V7.60693Z" fill="#BCBDBF"/>
<path d="M16.6336 7.60693H16.5218V14.3524H16.6336V7.60693Z" fill="#BBBCBE"/>
<path d="M16.7455 7.60693H16.6336V14.3524H16.7455V7.60693Z" fill="#BABBBD"/>
<path d="M16.8585 7.60693H16.7466V14.3524H16.8585V7.60693Z" fill="#B9BABC"/>
<path d="M16.9703 7.60693H16.8585V14.3524H16.9703V7.60693Z" fill="#B8B9BB"/>
<path d="M17.0822 7.60693H16.9703V14.3524H17.0822V7.60693Z" fill="#B7B8BA"/>
<path d="M17.194 7.60693H17.0822V14.3524H17.194V7.60693Z" fill="#B6B7B9"/>
<path d="M17.307 7.60693H17.1952V14.3524H17.307V7.60693Z" fill="#B5B6B8"/>
<path d="M17.4189 7.60693H17.307V14.3524H17.4189V7.60693Z" fill="#B4B5B7"/>
<path d="M17.5307 7.60693H17.4189V14.3524H17.5307V7.60693Z" fill="#B3B4B6"/>
<path d="M17.6426 7.60693H17.5307V14.3524H17.6426V7.60693Z" fill="#B2B3B5"/>
<path d="M17.7556 7.60693H17.6437V14.3524H17.7556V7.60693Z" fill="#B1B2B4"/>
<path d="M17.8674 7.60693H17.7556V14.3524H17.8674V7.60693Z" fill="#B0B1B3"/>
<path d="M17.9792 7.60693H17.8674V14.3524H17.9792V7.60693Z" fill="#AFB0B2"/>
<path d="M18.0911 7.60693H17.9792V14.3524H18.0911V7.60693Z" fill="#AEAFB1"/>
<path d="M18.2041 7.60693H18.0922V14.3524H18.2041V7.60693Z" fill="#ADAEB0"/>
<path d="M18.3159 7.60693H18.2041V14.3524H18.3159V7.60693Z" fill="#ACADAF"/>
<path d="M18.4278 7.60693H18.3159V14.3524H18.4278V7.60693Z" fill="#ABACAE"/>
<path d="M18.5396 7.60693H18.4278V14.3524H18.5396V7.60693Z" fill="#AAABAD"/>
<path d="M18.6526 7.60693H18.5408V14.3524H18.6526V7.60693Z" fill="#A9AAAC"/>
<path d="M18.7645 7.60693H18.6526V14.3524H18.7645V7.60693Z" fill="#A8A9AB"/>
<path d="M18.8763 7.60693H18.7645V14.3524H18.8763V7.60693Z" fill="#A7A8AA"/>
<path d="M18.9882 7.60693H18.8763V14.3524H18.9882V7.60693Z" fill="#A6A7A9"/>
<path d="M19.1001 7.60693H18.9882V14.3524H19.1001V7.60693Z" fill="#A5A6A8"/>
<path d="M19.213 7.60693H19.1012V14.3524H19.213V7.60693Z" fill="#A4A5A7"/>
<path d="M19.3249 7.60693H19.213V14.3524H19.3249V7.60693Z" fill="#A3A4A6"/>
<path d="M19.4367 7.60693H19.3249V14.3524H19.4367V7.60693Z" fill="#A2A3A5"/>
<path d="M19.5486 7.60693H19.4367V14.3524H19.5486V7.60693Z" fill="#A1A2A4"/>
<path d="M19.6616 7.60693H19.5497V14.3524H19.6616V7.60693Z" fill="#A0A1A3"/>
<path d="M19.7734 7.60693H19.6616V14.3524H19.7734V7.60693Z" fill="#9FA0A3"/>
<path d="M19.8853 7.60693H19.7734V14.3524H19.8853V7.60693Z" fill="#9E9FA2"/>
<path d="M19.9971 7.60693H19.8853V14.3524H19.9971V7.60693Z" fill="#9D9EA1"/>
<path d="M20.1101 7.60693H19.9983V14.3524H20.1101V7.60693Z" fill="#9C9DA0"/>
<path d="M20.222 7.60693H20.1101V14.3524H20.222V7.60693Z" fill="#9B9C9F"/>
<path d="M20.3338 7.60693H20.222V14.3524H20.3338V7.60693Z" fill="#9A9B9E"/>
<path d="M20.4457 7.60693H20.3338V14.3524H20.4457V7.60693Z" fill="#999B9D"/>
<path d="M20.5587 7.60693H20.4468V14.3524H20.5587V7.60693Z" fill="#989A9C"/>
<path d="M20.6705 7.60693H20.5587V14.3524H20.6705V7.60693Z" fill="#97999B"/>
<path d="M20.7824 7.60693H20.6705V14.3524H20.7824V7.60693Z" fill="#96989A"/>
<path d="M20.8942 7.60693H20.7824V14.3524H20.8942V7.60693Z" fill="#959799"/>
<path d="M21.0072 7.60693H20.8954V14.3524H21.0072V7.60693Z" fill="#949698"/>
<path d="M21.1191 7.60693H21.0072V14.3524H21.1191V7.60693Z" fill="#939597"/>
<path d="M21.2309 7.60693H21.1191V14.3524H21.2309V7.60693Z" fill="#929497"/>
<path d="M21.3428 7.60693H21.2309V14.3524H21.3428V7.60693Z" fill="#919396"/>
<path d="M21.4558 7.60693H21.3439V14.3524H21.4558V7.60693Z" fill="#909295"/>
<path d="M21.5676 7.60693H21.4558V14.3524H21.5676V7.60693Z" fill="#8F9194"/>
<path d="M21.6794 7.60693H21.5676V14.3524H21.6794V7.60693Z" fill="#8F9093"/>
<path d="M21.7913 7.60693H21.6794V14.3524H21.7913V7.60693Z" fill="#8E8F92"/>
<path d="M21.9032 7.60693H21.7913V14.3524H21.9032V7.60693Z" fill="#8D8E91"/>
<path d="M22.0161 7.60693H21.9043V14.3524H22.0161V7.60693Z" fill="#8C8E90"/>
<path d="M22.128 7.60693H22.0161V14.3524H22.128V7.60693Z" fill="#8B8D8F"/>
<path d="M22.2399 7.60693H22.128V14.3524H22.2399V7.60693Z" fill="#8A8C8F"/>
<path d="M22.3517 7.60693H22.2399V14.3524H22.3517V7.60693Z" fill="#898B8E"/>
<path d="M22.4647 7.60693H22.3528V14.3524H22.4647V7.60693Z" fill="#888A8D"/>
<path d="M22.5765 7.60693H22.4647V14.3524H22.5765V7.60693Z" fill="#87898C"/>
<path d="M22.6884 7.60693H22.5765V14.3524H22.6884V7.60693Z" fill="#86888B"/>
<path d="M22.8002 7.60693H22.6884V14.3524H22.8002V7.60693Z" fill="#86878A"/>
<path d="M22.9132 7.60693H22.8014V14.3524H22.9132V7.60693Z" fill="#85878A"/>
<path d="M23.0251 7.60693H22.9132V14.3524H23.0251V7.60693Z" fill="#848689"/>
<path d="M23.1369 7.60693H23.0251V14.3524H23.1369V7.60693Z" fill="#838588"/>
<path d="M23.2488 7.60693H23.1369V14.3524H23.2488V7.60693Z" fill="#828487"/>
<path d="M23.3618 7.60693H23.2499V14.3524H23.3618V7.60693Z" fill="#818386"/>
<path d="M23.4736 7.60693H23.3618V14.3524H23.4736V7.60693Z" fill="#818386"/>
<path d="M23.5855 7.60693H23.4736V14.3524H23.5855V7.60693Z" fill="#808285"/>
</svg>
