<svg width="50" height="30" viewBox="0 0 50 30" fill="none" xmlns="http://www.w3.org/2000/svg">
<path fill-rule="evenodd" clip-rule="evenodd" d="M0.975433 15.0038C0.975433 13.0927 1.35216 11.2003 2.0841 9.43474C2.81603 7.66914 3.88885 6.06486 5.24129 4.71352C6.59374 3.36219 8.19934 2.29026 9.9664 1.55892C11.7334 0.827587 13.6274 0.451172 15.54 0.451172C19.4028 0.451172 23.1073 1.98439 25.8387 4.71352C28.5701 7.44266 30.1045 11.1442 30.1045 15.0038C30.1045 16.9148 29.7278 18.8072 28.9959 20.5728C28.264 22.3384 27.1911 23.9427 25.8387 25.294C24.4862 26.6453 22.8807 27.7172 21.1136 28.4486C19.3466 29.1799 17.4527 29.5563 15.54 29.5563C11.6772 29.5563 7.97268 28.0231 5.24129 25.294C2.50991 22.5648 0.975433 18.8634 0.975433 15.0038Z" fill="#B62036"/>
<path fill-rule="evenodd" clip-rule="evenodd" d="M11.4209 1.05322C9.9549 1.48401 8.56514 2.1408 7.30185 2.99988L29.6206 20.3749C30.1695 19.0494 30.5203 17.6503 30.6615 16.2228L11.4209 1.05552V1.05322Z" fill="#B62036"/>
<path fill-rule="evenodd" clip-rule="evenodd" d="M11.1836 1.1341L30.625 16.4964C30.4892 17.7411 30.1819 18.961 29.7119 20.1217L7.57008 2.84243C8.68259 2.09561 9.90054 1.51905 11.1836 1.13184V1.1341Z" fill="#BB263A"/>
<path fill-rule="evenodd" clip-rule="evenodd" d="M10.9519 1.21647L30.5828 16.7749C30.4585 17.8338 30.1988 18.8724 29.8101 19.8654L7.84058 2.68303C8.80653 2.05691 9.85167 1.56218 10.9484 1.21191L10.9519 1.21647Z" fill="#C02C3E"/>
<path fill-rule="evenodd" clip-rule="evenodd" d="M10.7145 1.29053L30.5508 17.0553C30.4285 17.9303 30.2115 18.7895 29.9037 19.6178L8.11221 2.53129C8.92629 2.01421 9.80007 1.59758 10.7145 1.29053Z" fill="#C42F41"/>
<path fill-rule="evenodd" clip-rule="evenodd" d="M10.485 1.3729L30.5223 17.3293C30.4048 18.0209 30.2307 18.7017 30.0018 19.3649L8.38954 2.37301C9.05597 1.97496 9.75785 1.6394 10.4862 1.37061L10.485 1.3729Z" fill="#C93546"/>
<path fill-rule="evenodd" clip-rule="evenodd" d="M10.2465 1.45361C9.70266 1.67964 9.17152 1.93508 8.65547 2.21881L30.0977 19.1116C30.3579 18.4729 30.326 17.9529 30.4766 17.6108L10.2465 1.45361Z" fill="#D13B4C"/>
<path fill-rule="evenodd" clip-rule="evenodd" d="M20.692 15.0038C20.692 11.1442 22.2264 7.44266 24.9578 4.71352C27.6892 1.98439 31.3938 0.451172 35.2566 0.451172C37.1692 0.451172 39.0631 0.827587 40.8302 1.55892C42.5972 2.29026 44.2028 3.36219 45.5552 4.71352C46.9077 6.06486 47.9805 7.66914 48.7124 9.43474C49.4444 11.2003 49.8211 13.0927 49.8211 15.0038C49.8211 18.8634 48.2866 22.5648 45.5552 25.294C42.8239 28.0231 39.1193 29.5563 35.2566 29.5563C33.3439 29.5563 31.45 29.1799 29.683 28.4486C27.9159 27.7172 26.3103 26.6453 24.9578 25.294C23.6054 23.9427 22.5326 22.3384 21.8006 20.5728C21.0687 18.8072 20.692 16.9148 20.692 15.0038Z" fill="#FFAA00"/>
<path fill-rule="evenodd" clip-rule="evenodd" d="M20.7673 13.5854C20.9083 12.1121 21.2744 10.6691 21.8527 9.30664L43.804 26.7957C42.6422 27.6425 41.3589 28.3089 39.9977 28.772L20.7719 13.5877L20.7673 13.5854Z" fill="#FFAA00"/>
<path fill-rule="evenodd" clip-rule="evenodd" d="M21.7637 9.52181L43.5997 26.9345C42.5894 27.6547 41.4834 28.2305 40.3137 28.6451L20.8129 13.2498C20.9672 11.9682 21.2872 10.712 21.7649 9.5127L21.7637 9.52181Z" fill="#FFAE00"/>
<path fill-rule="evenodd" clip-rule="evenodd" d="M21.6747 9.7373L43.4068 27.0713C42.5492 27.6744 41.617 28.1638 40.6334 28.5275L20.8564 12.927C21.0211 11.8397 21.2952 10.7718 21.6747 9.73957V9.7373Z" fill="#FFB315"/>
<path fill-rule="evenodd" clip-rule="evenodd" d="M21.5765 9.95312L43.2048 27.2028C42.5013 27.6851 41.7455 28.0865 40.9518 28.3991L20.8928 12.5909C21.0688 11.6993 21.2975 10.8189 21.5777 9.95427L21.5765 9.95312Z" fill="#FFB624"/>
<path fill-rule="evenodd" clip-rule="evenodd" d="M21.4875 10.1753L43.0107 27.3428C42.458 27.7046 41.8762 28.0201 41.2713 28.2859L20.9374 12.2702C21.1006 11.594 21.3015 10.9781 21.4875 10.1753Z" fill="#FFBA2C"/>
<path fill-rule="evenodd" clip-rule="evenodd" d="M20.967 11.9363C21.1641 11.4387 21.3038 10.9203 21.3836 10.3911L42.8145 27.4696C42.2575 27.8779 41.8923 27.9258 41.5875 28.1539L20.9704 11.9375L20.967 11.9363Z" fill="#FFBF37"/>
<path fill-rule="evenodd" clip-rule="evenodd" d="M25.3989 25.7087H19.7184V24.8843H26.224C26.0608 25.0553 25.5107 25.6198 25.3989 25.7087Z" fill="#B62036"/>
<path fill-rule="evenodd" clip-rule="evenodd" d="M26.9671 24.0003H19.7104V23.1758H27.5857C27.4007 23.4657 27.1943 23.7413 26.9682 24.0003H26.9671Z" fill="#B62036"/>
<path fill-rule="evenodd" clip-rule="evenodd" d="M28.1266 22.2839H19.7104V21.4595H28.5877C28.4567 21.7455 28.3041 22.0211 28.1312 22.2839H28.1266Z" fill="#B62036"/>
<path fill-rule="evenodd" clip-rule="evenodd" d="M28.9815 20.5676H19.7104V19.7432H29.2862C29.2081 20.0261 29.1061 20.3019 28.9815 20.5676Z" fill="#B62036"/>
<path fill-rule="evenodd" clip-rule="evenodd" d="M29.5761 18.8514H19.7104V18.0269H29.777C29.727 18.3055 29.6599 18.5809 29.5761 18.8514Z" fill="#B62036"/>
<path fill-rule="evenodd" clip-rule="evenodd" d="M29.785 18.02L29.5841 18.8445H27.435L26.3872 18.02H29.785Z" fill="#B62036"/>
<path fill-rule="evenodd" clip-rule="evenodd" d="M29.5841 18.8218L27.7773 18.7625L26.8403 18.02H29.777L29.68 18.4363L29.583 18.8229L29.5841 18.8218Z" fill="#BB263A"/>
<path fill-rule="evenodd" clip-rule="evenodd" d="M29.591 18.7947L28.1266 18.6681L27.3015 18.0215L29.7701 18.0146L29.6811 18.4229L29.5921 18.7947H29.591Z" fill="#C02C3E"/>
<path fill-rule="evenodd" clip-rule="evenodd" d="M29.5989 18.7708L28.469 18.578L27.7557 18.0215H29.7701L29.6879 18.4081L29.5989 18.7719V18.7708Z" fill="#C42F41"/>
<path fill-rule="evenodd" clip-rule="evenodd" d="M29.6137 18.7476L28.8263 18.4955L28.2168 18.02H29.7701L29.6959 18.3986L29.6137 18.7476Z" fill="#C93546"/>
<path fill-rule="evenodd" clip-rule="evenodd" d="M29.7701 18.02L29.7108 18.3769L29.6287 18.7191L29.1721 18.3997L28.6733 18.0211L29.7701 18.02Z" fill="#D13B4C"/>
<path fill-rule="evenodd" clip-rule="evenodd" d="M29.9334 17.1365H19.7104V16.312H30.0304C30.0141 16.5885 29.9818 16.8638 29.9334 17.1365Z" fill="#B62036"/>
<path fill-rule="evenodd" clip-rule="evenodd" d="M30.0372 16.3105L29.9402 17.135H25.2413L24.2084 16.3105H30.0372Z" fill="#B62036"/>
<path fill-rule="evenodd" clip-rule="evenodd" d="M25.7104 17.1444L24.6832 16.3198H29.7906L29.9322 17.1444H25.7104Z" fill="#BB263A"/>
<path fill-rule="evenodd" clip-rule="evenodd" d="M26.1864 17.1445L25.1591 16.3269L29.5533 16.3188L29.9322 17.1434L26.1864 17.1445Z" fill="#C02C3E"/>
<path fill-rule="evenodd" clip-rule="evenodd" d="M26.6623 17.1445L25.6351 16.3269L29.3147 16.3188L29.9322 17.1434L26.6623 17.1445Z" fill="#C42F41"/>
<path fill-rule="evenodd" clip-rule="evenodd" d="M27.1382 17.1445L26.1111 16.3269L29.0785 16.3188L29.9334 17.1434L27.1382 17.1445Z" fill="#C93546"/>
<path fill-rule="evenodd" clip-rule="evenodd" d="M28.84 16.3105L29.9334 17.1281L27.621 17.1361L26.5882 16.3117L28.84 16.3105Z" fill="#D13B4C"/>
<path fill-rule="evenodd" clip-rule="evenodd" d="M30.0749 15.4202H19.7035L19.7115 14.5957H30.0829C30.1072 14.8701 30.1045 15.1463 30.0749 15.4202Z" fill="#B62036"/>
<path fill-rule="evenodd" clip-rule="evenodd" d="M28.6174 14.6104L29.6583 15.4349H23.0557L22.0376 14.6104H28.6174Z" fill="#B62036"/>
<path fill-rule="evenodd" clip-rule="evenodd" d="M23.5328 15.4268L22.5147 14.609L28.2397 14.6011L29.2805 15.4256L23.5328 15.4268Z" fill="#BB263A"/>
<path fill-rule="evenodd" clip-rule="evenodd" d="M24.0042 15.4202L22.9769 14.6025H27.8539L28.8879 15.4202H24.0042Z" fill="#C02C3E"/>
<path fill-rule="evenodd" clip-rule="evenodd" d="M24.4766 15.4202L23.4426 14.6025H27.4726L28.5067 15.4202H24.4766Z" fill="#C42F41"/>
<path fill-rule="evenodd" clip-rule="evenodd" d="M24.9457 15.4202L23.9117 14.6025H27.0857L28.1198 15.4202H24.9457Z" fill="#C93546"/>
<path fill-rule="evenodd" clip-rule="evenodd" d="M26.6988 14.6025L27.726 15.4122L25.4137 15.4202L24.3648 14.6025H26.6988Z" fill="#D13B4C"/>
<path fill-rule="evenodd" clip-rule="evenodd" d="M30.0373 13.7116H19.7104V12.8872H29.9631C30.0099 13.1596 30.0347 13.4353 30.0373 13.7116Z" fill="#B62036"/>
<path fill-rule="evenodd" clip-rule="evenodd" d="M26.4386 12.894L27.4795 13.7186H20.8768L20.959 12.894H26.4386Z" fill="#B62036"/>
<path fill-rule="evenodd" clip-rule="evenodd" d="M26.0517 12.894L27.0926 13.7186H21.3528L21.2044 12.894H26.0517Z" fill="#BB263A"/>
<path fill-rule="evenodd" clip-rule="evenodd" d="M25.6659 12.894L26.7068 13.7186H21.8219L21.4498 12.894H25.6659Z" fill="#C02C3E"/>
<path fill-rule="evenodd" clip-rule="evenodd" d="M25.287 12.894L26.3279 13.7186H22.3058L21.7043 12.894H25.287Z" fill="#C42F41"/>
<path fill-rule="evenodd" clip-rule="evenodd" d="M24.9001 12.894L25.941 13.7186H22.7818L21.9486 12.894H24.9001Z" fill="#C93546"/>
<path fill-rule="evenodd" clip-rule="evenodd" d="M24.5143 12.894L25.5552 13.7186H23.2509L22.1952 12.894H24.5143Z" fill="#D13B4C"/>
<path fill-rule="evenodd" clip-rule="evenodd" d="M29.7907 11.9954H20.9066L21.1667 11.1709H29.5898C29.6721 11.4418 29.7392 11.717 29.7907 11.9954Z" fill="#B62036"/>
<path fill-rule="evenodd" clip-rule="evenodd" d="M24.2232 11.1631L25.2641 11.9876H22.2008L22.275 11.1631H24.2232Z" fill="#B62036"/>
<path fill-rule="evenodd" clip-rule="evenodd" d="M23.8672 11.1631L24.9081 11.9876H21.9714L22.0456 11.1631H23.8672Z" fill="#BB263A"/>
<path fill-rule="evenodd" clip-rule="evenodd" d="M23.5031 11.1631L24.544 11.9876H21.7226L21.8048 11.1631H23.5031Z" fill="#C02C3E"/>
<path fill-rule="evenodd" clip-rule="evenodd" d="M23.1459 11.1631L24.1868 11.9876H21.4955L21.5697 11.1631H23.1459Z" fill="#C42F41"/>
<path fill-rule="evenodd" clip-rule="evenodd" d="M22.7795 11.1631L23.8204 11.9876H21.2558L21.33 11.1631H22.7795Z" fill="#C93546"/>
<path fill-rule="evenodd" clip-rule="evenodd" d="M22.4165 11.1631L23.4574 11.9876H21.0115L21.0937 11.1631H22.4165Z" fill="#D13B4C"/>
<path fill-rule="evenodd" clip-rule="evenodd" d="M29.3171 10.2792H21.3392L21.7295 9.4502H29.0157C29.1789 9.8436 29.3205 10.2746 29.3205 10.2746L29.3171 10.2792Z" fill="#B62036"/>
<path fill-rule="evenodd" clip-rule="evenodd" d="M28.5877 8.57062H21.9338L21.9566 7.74609H28.1574C28.1574 7.74609 28.477 8.3163 28.5889 8.57062H28.5877Z" fill="#B62036"/>
<path fill-rule="evenodd" clip-rule="evenodd" d="M27.613 6.85431H19.7104V6.02979H26.9967C26.9967 6.02979 27.4726 6.66158 27.6142 6.85431H27.613Z" fill="#B62036"/>
<path fill-rule="evenodd" clip-rule="evenodd" d="M26.2457 5.13501H19.7104V4.31055H25.3977C25.6975 4.56728 25.9807 4.84264 26.2457 5.13501Z" fill="#B62036"/>
<path fill-rule="evenodd" clip-rule="evenodd" d="M8.89287 17.703H7.5769L8.78099 12.0649H8.75933L6.29861 17.703H4.91531L4.88563 12.0649H4.86282L3.66555 17.703H2.34505L3.78766 10.9507H5.84208L5.93111 16.2775H5.95278L8.28796 10.9507H10.3252L8.89057 17.703H8.89287Z" fill="white"/>
<path fill-rule="evenodd" clip-rule="evenodd" d="M18.8111 13.6887C18.2272 13.5874 17.6341 13.5492 17.042 13.5747C16.3287 13.6488 16.1723 13.8347 16.1289 14.0503C15.9657 14.8486 19.2105 14.2783 18.8202 16.1155C18.6629 16.6538 18.3215 17.1199 17.8556 17.4325C17.3896 17.7451 16.8287 17.8844 16.2705 17.8261C15.5599 17.872 14.8468 17.789 14.1658 17.581L14.3587 16.6082C15.0182 16.77 15.6942 16.8546 16.3732 16.8602C17.05 16.8374 17.4221 16.5033 17.4666 16.3174C17.6446 15.478 14.4032 16.1099 14.7981 14.2373C14.9263 13.7187 15.2378 13.2639 15.6751 12.9567C16.1124 12.6495 16.6461 12.5105 17.1778 12.5655C17.7897 12.5709 18.3987 12.6505 18.9914 12.8026L18.8134 13.6796L18.8111 13.6887Z" fill="white"/>
<path fill-rule="evenodd" clip-rule="evenodd" d="M19.5541 13.6446L20.0368 11.3569H21.3573L21.0755 12.7095H21.8938L21.6929 13.6457H20.8746L20.2948 16.3576C20.2354 16.6553 20.2206 16.7659 20.7513 16.7659C20.8434 16.7651 20.9354 16.7574 21.0264 16.743L20.8403 17.6269C20.6326 17.6337 20.3941 17.7603 20.1863 17.7603H20.0231C18.8818 17.7603 18.7745 17.3292 18.9149 16.6758L19.5541 13.6446Z" fill="white"/>
<path fill-rule="evenodd" clip-rule="evenodd" d="M22.7292 15.5317C22.6916 15.9035 22.6151 16.891 23.6731 16.891C24.4795 16.9423 25.282 16.7431 25.9706 16.3209L25.7629 17.2571C25.0633 17.6923 24.2425 17.8922 23.4209 17.8273C22.0159 17.8273 21.072 17.151 21.5103 15.1006C21.6243 14.4012 21.9811 13.7641 22.518 13.3011C23.0549 12.838 23.7377 12.5785 24.4469 12.5679C25.4353 12.5679 26.6999 13.0434 26.2092 15.3242L26.1646 15.5523H22.655L22.8708 14.7049H24.9902C25.0872 13.8953 24.6181 13.6501 24.1913 13.6501C23.8941 13.6578 23.6085 13.7665 23.3815 13.9583C23.1545 14.1501 22.9997 14.4134 22.9427 14.7049L22.727 15.5294L22.7292 15.5317Z" fill="white"/>
<path fill-rule="evenodd" clip-rule="evenodd" d="M27.0332 12.7016H28.2887L28.1027 13.5638H28.1255C28.2829 13.2774 28.5112 13.0362 28.7885 12.8633C29.0659 12.6903 29.3831 12.5915 29.7097 12.5762C29.7987 12.5762 29.9927 12.6126 30.0737 12.6206L29.591 13.9207C29.4972 13.9079 29.4025 13.903 29.3079 13.9059C28.9566 13.8765 28.6075 13.9837 28.3333 14.205C28.0591 14.4264 27.8808 14.7448 27.8356 15.0941L27.2855 17.7011H25.9695L27.0321 12.7016H27.0332Z" fill="white"/>
<path fill-rule="evenodd" clip-rule="evenodd" d="M34.9827 12.2555C34.4803 11.9847 33.8997 11.8957 33.3391 12.0034C32.6703 12.1072 31.5701 12.4493 31.1603 14.3583C30.9526 15.3311 31.0633 16.4977 32.1487 16.7212C32.4614 16.7805 33.8287 16.8991 34.3423 16.3574L33.9851 17.5834C33.8288 17.6358 33.6872 17.9768 32.0597 17.8879C30.2609 17.7841 29.2269 16.6699 29.7257 14.3367C29.8342 13.3783 30.2847 12.4911 30.9947 11.8376C31.7047 11.1841 32.6265 10.8082 33.5913 10.7786C34.1959 10.7688 34.7804 10.9955 35.22 11.4104L34.9827 12.2577V12.2555Z" fill="white"/>
<path fill-rule="evenodd" clip-rule="evenodd" d="M46.8479 17.7032H45.5616L45.6951 17.0794H45.6803C45.4873 17.32 45.2415 17.5129 44.9618 17.643C44.6821 17.7732 44.3761 17.8371 44.0676 17.8298C42.5839 17.8298 42.2414 16.5229 42.5291 15.1476C42.597 14.4784 42.8975 13.8541 43.3784 13.3832C43.8592 12.9124 44.49 12.6247 45.161 12.5703C45.4301 12.5426 45.7009 12.604 45.9318 12.7449C46.1627 12.8858 46.341 13.0985 46.4393 13.3503H46.4621L46.9677 10.9556H48.2836L46.849 17.7077L46.8479 17.7032Z" fill="white"/>
<path fill-rule="evenodd" clip-rule="evenodd" d="M44.6166 16.7497C44.9916 16.722 45.3448 16.5631 45.6141 16.3009C45.8834 16.0387 46.0516 15.69 46.089 15.3162C46.2602 14.5179 46.2031 13.7036 45.3014 13.7036C44.4683 13.7036 44.03 14.446 43.8588 15.2409C43.7321 15.8282 43.7766 16.7486 44.6166 16.7486V16.7497Z" fill="#FFAA00"/>
<path fill-rule="evenodd" clip-rule="evenodd" d="M38.9076 16.638C38.9076 16.638 38.781 17.1729 38.7513 17.4363L38.6839 17.6963H37.5163C37.4903 17.4991 37.4903 17.2994 37.5163 17.1022C37.0433 17.5637 36.4085 17.8224 35.7473 17.8229C35.5598 17.8505 35.3683 17.8296 35.1911 17.7622C35.014 17.6947 34.8571 17.583 34.7355 17.4377C34.6139 17.2924 34.5317 17.1184 34.4966 16.9323C34.4615 16.7461 34.4748 16.5541 34.5352 16.3746C34.6185 15.9483 34.8397 15.5612 35.1646 15.2727C35.4896 14.9843 35.9004 14.8105 36.3339 14.7781L37.5528 14.6002C37.6743 14.6009 37.7929 14.5632 37.8917 14.4926C37.9905 14.4219 38.0645 14.3219 38.103 14.2067C38.2171 13.6502 37.6944 13.5453 37.36 13.5385C36.6736 13.5151 35.9892 13.6263 35.3456 13.8657L35.6434 12.893C36.3062 12.6186 37.025 12.5064 37.74 12.5657C38.4465 12.5885 39.6883 12.7812 39.452 13.9923L38.9088 16.6369L38.9076 16.638Z" fill="white"/>
<path fill-rule="evenodd" clip-rule="evenodd" d="M37.8782 15.2637C37.5834 15.4192 37.259 15.5105 36.9263 15.5317C36.4207 15.6206 35.9893 15.7392 35.8774 16.29C35.8522 16.3629 35.8459 16.4411 35.8591 16.5171C35.8723 16.5931 35.9046 16.6645 35.9529 16.7246C36.0013 16.7848 36.0641 16.8317 36.1355 16.861C36.2069 16.8903 36.2846 16.901 36.3613 16.8922C36.668 16.9003 36.969 16.8082 37.2186 16.63C37.4682 16.4518 37.6529 16.1971 37.7446 15.9046L37.8782 15.2659V15.2637Z" fill="#FFAA00"/>
<path fill-rule="evenodd" clip-rule="evenodd" d="M40.1266 12.7016H41.3821L41.196 13.5638H41.2189C41.3762 13.2774 41.6045 13.0362 41.8819 12.8633C42.1593 12.6903 42.4764 12.5915 42.803 12.5762C42.8921 12.5762 43.0849 12.6126 43.1671 12.6206L42.6843 13.9207C42.5906 13.9079 42.4959 13.903 42.4013 13.9059C42.05 13.8765 41.7009 13.9837 41.4267 14.205C41.1524 14.4264 40.9741 14.7448 40.9289 15.0941L40.3788 17.7011H39.0629L40.1266 12.7016Z" fill="white"/>
<path fill-rule="evenodd" clip-rule="evenodd" d="M13.8668 16.638C13.8668 16.638 13.7401 17.1729 13.7105 17.4363L13.6431 17.6963H12.4801C12.4542 17.4991 12.4542 17.2994 12.4801 17.1022C12.0071 17.5638 11.3722 17.8225 10.711 17.8229C10.5235 17.8505 10.332 17.8296 10.1548 17.7622C9.97769 17.6947 9.82085 17.583 9.69925 17.4377C9.57765 17.2924 9.49538 17.1184 9.46031 16.9323C9.42524 16.7461 9.43854 16.5541 9.49894 16.3746C9.58226 15.9483 9.80341 15.5612 10.1284 15.2727C10.4534 14.9843 10.8642 14.8105 11.2977 14.7781L12.5166 14.6002C12.6381 14.6007 12.7566 14.563 12.8554 14.4924C12.9541 14.4217 13.0281 14.3218 13.0667 14.2067C13.1809 13.6502 12.6581 13.5453 12.3237 13.5385C11.6373 13.515 10.9529 13.6262 10.3093 13.8657L10.606 12.893C11.2688 12.6186 11.9876 12.5064 12.7026 12.5657C13.4091 12.5885 14.6509 12.7812 14.4146 13.9923L13.8714 16.6369L13.8668 16.638Z" fill="white"/>
<path fill-rule="evenodd" clip-rule="evenodd" d="M12.8339 15.2637C12.5392 15.4192 12.2147 15.5106 11.882 15.5317C11.3764 15.6206 10.945 15.7392 10.8343 16.29C10.8091 16.3629 10.8028 16.4408 10.816 16.5167C10.8292 16.5926 10.8613 16.664 10.9096 16.7241C10.9578 16.7842 11.0204 16.8312 11.0916 16.8606C11.1629 16.89 11.2405 16.9008 11.3171 16.8922C11.6238 16.9003 11.9247 16.8082 12.1744 16.63C12.424 16.4518 12.6086 16.1971 12.7004 15.9046L12.8339 15.2659V15.2637Z" fill="#B62036"/>
<path d="M48.2324 17.2504L48.3739 17.4659M48.1341 17.7088C48.2682 17.7085 48.3966 17.6552 48.4914 17.5605C48.5861 17.4658 48.6395 17.3375 48.6398 17.2036C48.6401 17.0688 48.5872 16.9393 48.4926 16.8432C48.3979 16.7471 48.2691 16.6922 48.1341 16.6904C47.9992 16.6922 47.8705 16.7471 47.7758 16.8432C47.6811 16.9393 47.6282 17.0688 47.6285 17.2036C47.6285 17.3376 47.6818 17.4661 47.7766 17.5608C47.8715 17.6556 48.0001 17.7088 48.1341 17.7088V17.7088ZM47.9562 17.4807V16.9459V17.4807ZM47.9562 16.9459C47.9562 16.9459 48.3282 16.8786 48.3431 17.0724C48.3511 17.3325 47.9789 17.28 47.9789 17.28L47.9562 16.9459Z" stroke="#EDEEEF" stroke-width="0.935" stroke-miterlimit="2.613"/>
<path d="M48.2324 23.8088L48.3739 24.0244M48.1341 24.2673C48.2005 24.2673 48.2663 24.2542 48.3277 24.2288C48.389 24.2034 48.4448 24.1662 48.4917 24.1193C48.5387 24.0724 48.5759 24.0167 48.6013 23.9554C48.6267 23.8941 48.6398 23.8284 48.6398 23.762C48.6398 23.6274 48.5868 23.4982 48.4921 23.4024C48.3975 23.3065 48.2689 23.2518 48.1341 23.25C47.9994 23.2518 47.8709 23.3065 47.7762 23.4024C47.6816 23.4982 47.6285 23.6274 47.6285 23.762C47.6285 23.8284 47.6417 23.8941 47.6671 23.9554C47.6925 24.0167 47.7297 24.0724 47.7766 24.1193C47.8236 24.1662 47.8794 24.2034 47.9407 24.2288C48.002 24.2542 48.0677 24.2673 48.1341 24.2673V24.2673ZM47.9562 24.0392V23.5043V24.0392ZM47.9562 23.5043C47.9562 23.5043 48.3282 23.437 48.3431 23.6309C48.3511 23.8909 47.9789 23.8385 47.9789 23.8385L47.9562 23.5043Z" stroke="#FFAA00" stroke-width="0.935" stroke-miterlimit="2.613"/>
</svg>
