<svg width="30" height="31" viewBox="0 0 30 31" fill="none" xmlns="http://www.w3.org/2000/svg">
<path d="M25.7154 15.2647C26.1089 15.2647 26.4863 15.1085 26.7645 14.8305C27.0428 14.5525 27.1991 14.1754 27.1991 13.7822V5.8747C27.1991 5.48151 27.0428 5.10443 26.7645 4.82641C26.4863 4.54838 26.1089 4.39219 25.7154 4.39219H17.9326C17.875 4.32487 17.8116 4.26268 17.7432 4.2063C17.7239 4.19052 17.7032 4.17641 17.6815 4.16411L13.1071 1.49559C13.0574 1.46636 13.0029 1.44627 12.9461 1.43628L7.50655 0.447562C7.44548 0.435774 7.38272 0.435774 7.32165 0.447562L2.96747 1.31882V0.93337C2.96747 0.868429 2.95465 0.804125 2.92974 0.744141C2.90483 0.684157 2.86833 0.629671 2.82232 0.583804C2.7763 0.537936 2.72169 0.501587 2.6616 0.476839C2.60151 0.452091 2.53712 0.43943 2.47213 0.43958H0.494197C0.363128 0.43958 0.237427 0.491604 0.144747 0.584207C0.052067 0.676811 0 0.802409 0 0.93337V8.83858C0 8.96955 0.052067 9.09514 0.144747 9.18775C0.237427 9.28035 0.363128 9.33238 0.494197 9.33238H2.47213C2.53712 9.33253 2.60151 9.31986 2.6616 9.29512C2.72169 9.27037 2.7763 9.23402 2.82232 9.18815C2.86833 9.14228 2.90483 9.0878 2.92974 9.02781C2.95465 8.96783 2.96747 8.90353 2.96747 8.83858V7.6617L5.21932 8.78955C5.28832 8.82282 5.36412 8.83961 5.44074 8.83858H8.4082C8.45296 8.83852 8.4975 8.83238 8.5406 8.82034L9.39774 8.582V13.7822C9.39774 14.1754 9.55406 14.5525 9.83231 14.8305C10.1106 15.1085 10.488 15.2647 10.8815 15.2647H25.7154ZM10.3861 8.3083L12.2248 7.79627C12.2674 7.78453 12.3081 7.76687 12.3458 7.74381C12.5203 7.63862 12.6777 7.50749 12.8126 7.35493H26.2107V8.34365H10.3861V8.3083ZM26.2107 5.8747V6.36963H13.3137C13.3411 6.23794 13.3557 6.10387 13.357 5.96935C13.3532 5.76938 13.3197 5.57109 13.2577 5.38091H25.7154C25.7804 5.38076 25.8448 5.39342 25.9049 5.41817C25.9649 5.44292 26.0196 5.47927 26.0656 5.52513C26.1116 5.571 26.1481 5.62549 26.173 5.68547C26.1979 5.74545 26.2107 5.80976 26.2107 5.8747ZM1.97793 8.34479H0.989536V1.42716H1.97907L1.97793 8.34479ZM8.33972 7.85214H5.55601L2.96747 6.55666V2.32693L7.41867 1.43742L12.6791 2.39193L16.1031 4.39219H12.6015C12.2344 4.07535 11.766 3.9002 11.2809 3.8984H8.9024V4.88712H11.2809C11.5676 4.88921 11.8418 5.0039 12.0445 5.20641C12.2472 5.40891 12.362 5.68297 12.3641 5.96935C12.3646 6.19467 12.2916 6.41403 12.1563 6.59429C12.0858 6.70193 11.9947 6.79456 11.8881 6.86684L8.33972 7.85214ZM10.3861 13.7822V9.33466H26.2107V13.7822C26.2107 13.9132 26.1586 14.0388 26.066 14.1314C25.9733 14.224 25.8476 14.276 25.7165 14.276H10.8792C10.7483 14.2757 10.6229 14.2235 10.5305 14.131C10.438 14.0384 10.3861 13.913 10.3861 13.7822Z" fill="#FF6E6A"/>
<path d="M22.2537 13.2861C22.5145 13.2857 22.7705 13.216 22.9956 13.0842C23.221 13.2156 23.4772 13.2852 23.7382 13.2861C23.9992 13.2869 24.2558 13.2189 24.4821 13.089C24.7084 12.9592 24.8964 12.7719 25.0271 12.5462C25.1579 12.3205 25.2267 12.0643 25.2267 11.8036C25.2267 11.5428 25.1579 11.2866 25.0271 11.0609C24.8964 10.8352 24.7084 10.648 24.4821 10.5181C24.2558 10.3882 23.9992 10.3202 23.7382 10.3211C23.4772 10.3219 23.221 10.3915 22.9956 10.5229C22.7985 10.4081 22.5776 10.3402 22.3501 10.3246C22.1225 10.3089 21.8944 10.3459 21.6835 10.4326C21.4726 10.5193 21.2845 10.6535 21.1339 10.8246C20.9833 10.9958 20.8742 11.1993 20.8151 11.4194C20.756 11.6396 20.7485 11.8703 20.7931 12.0938C20.8378 12.3173 20.9334 12.5275 21.0726 12.7081C21.2117 12.8887 21.3907 13.0347 21.5955 13.135C21.8004 13.2352 22.0256 13.2869 22.2537 13.2861ZM22.2537 11.3098C22.3241 11.3101 22.3936 11.3257 22.4574 11.3554C22.5213 11.3852 22.5779 11.4283 22.6235 11.482C22.6713 11.5328 22.729 11.5733 22.7931 11.601C22.8572 11.6287 22.9263 11.643 22.9961 11.643C23.066 11.643 23.135 11.6287 23.1991 11.601C23.2632 11.5733 23.321 11.5328 23.3688 11.482C23.4143 11.4283 23.471 11.3852 23.5348 11.3554C23.5986 11.3257 23.6681 11.3101 23.7386 11.3098C23.8698 11.3098 23.9956 11.3618 24.0884 11.4546C24.1812 11.5473 24.2333 11.673 24.2333 11.8041C24.2333 11.9352 24.1812 12.061 24.0884 12.1537C23.9956 12.2464 23.8698 12.2985 23.7386 12.2985C23.6681 12.2981 23.5986 12.2825 23.5348 12.2528C23.471 12.2231 23.4143 12.1799 23.3688 12.1263C23.3224 12.0731 23.2651 12.0304 23.2008 12.0012C23.1366 11.972 23.0668 11.9568 22.9961 11.9568C22.9255 11.9568 22.8557 11.972 22.7914 12.0012C22.7271 12.0304 22.6699 12.0731 22.6235 12.1263C22.5779 12.1799 22.5213 12.2231 22.4574 12.2528C22.3936 12.2825 22.3241 12.2981 22.2537 12.2985C22.1225 12.2985 21.9966 12.2464 21.9038 12.1537C21.8111 12.061 21.7589 11.9352 21.7589 11.8041C21.7589 11.673 21.8111 11.5473 21.9038 11.4546C21.9966 11.3618 22.1225 11.3098 22.2537 11.3098Z" fill="#FF6E6A"/>
<path d="M13.6948 10.7019H11.4121V11.8423H13.6948V10.7019Z" fill="#FF6E6A"/>
<path d="M14.8361 11.8423H11.4121V12.9827H14.8361V11.8423Z" fill="#FF6E6A"/>
<path d="M15.8256 24.1565H16.8152C16.8152 23.9618 16.7768 23.769 16.7022 23.5891C16.6277 23.4093 16.5184 23.2458 16.3806 23.1082C16.2428 22.9705 16.0792 22.8613 15.8992 22.7868C15.7192 22.7123 15.5263 22.674 15.3314 22.674V22.1802H14.3419V22.674C13.9484 22.674 13.571 22.8302 13.2927 23.1082C13.0145 23.3862 12.8582 23.7633 12.8582 24.1565C12.8582 24.5497 13.0145 24.9267 13.2927 25.2048C13.571 25.4828 13.9484 25.639 14.3419 25.639V26.6277C14.2108 26.6277 14.0851 26.5757 13.9924 26.4831C13.8998 26.3905 13.8477 26.2649 13.8477 26.1339H12.8582C12.8582 26.5271 13.0145 26.9042 13.2927 27.1822C13.571 27.4602 13.9484 27.6164 14.3419 27.6164V28.1102H15.3314V27.6164C15.7249 27.6164 16.1023 27.4602 16.3806 27.1822C16.6588 26.9042 16.8152 26.5271 16.8152 26.1339C16.8152 25.7407 16.6588 25.3636 16.3806 25.0856C16.1023 24.8076 15.7249 24.6514 15.3314 24.6514V23.6627C15.4625 23.6627 15.5882 23.7147 15.6809 23.8073C15.7736 23.8999 15.8256 24.0255 15.8256 24.1565ZM15.8256 26.1328C15.8256 26.2637 15.7736 26.3893 15.6809 26.4819C15.5882 26.5745 15.4625 26.6266 15.3314 26.6266V25.6378C15.3964 25.6378 15.4608 25.6506 15.5208 25.6755C15.5808 25.7004 15.6354 25.7369 15.6813 25.7829C15.7272 25.8288 15.7636 25.8834 15.7883 25.9434C15.8131 26.0035 15.8258 26.0678 15.8256 26.1328ZM14.3419 24.6503C14.2107 24.6503 14.0848 24.5982 13.992 24.5055C13.8992 24.4128 13.8471 24.287 13.8471 24.1559C13.8471 24.0248 13.8992 23.899 13.992 23.8063C14.0848 23.7136 14.2107 23.6615 14.3419 23.6615V24.6503Z" fill="#FF6E6A"/>
<path d="M29.1783 16.2512H27.2003C27.0693 16.2512 26.9436 16.3032 26.8509 16.3958C26.7582 16.4885 26.7061 16.614 26.7061 16.745V17.1305L22.3542 16.2603C22.2932 16.2486 22.2304 16.2486 22.1693 16.2603L16.7263 17.2491C16.6696 17.2591 16.615 17.2791 16.5654 17.3084L11.9909 19.9769C11.9692 19.9892 11.9486 20.0033 11.9293 20.0191C11.7563 20.1576 11.6166 20.333 11.5205 20.5326C11.4243 20.7321 11.374 20.9506 11.3735 21.172V21.6282C10.7652 22.226 10.3223 22.971 10.0878 23.7907C9.85326 24.6103 9.83516 25.4766 10.0352 26.3053C10.2353 27.1341 10.6468 27.8969 11.2295 28.5195C11.8122 29.1422 12.5464 29.6035 13.3605 29.8584C14.1746 30.1134 15.041 30.1534 15.8751 29.9745C16.7093 29.7956 17.4829 29.4039 18.1206 28.8376C18.7583 28.2713 19.2384 27.5496 19.5141 26.7428C19.7898 25.9361 19.8517 25.0718 19.6938 24.234L21.1284 24.6331C21.1723 24.6451 21.2176 24.6512 21.2631 24.6514H24.2306C24.3072 24.6524 24.383 24.6356 24.452 24.6024L26.7038 23.4745V24.6514C26.7038 24.7824 26.7559 24.9079 26.8486 25.0006C26.9413 25.0932 27.067 25.1452 27.198 25.1452H29.1783C29.3093 25.1452 29.435 25.0932 29.5277 25.0006C29.6204 24.9079 29.6725 24.7824 29.6725 24.6514V16.745C29.6725 16.614 29.6204 16.4885 29.5277 16.3958C29.435 16.3032 29.3093 16.2512 29.1783 16.2512ZM18.7921 25.1463C18.7963 25.9967 18.5265 26.8258 18.0224 27.5109C17.5184 28.1961 16.807 28.7009 15.9935 28.9507C15.18 29.2005 14.3076 29.1819 13.5055 28.8978C12.7033 28.6137 12.014 28.0791 11.5396 27.3732C11.0652 26.6672 10.8308 25.8274 10.8712 24.978C10.9116 24.1286 11.2246 23.3148 11.7639 22.6569C12.3032 21.9991 13.0401 21.5322 13.8656 21.3254C14.6911 21.1185 15.5613 21.1827 16.3474 21.5085C16.2777 21.9097 16.3344 22.3226 16.5096 22.6903C16.6848 23.058 16.9699 23.3623 17.3255 23.5612C17.3638 23.5838 17.4048 23.6015 17.4476 23.6136L18.589 23.9318C18.7197 24.3242 18.7864 24.735 18.7864 25.1486L18.7921 25.1463ZM24.1153 23.6638H21.3327L17.7843 22.6785C17.5925 22.5484 17.4474 22.3602 17.3705 22.1417C17.2935 21.9231 17.2887 21.6857 17.3568 21.4642C17.4249 21.2427 17.5622 21.0488 17.7486 20.9111C17.9351 20.7733 18.1608 20.6989 18.3927 20.6988H20.7701V19.71H18.3927C18.0628 19.7108 17.7378 19.7903 17.4449 19.9421C17.1521 20.0938 16.8998 20.3134 16.7092 20.5825C16.1161 20.3339 15.4794 20.2055 14.8363 20.205C14.1332 20.2064 13.4386 20.358 12.799 20.6497L16.9888 18.2047L22.2492 17.2491L26.7004 18.1386V22.3695L24.1153 23.6638ZM28.6806 24.1576H27.6945V17.2399H28.6841L28.6806 24.1576Z" fill="#FF6E6A"/>
</svg>
