<svg width="15" height="7" viewBox="0 0 15 7" fill="none" xmlns="http://www.w3.org/2000/svg">
<path d="M2.69174 6.40001C3.07386 6.48441 3.46889 6.49276 3.85425 6.42462C4.23961 6.35647 4.60777 6.21316 4.93769 6.00285C5.26762 5.79254 5.55285 5.51936 5.77711 5.19891C6.00138 4.87846 6.16026 4.51702 6.24472 4.13521H9.59568V5.12734C9.59568 5.21165 9.61229 5.29515 9.64458 5.37304C9.67687 5.45094 9.7242 5.52171 9.78387 5.58133C9.84354 5.64095 9.91437 5.68824 9.99233 5.72051C10.0703 5.75277 10.1539 5.76938 10.2382 5.76938C10.3226 5.76938 10.4062 5.75277 10.4841 5.72051C10.5621 5.68824 10.6329 5.64095 10.6926 5.58133C10.7523 5.52171 10.7996 5.45094 10.8319 5.37304C10.8642 5.29515 10.8808 5.21165 10.8808 5.12734V4.60275H11.4652V5.12734C11.4652 5.29762 11.5329 5.46093 11.6534 5.58133C11.7739 5.70174 11.9373 5.76938 12.1077 5.76938C12.2782 5.76938 12.4416 5.70174 12.5621 5.58133C12.6826 5.46093 12.7503 5.29762 12.7503 5.12734V4.13406H13.5333C13.7037 4.13406 13.8671 4.06641 13.9876 3.94601C14.1081 3.8256 14.1758 3.6623 14.1758 3.49202C14.1758 3.32174 14.1081 3.15843 13.9876 3.03802C13.8671 2.91762 13.7037 2.84997 13.5333 2.84997H6.24242C6.12734 2.32853 5.87405 1.8476 5.50906 1.45756C5.14406 1.06753 4.68081 0.782747 4.16783 0.633037C3.65485 0.483328 3.11099 0.4742 2.59327 0.606623C2.07555 0.739045 1.60301 1.00814 1.22512 1.38572C0.847232 1.76329 0.577932 2.23546 0.4454 2.75275C0.312867 3.27005 0.321968 3.81344 0.471801 4.32599C0.621634 4.83855 0.906688 5.3014 1.29705 5.66609C1.6874 6.03078 2.16871 6.28388 2.69059 6.39886L2.69174 6.40001ZM0.742332 3.93108C0.684777 3.5909 0.694859 3.24273 0.771973 2.90644C0.849086 2.57015 0.991745 2.25232 1.19179 1.97112C1.39183 1.68992 1.64535 1.45084 1.93786 1.26753C2.23038 1.08422 2.55616 0.960277 2.89661 0.90277C3.23707 0.845263 3.58553 0.855319 3.9221 0.932369C4.25867 1.00942 4.57674 1.15194 4.85818 1.35182C5.13961 1.5517 5.37889 1.805 5.56235 2.09728C5.74581 2.38955 5.86985 2.71508 5.92741 3.05525C5.93417 3.09604 5.95523 3.1331 5.9868 3.15983C6.01836 3.18656 6.05837 3.20124 6.09975 3.20123H13.5356C13.613 3.20123 13.6873 3.23197 13.7421 3.28672C13.7969 3.34147 13.8277 3.41574 13.8277 3.49316C13.8277 3.57059 13.7969 3.64484 13.7421 3.69959C13.6873 3.75434 13.613 3.7851 13.5356 3.7851H12.5768C12.5537 3.78495 12.5308 3.78938 12.5094 3.79815C12.488 3.80692 12.4686 3.81987 12.4522 3.83621C12.4359 3.85255 12.4229 3.87196 12.4141 3.89333C12.4054 3.91471 12.4009 3.93761 12.401 3.96071V5.12734C12.401 5.12734 12.401 5.13419 12.401 5.13761C12.4004 5.17595 12.3921 5.21378 12.3768 5.24894C12.3615 5.2841 12.3395 5.31591 12.3118 5.34254C12.2842 5.36917 12.2517 5.39011 12.216 5.40416C12.1803 5.4182 12.1421 5.42508 12.1037 5.42441C12.0654 5.42374 12.0275 5.41552 11.9923 5.40022C11.9571 5.38493 11.9253 5.36285 11.8987 5.33527C11.872 5.30768 11.851 5.27513 11.837 5.23946C11.8229 5.20378 11.816 5.16568 11.8167 5.12734V4.42714C11.8164 4.38076 11.7978 4.33639 11.7648 4.3037C11.7319 4.27101 11.6874 4.25266 11.6409 4.25266H10.705C10.682 4.25266 10.6592 4.25721 10.638 4.26605C10.6167 4.27489 10.5974 4.28785 10.5811 4.30417C10.5649 4.32049 10.5521 4.33986 10.5434 4.36116C10.5347 4.38246 10.5303 4.40527 10.5304 4.42827V5.12847C10.5304 5.13531 10.5304 5.14102 10.5304 5.14673C10.528 5.22415 10.4949 5.29745 10.4384 5.35049C10.3819 5.40353 10.3066 5.43196 10.2291 5.42954C10.1516 5.42712 10.0783 5.39404 10.0252 5.33758C9.97209 5.28112 9.94362 5.2059 9.94604 5.12847V3.96071C9.94604 3.91413 9.92752 3.86947 9.89456 3.83654C9.8616 3.8036 9.8169 3.7851 9.77028 3.7851H6.09749C6.05601 3.78536 6.01593 3.80027 5.98439 3.82719C5.95285 3.85412 5.93188 3.89131 5.92515 3.93221C5.82709 4.54876 5.51214 5.11016 5.03693 5.51549C4.56172 5.92081 3.9574 6.14347 3.33259 6.14347C2.70778 6.14347 2.10346 5.92081 1.62825 5.51549C1.15304 5.11016 0.838123 4.54876 0.740068 3.93221L0.742332 3.93108Z" fill="black" fill-opacity="0.58"/>
<path d="M1.9385 4.74761C1.90714 4.78184 1.89063 4.82708 1.89256 4.87345C1.89448 4.91982 1.91468 4.96354 1.94877 4.99507C2.32142 5.34084 2.80969 5.53542 3.31821 5.54078C3.82674 5.54614 4.319 5.3619 4.69887 5.02406C5.07874 4.68621 5.31893 4.21903 5.37253 3.71373C5.42613 3.20843 5.28931 2.70131 4.98877 2.2914C4.68822 1.8815 4.24554 1.59825 3.74719 1.49698C3.24884 1.3957 2.73062 1.48367 2.2937 1.74371C1.85679 2.00374 1.53257 2.41718 1.38438 2.90326C1.23618 3.38933 1.27464 3.91315 1.49225 4.37241C1.51453 4.41029 1.55023 4.43846 1.59228 4.45134C1.63433 4.46421 1.67967 4.46086 1.71938 4.44196C1.75908 4.42305 1.79026 4.38997 1.80673 4.34923C1.82321 4.30848 1.82382 4.26305 1.80841 4.22189C1.6275 3.84311 1.59431 3.41058 1.71534 3.00869C1.83636 2.6068 2.10293 2.26438 2.46298 2.04824C2.82303 1.8321 3.25074 1.75774 3.66269 1.83969C4.07464 1.92164 4.44128 2.154 4.69103 2.49144C4.94078 2.82889 5.05575 3.2472 5.0135 3.66476C4.97124 4.08232 4.7748 4.46919 4.46251 4.74985C4.15021 5.03052 3.74445 5.18486 3.32441 5.18275C2.90438 5.18065 2.50021 5.02225 2.19074 4.73847C2.15648 4.70714 2.1112 4.69064 2.0648 4.69257C2.01839 4.69449 1.97461 4.71468 1.94306 4.74874L1.9385 4.74761Z" fill="black" fill-opacity="0.58"/>
</svg>
