<svg width="41" height="33" viewBox="0 0 41 33" fill="none" xmlns="http://www.w3.org/2000/svg">
<path d="M39.8006 0.32666H26.9834C26.8045 0.32666 26.6329 0.397667 26.5064 0.524062C26.3799 0.650456 26.3089 0.821884 26.3089 1.00063V3.02255H24.2853C24.1064 3.02255 23.9348 3.09356 23.8083 3.21995C23.6818 3.34635 23.6108 3.51778 23.6108 3.69653V11.3679L18.7293 13.8073H0.674528C0.495632 13.8073 0.324063 13.8783 0.197565 14.0047C0.0710661 14.131 0 14.3025 0 14.4812L0 32.0056C0 32.1844 0.0710661 32.3558 0.197565 32.4822C0.324063 32.6086 0.495632 32.6796 0.674528 32.6796H14.1662C14.3445 32.6787 14.5152 32.6073 14.641 32.481C14.7667 32.3547 14.8373 32.1838 14.8373 32.0056V30.1046L22.1419 31.3214C22.1796 31.3276 22.2178 31.3306 22.256 31.3305H32.3796C32.8512 31.3292 33.3142 31.204 33.7221 30.9674C34.1299 30.7308 34.4684 30.3912 34.7034 29.9826H37.1002C37.1888 29.9826 37.2765 29.9652 37.3583 29.9313C37.4401 29.8974 37.5145 29.8478 37.5771 29.7852C37.6398 29.7226 37.6895 29.6483 37.7234 29.5665C37.7573 29.4848 37.7747 29.3971 37.7747 29.3086V27.2878H39.7983C39.9772 27.2878 40.1487 27.2168 40.2752 27.0904C40.4017 26.9641 40.4728 26.7926 40.4728 26.6139V1.00063C40.4728 0.822278 40.4021 0.651196 40.2761 0.524867C40.15 0.398538 39.9791 0.327264 39.8006 0.32666ZM13.4917 31.3317H1.34906V15.1518H13.4917V31.3317ZM27.6579 1.6746H39.126V16.4256C39.1124 15.9674 38.9814 15.5203 38.7454 15.1271C38.5094 14.734 38.1763 14.4079 37.7781 14.1802V3.69653C37.7781 3.51778 37.7071 3.34635 37.5806 3.21995C37.4541 3.09356 37.2825 3.02255 37.1036 3.02255H27.6579V1.6746ZM24.9598 4.3705H36.4268V13.8073H35.0777V7.73922C35.0777 7.56047 35.0067 7.38904 34.8802 7.26265C34.7537 7.13625 34.5821 7.06525 34.4032 7.06525C34.3146 7.06525 34.2269 7.04781 34.1451 7.01394C34.0632 6.98007 33.9889 6.93043 33.9262 6.86784C33.8636 6.80526 33.8139 6.73096 33.78 6.64919C33.7461 6.56742 33.7287 6.47978 33.7287 6.39127C33.7287 6.21252 33.6576 6.0411 33.5311 5.9147C33.4046 5.78831 33.233 5.7173 33.0541 5.7173H28.3324C28.1536 5.7173 27.982 5.78831 27.8555 5.9147C27.729 6.0411 27.6579 6.21252 27.6579 6.39127C27.6579 6.57002 27.5869 6.74145 27.4604 6.86784C27.3339 6.99424 27.1623 7.06525 26.9834 7.06525C26.8045 7.06525 26.6329 7.13625 26.5064 7.26265C26.3799 7.38904 26.3089 7.56047 26.3089 7.73922V13.805H24.9598V4.3705ZM33.7298 8.29915V13.8061H27.6579V8.29915C27.9422 8.19793 28.2004 8.03481 28.4138 7.82159C28.6271 7.60838 28.7904 7.35042 28.8917 7.06639H32.4949C32.5962 7.35042 32.7595 7.60838 32.9728 7.82159C33.1862 8.03481 33.4444 8.19793 33.7287 8.29915H33.7298ZM36.4279 28.6346H35.0777C35.0782 28.1005 34.9193 27.5784 34.6212 27.135C35.0098 26.9989 35.362 26.7756 35.6509 26.4825C35.9398 26.1893 36.1577 25.8339 36.2879 25.4436C36.4181 25.0532 36.4572 24.6383 36.4021 24.2306C36.3471 23.8228 36.1993 23.4331 35.9703 23.0912C36.129 23.0337 36.2819 22.9612 36.4268 22.8745L36.4279 28.6346ZM36.4279 17.8499H33.7287C33.5498 17.8499 33.3782 17.921 33.2517 18.0473C33.1252 18.1737 33.0541 18.3452 33.0541 18.5239C33.0541 18.7027 33.1252 18.8741 33.2517 19.0005C33.3782 19.1269 33.5498 19.1979 33.7287 19.1979H35.0777C35.4355 19.1979 35.7787 19.3399 36.0317 19.5927C36.2846 19.8455 36.4268 20.1883 36.4268 20.5458C36.4268 20.9033 36.2846 21.2462 36.0317 21.499C35.7787 21.7518 35.4355 21.8938 35.0777 21.8938H32.3796C32.2007 21.8938 32.0292 21.9648 31.9027 22.0912C31.7762 22.2176 31.7051 22.389 31.7051 22.5678C31.7051 22.7465 31.7762 22.9179 31.9027 23.0443C32.0292 23.1707 32.2007 23.2417 32.3796 23.2417H33.7287C34.0865 23.2417 34.4296 23.3837 34.6826 23.6365C34.9356 23.8893 35.0777 24.2322 35.0777 24.5897C35.0777 24.9472 34.9356 25.29 34.6826 25.5428C34.4296 25.7956 34.0865 25.9376 33.7287 25.9376H31.0306C30.8517 25.9376 30.6801 26.0086 30.5536 26.135C30.4271 26.2614 30.356 26.4328 30.356 26.6116C30.356 26.7903 30.4271 26.9618 30.5536 27.0882C30.6801 27.2146 30.8517 27.2856 31.0306 27.2856H32.3796C32.7374 27.2856 33.0805 27.4276 33.3335 27.6804C33.5865 27.9332 33.7287 28.276 33.7287 28.6335C33.7287 28.991 33.5865 29.3339 33.3335 29.5866C33.0805 29.8394 32.7374 29.9815 32.3796 29.9815H22.3176L14.8373 28.7384V15.1518H18.8845C18.9891 15.1519 19.0922 15.1277 19.1858 15.0811L23.6108 12.871V14.4767C23.6108 14.5652 23.6282 14.6528 23.6621 14.7346C23.696 14.8164 23.7457 14.8906 23.8083 14.9532C23.871 15.0158 23.9453 15.0655 24.0272 15.0993C24.109 15.1332 24.1967 15.1506 24.2853 15.1506H36.4268C36.6039 15.1506 36.7794 15.1855 36.943 15.2532C37.1067 15.321 37.2554 15.4203 37.3807 15.5454C37.506 15.6706 37.6054 15.8192 37.6731 15.9827C37.7409 16.1463 37.7758 16.3216 37.7758 16.4986C37.7758 16.6756 37.7409 16.8509 37.6731 17.0144C37.6054 17.178 37.506 17.3266 37.3807 17.4517C37.2554 17.5769 37.1067 17.6762 36.943 17.7439C36.7794 17.8117 36.6039 17.8465 36.4268 17.8465L36.4279 17.8499ZM37.7781 25.9399V18.8318C38.1765 18.6045 38.5098 18.2787 38.746 17.8857C38.9822 17.4928 39.1135 17.0457 39.1272 16.5875V25.9388L37.7781 25.9399Z" fill="#FF6E6A"/>
<path d="M9.44341 24.5918C8.90977 24.5918 8.38812 24.7499 7.94442 25.0461C7.50071 25.3424 7.15489 25.7634 6.95068 26.256C6.74647 26.7486 6.69304 27.2907 6.79715 27.8136C6.90125 28.3366 7.15822 28.817 7.53556 29.194C7.91289 29.571 8.39365 29.8278 8.91704 29.9318C9.44042 30.0358 9.98291 29.9824 10.4759 29.7784C10.9689 29.5743 11.3903 29.2288 11.6868 28.7854C11.9833 28.3421 12.1415 27.8209 12.1415 27.2877C12.1415 26.5727 11.8572 25.887 11.3513 25.3814C10.8453 24.8758 10.159 24.5918 9.44341 24.5918ZM9.44341 28.6356C9.17659 28.6356 8.91576 28.5566 8.69391 28.4085C8.47206 28.2603 8.29915 28.0498 8.19704 27.8035C8.09494 27.5572 8.06822 27.2862 8.12028 27.0247C8.17233 26.7632 8.30081 26.5231 8.48948 26.3345C8.67815 26.146 8.91853 26.0177 9.18022 25.9656C9.44191 25.9136 9.71316 25.9403 9.95967 26.0423C10.2062 26.1444 10.4169 26.3171 10.5651 26.5388C10.7133 26.7605 10.7925 27.0211 10.7925 27.2877C10.7925 27.4647 10.7576 27.64 10.6898 27.8035C10.622 27.9671 10.5226 28.1157 10.3973 28.2408C10.2721 28.366 10.1233 28.4653 9.95967 28.533C9.79599 28.6008 9.62057 28.6356 9.44341 28.6356Z" fill="#FF6E6A"/>
</svg>
