<svg width="33" height="33" viewBox="0 0 33 33" fill="none" xmlns="http://www.w3.org/2000/svg">
<g opacity="0.6">
<path opacity="0.6" d="M1.28389 9.34211H4.45109C4.59093 9.34211 4.72505 9.2866 4.82394 9.18779C4.92283 9.08899 4.97838 8.95498 4.97838 8.81525V5.12265H8.67287C8.81272 5.12265 8.94684 5.06715 9.04572 4.96834C9.14461 4.86953 9.20016 4.73552 9.20016 4.59579V1.43006C9.20016 1.29033 9.14461 1.15632 9.04572 1.05751C8.94684 0.958707 8.81272 0.903198 8.67287 0.903198H1.28389C1.14404 0.903198 1.00992 0.958707 0.911038 1.05751C0.812151 1.15632 0.756597 1.29033 0.756597 1.43006V8.81297C0.756296 8.88235 0.769713 8.9511 0.796078 9.01529C0.822442 9.07947 0.861235 9.13782 0.910229 9.18699C0.959222 9.23616 1.01745 9.27517 1.08158 9.30179C1.1457 9.32841 1.21445 9.34211 1.28389 9.34211Z" fill="black"/>
<path opacity="0.6" d="M8.67287 28.3252H4.97838V24.6326C4.97838 24.4928 4.92282 24.3588 4.82394 24.26C4.72505 24.1612 4.59093 24.1057 4.45108 24.1057H1.28389C1.14404 24.1057 1.00992 24.1612 0.911033 24.26C0.812146 24.3588 0.756592 24.4928 0.756592 24.6326V32.0155C0.756592 32.1552 0.812146 32.2892 0.911033 32.388C1.00992 32.4869 1.14404 32.5424 1.28389 32.5424H8.67287C8.81272 32.5424 8.94684 32.4869 9.04572 32.388C9.14461 32.2892 9.20016 32.1552 9.20016 32.0155V28.852C9.20016 28.7123 9.14461 28.5783 9.04572 28.4795C8.94684 28.3807 8.81272 28.3252 8.67287 28.3252Z" fill="black"/>
<path opacity="0.6" d="M31.8946 0.903198H24.5056C24.4363 0.903198 24.3678 0.916826 24.3038 0.943303C24.2398 0.969781 24.1817 1.00859 24.1327 1.05751C24.0838 1.10644 24.0449 1.16452 24.0184 1.22844C23.9919 1.29236 23.9783 1.36087 23.9783 1.43006V4.59466C23.9783 4.66384 23.9919 4.73235 24.0184 4.79628C24.0449 4.8602 24.0838 4.91828 24.1327 4.9672C24.1817 5.01613 24.2398 5.05493 24.3038 5.08141C24.3678 5.10789 24.4363 5.12152 24.5056 5.12152H28.2001V8.81297C28.2001 8.95271 28.2556 9.08672 28.3545 9.18552C28.4534 9.28433 28.5875 9.33984 28.7274 9.33984H31.8934C31.9627 9.33984 32.0312 9.32621 32.0952 9.29973C32.1592 9.27325 32.2173 9.23445 32.2663 9.18552C32.3152 9.1366 32.3541 9.07852 32.3806 9.0146C32.4071 8.95067 32.4207 8.88216 32.4207 8.81297V1.43006C32.4207 1.29053 32.3653 1.15669 32.2667 1.05792C32.168 0.959142 32.0342 0.9035 31.8946 0.903198V0.903198Z" fill="black"/>
<path opacity="0.6" d="M31.8946 24.1057H28.7285C28.6593 24.1057 28.5907 24.1193 28.5267 24.1458C28.4628 24.1723 28.4046 24.2111 28.3557 24.26C28.3067 24.3089 28.2679 24.367 28.2414 24.431C28.2149 24.4949 28.2012 24.5634 28.2012 24.6326V28.3252H24.5056C24.4363 28.3252 24.3678 28.3388 24.3038 28.3653C24.2398 28.3918 24.1817 28.4306 24.1327 28.4795C24.0838 28.5284 24.0449 28.5865 24.0184 28.6504C23.9919 28.7143 23.9783 28.7828 23.9783 28.852V32.0155C23.9783 32.0847 23.9919 32.1532 24.0184 32.2171C24.0449 32.281 24.0838 32.3391 24.1327 32.388C24.1817 32.437 24.2398 32.4758 24.3038 32.5023C24.3678 32.5287 24.4363 32.5424 24.5056 32.5424H31.8946C32.0344 32.5424 32.1685 32.4869 32.2674 32.388C32.3663 32.2892 32.4219 32.1552 32.4219 32.0155V24.6326C32.4219 24.4928 32.3663 24.3588 32.2674 24.26C32.1685 24.1612 32.0344 24.1057 31.8946 24.1057Z" fill="black"/>
<path opacity="0.6" d="M31.8945 16.197H25.5613V8.28492C25.5613 8.21564 25.5476 8.14703 25.521 8.08304C25.4944 8.01904 25.4555 7.96091 25.4064 7.91197C25.3573 7.86303 25.2991 7.82425 25.235 7.79784C25.1708 7.77143 25.1022 7.75791 25.0328 7.75806H8.1411C8.00125 7.75806 7.86713 7.81357 7.76824 7.91237C7.66935 8.01118 7.6138 8.14519 7.6138 8.28492V16.197H1.28397C1.14397 16.197 1.00971 16.2525 0.910712 16.3515C0.811718 16.4504 0.756104 16.5845 0.756104 16.7244C0.756104 16.8643 0.811718 16.9984 0.910712 17.0974C1.00971 17.1963 1.14397 17.2518 1.28397 17.2518H7.61722V25.1616C7.61722 25.3013 7.67278 25.4353 7.77167 25.5342C7.87055 25.633 8.00467 25.6885 8.14452 25.6885H25.0328C25.1727 25.6885 25.3068 25.633 25.4057 25.5342C25.5046 25.4353 25.5601 25.3013 25.5601 25.1616V17.2496H31.8934C32.0334 17.2496 32.1676 17.194 32.2666 17.0951C32.3656 16.9962 32.4212 16.862 32.4212 16.7221C32.4212 16.5822 32.3656 16.4481 32.2666 16.3492C32.1676 16.2503 32.0334 16.1947 31.8934 16.1947L31.8945 16.197ZM24.5055 24.6359H8.67296V17.2496H24.5055V24.6359Z" fill="black"/>
</g>
</svg>
