<svg width="23" height="30" viewBox="0 0 23 30" fill="none" xmlns="http://www.w3.org/2000/svg">
<path d="M21.7925 1.2245C21.5553 1.11559 21.2914 1.07849 21.0334 1.11781C20.7754 1.15713 20.5346 1.27114 20.3407 1.44574L18.4575 3.11072L15.8964 0.818524C15.6479 0.596124 15.326 0.473145 14.9924 0.473145C14.6588 0.473145 14.337 0.596124 14.0885 0.818524L11.5296 3.10844L8.96959 0.818524C8.72112 0.596124 8.39925 0.473145 8.06566 0.473145C7.73206 0.473145 7.4102 0.596124 7.16172 0.818524L4.59943 3.11072L2.71622 1.44574C2.52159 1.27285 2.28096 1.16004 2.02348 1.121C1.766 1.08195 1.50271 1.11833 1.2655 1.22574C1.02828 1.33314 0.82733 1.50696 0.686965 1.72615C0.5466 1.94534 0.472848 2.20048 0.474641 2.46069V27.4354C0.473245 27.6958 0.547386 27.9511 0.688102 28.1703C0.828817 28.3895 1.03008 28.5633 1.26755 28.6707C1.50503 28.778 1.76855 28.8144 2.02624 28.7753C2.28394 28.7361 2.52478 28.6233 2.71965 28.4503L4.60171 26.7853L7.16286 29.0741C7.41134 29.2965 7.73321 29.4195 8.0668 29.4195C8.40039 29.4195 8.72226 29.2965 8.97074 29.0741L11.5296 26.7865L14.0885 29.073C14.3371 29.2951 14.6589 29.418 14.9924 29.418C15.3259 29.418 15.6478 29.2951 15.8964 29.073L18.4587 26.7842L20.343 28.4492C20.5376 28.6221 20.7783 28.7349 21.0357 28.7739C21.2932 28.813 21.5565 28.7766 21.7937 28.6692C22.0309 28.5618 22.2319 28.388 22.3723 28.1688C22.5126 27.9496 22.5864 27.6944 22.5846 27.4342V2.46069C22.588 2.19983 22.5147 1.9437 22.3739 1.72399C22.2332 1.50428 22.031 1.33062 21.7925 1.2245ZM19.3546 25.7681C19.1067 25.5474 18.7862 25.4254 18.4541 25.4254C18.122 25.4254 17.8015 25.5474 17.5536 25.7681L14.9924 28.0569L12.4335 25.7704C12.1851 25.548 11.8632 25.425 11.5296 25.425C11.196 25.425 10.8741 25.548 10.6257 25.7704L8.06566 28.0614L5.50336 25.7727C5.25628 25.552 4.93651 25.4301 4.60513 25.4301C4.27375 25.4301 3.95398 25.552 3.7069 25.7727L1.82941 27.4376V23.8203L1.8237 2.46069L3.70462 4.12567C3.95256 4.34641 4.27305 4.46838 4.60513 4.46838C4.93721 4.46838 5.25771 4.34641 5.50564 4.12567L8.0668 1.8369L10.6257 4.12339C10.8741 4.34579 11.196 4.46877 11.5296 4.46877C11.8632 4.46877 12.1851 4.34579 12.4335 4.12339L14.9936 1.83234L17.5547 4.12567C17.8018 4.34632 18.1216 4.46829 18.4529 4.46829C18.7843 4.46829 19.1041 4.34632 19.3512 4.12567L21.2287 2.46069V19.6271L21.2355 27.4331L19.3546 25.7681Z" fill="#C3CBCE"/>
<path d="M17.9632 14.2695H5.1004C4.92045 14.2695 4.74786 14.341 4.62061 14.4681C4.49336 14.5953 4.42188 14.7677 4.42188 14.9475C4.42188 15.1273 4.49336 15.2998 4.62061 15.4269C4.74786 15.554 4.92045 15.6255 5.1004 15.6255H17.9632C18.1432 15.6255 18.3158 15.554 18.443 15.4269C18.5703 15.2998 18.6418 15.1273 18.6418 14.9475C18.6418 14.7677 18.5703 14.5953 18.443 14.4681C18.3158 14.341 18.1432 14.2695 17.9632 14.2695Z" fill="#C3CBCE"/>
<path d="M11.8548 10.2029H5.1004C4.92045 10.2029 4.74786 10.2743 4.62061 10.4015C4.49336 10.5286 4.42188 10.7011 4.42188 10.8809C4.42188 11.0607 4.49336 11.2331 4.62061 11.3603C4.74786 11.4874 4.92045 11.5588 5.1004 11.5588H11.8548C12.0348 11.5588 12.2073 11.4874 12.3346 11.3603C12.4618 11.2331 12.5333 11.0607 12.5333 10.8809C12.5333 10.7011 12.4618 10.5286 12.3346 10.4015C12.2073 10.2743 12.0348 10.2029 11.8548 10.2029Z" fill="#C3CBCE"/>
<path d="M17.9634 18.335H5.10056C4.92076 18.335 4.74832 18.4063 4.62118 18.5334C4.49404 18.6604 4.42261 18.8327 4.42261 19.0123C4.42261 19.192 4.49404 19.3643 4.62118 19.4913C4.74832 19.6183 4.92076 19.6897 5.10056 19.6897H17.9634C18.1432 19.6897 18.3156 19.6183 18.4428 19.4913C18.5699 19.3643 18.6413 19.192 18.6413 19.0123C18.6413 18.8327 18.5699 18.6604 18.4428 18.5334C18.3156 18.4063 18.1432 18.335 17.9634 18.335Z" fill="#C3CBCE"/>
</svg>
