<svg width="24" height="25" viewBox="0 0 24 25" fill="none" xmlns="http://www.w3.org/2000/svg">
<path d="M14.3833 9.63672C14.2917 9.63672 14.2021 9.66387 14.1259 9.71474C14.0497 9.76562 13.9903 9.83793 13.9552 9.92253C13.9201 10.0071 13.9109 10.1002 13.9288 10.1901C13.9467 10.2799 13.9908 10.3624 14.0556 10.4271C14.1205 10.4919 14.203 10.536 14.2929 10.5538C14.3828 10.5717 14.476 10.5625 14.5606 10.5275C14.6453 10.4924 14.7177 10.4331 14.7686 10.3569C14.8195 10.2808 14.8467 10.1913 14.8467 10.0997C14.8467 10.0389 14.8347 9.9787 14.8114 9.92253C14.7881 9.86636 14.754 9.81532 14.711 9.77232C14.6679 9.72933 14.6168 9.69522 14.5606 9.67196C14.5044 9.64869 14.4442 9.63672 14.3833 9.63672Z" fill="black"/>
<path d="M23.1921 21.3757L17.0129 15.2016C18.019 13.6915 18.554 11.9171 18.5503 10.1029C18.5503 8.27328 18.0073 6.48472 16.99 4.96342C15.9726 3.44212 14.5267 2.25641 12.8349 1.55624C11.1431 0.856059 9.28156 0.672861 7.48558 1.02981C5.68961 1.38676 4.0399 2.26782 2.74508 3.56158C1.45026 4.85533 0.56847 6.50368 0.211229 8.29818C-0.146012 10.0927 0.0373367 11.9527 0.73809 13.6431C1.43884 15.3335 2.62553 16.7783 4.14808 17.7948C5.67063 18.8113 7.46067 19.3538 9.29183 19.3538C11.1074 19.3575 12.8833 18.8229 14.3947 17.8177L16.1067 19.5283L20.5762 23.9895C20.7453 24.1726 20.9497 24.3198 21.1771 24.422C21.4045 24.5243 21.6502 24.5795 21.8996 24.5846C22.1489 24.5896 22.3967 24.5442 22.628 24.4512C22.8593 24.3581 23.0695 24.2193 23.2458 24.0432C23.4221 23.867 23.561 23.657 23.6541 23.4259C23.7473 23.1947 23.7927 22.9471 23.7876 22.698C23.7826 22.4489 23.7273 22.2034 23.625 21.9761C23.5226 21.7489 23.3754 21.5447 23.1921 21.3757ZM14.1756 16.8427C12.4767 18.0726 10.3764 18.6177 8.29329 18.3692C6.21016 18.1208 4.29721 17.0972 2.93576 15.5024C1.5743 13.9075 0.86434 11.8586 0.947383 9.76408C1.03043 7.66953 1.90038 5.68317 3.38383 4.20094C4.86728 2.71871 6.85527 1.84947 8.95155 1.7665C11.0478 1.68352 13.0984 2.3929 14.6946 3.75323C16.2907 5.11357 17.3152 7.02494 17.5638 9.10636C17.8124 11.1878 17.2669 13.2864 16.036 14.9838C15.5179 15.6966 14.8904 16.3232 14.1767 16.8404L14.1756 16.8427ZM15.1469 17.2623C15.6257 16.871 16.0643 16.4328 16.456 15.9543L17.7696 17.2669C17.37 17.7381 16.9322 18.1756 16.4605 18.5749L15.1469 17.2623ZM22.5359 23.3372C22.4499 23.4231 22.3479 23.4912 22.2356 23.5377C22.1232 23.5842 22.0029 23.6081 21.8813 23.6081C21.7597 23.6081 21.6394 23.5842 21.5271 23.5377C21.4147 23.4912 21.3127 23.4231 21.2267 23.3372L17.1179 19.2318C17.5869 18.8296 18.0246 18.3924 18.4271 17.9238L22.5359 22.0292C22.622 22.115 22.6903 22.2169 22.7369 22.3292C22.7835 22.4414 22.8075 22.5617 22.8075 22.6832C22.8075 22.8047 22.7835 22.925 22.7369 23.0372C22.6903 23.1495 22.622 23.2514 22.5359 23.3372Z" fill="black"/>
<path d="M9.29068 2.69824C7.82567 2.69824 6.39355 3.13231 5.17543 3.94556C3.95732 4.75881 3.00791 5.91471 2.44727 7.2671C1.88663 8.61948 1.73994 10.1076 2.02575 11.5433C2.31156 12.979 3.01704 14.2977 4.05296 15.3328C5.08888 16.3679 6.40873 17.0728 7.8456 17.3583C9.28247 17.6439 10.7718 17.4973 12.1253 16.9372C13.4788 16.377 14.6357 15.4284 15.4496 14.2113C16.2635 12.9941 16.6979 11.5632 16.6979 10.0994C16.6949 8.13741 15.9135 6.25665 14.5251 4.86932C13.1366 3.48199 11.2543 2.70126 9.29068 2.69824ZM9.29068 16.5745C8.00896 16.5745 6.75602 16.1948 5.69031 15.4833C4.6246 14.7718 3.79398 13.7605 3.30349 12.5773C2.813 11.3941 2.68466 10.0922 2.93471 8.83616C3.18476 7.5801 3.80197 6.42634 4.70828 5.52077C5.6146 4.6152 6.76931 3.9985 8.0264 3.74866C9.28349 3.49881 10.5865 3.62705 11.7707 4.11713C12.9548 4.60722 13.9669 5.43716 14.679 6.50199C15.3911 7.56682 15.7712 8.81873 15.7712 10.0994C15.7691 11.8161 15.0856 13.4618 13.8707 14.6757C12.6559 15.8896 11.0088 16.5724 9.29068 16.5745Z" fill="black"/>
<path d="M14.4781 8.11425C14.0749 7.06613 13.3635 6.16456 12.4375 5.52824C11.5116 4.89191 10.4145 4.55065 9.2907 4.5494C9.22799 4.54629 9.16529 4.55594 9.10643 4.57777C9.04756 4.5996 8.99376 4.63317 8.94828 4.67642C8.90279 4.71966 8.86658 4.7717 8.84183 4.82935C8.81709 4.88701 8.80432 4.94909 8.80432 5.01183C8.80432 5.07456 8.81709 5.13665 8.84183 5.1943C8.86658 5.25196 8.90279 5.30399 8.94828 5.34724C8.99376 5.39049 9.04756 5.42404 9.10643 5.44588C9.16529 5.46771 9.22799 5.47736 9.2907 5.47425C10.2266 5.47864 11.1396 5.76448 11.9107 6.29453C12.6818 6.82458 13.2753 7.5743 13.6141 8.44611C13.6337 8.5057 13.6652 8.5607 13.7067 8.60775C13.7482 8.65481 13.7989 8.69294 13.8556 8.71984C13.9123 8.74674 13.9739 8.76183 14.0366 8.76422C14.0994 8.76661 14.1619 8.75623 14.2206 8.73373C14.2792 8.71122 14.3326 8.67705 14.3776 8.63329C14.4225 8.58953 14.4581 8.53708 14.4822 8.47915C14.5063 8.42122 14.5184 8.359 14.5176 8.29627C14.5169 8.23355 14.5035 8.17162 14.4781 8.11425Z" fill="black"/>
</svg>
