<svg width="26" height="26" viewBox="0 0 26 26" fill="none" xmlns="http://www.w3.org/2000/svg">
<path d="M24.9952 22.6887H0.531862C0.390803 22.6887 0.255522 22.7447 0.155779 22.8444C0.0560353 22.944 0 23.0792 0 23.2202C0.000905995 23.9246 0.281373 24.5999 0.779894 25.098C1.27841 25.5962 1.95429 25.8764 2.65931 25.8773H22.8689C23.5739 25.8764 24.2498 25.5962 24.7483 25.098C25.2468 24.5999 25.5273 23.9246 25.5282 23.2202C25.5282 23.1503 25.5144 23.0811 25.4876 23.0165C25.4608 22.952 25.4215 22.8933 25.372 22.844C25.3225 22.7946 25.2638 22.7555 25.1991 22.7288C25.1344 22.7022 25.0652 22.6886 24.9952 22.6887ZM22.8678 24.8145H2.65931C2.32944 24.8141 2.00776 24.7118 1.73842 24.5215C1.46909 24.3312 1.2653 24.0622 1.15503 23.7516H24.3732C24.2629 24.0622 24.0591 24.3312 23.7898 24.5215C23.5205 24.7118 23.1988 24.8141 22.8689 24.8145H22.8678Z" fill="#FF6E6A"/>
<path d="M3.19358 6.74707C2.76979 6.74707 2.36337 6.91528 2.06371 7.21469C1.76405 7.5141 1.5957 7.92018 1.5957 8.34362V23.2224H2.65943V8.34362C2.65943 8.20267 2.71547 8.06752 2.81521 7.96786C2.91495 7.8682 3.05023 7.8122 3.19129 7.8122H4.25502V6.74707H3.19358Z" fill="#FF6E6A"/>
<path d="M22.3381 6.74707H21.2744V7.80993H22.3381C22.4792 7.80993 22.6145 7.8659 22.7142 7.96556C22.814 8.06522 22.87 8.2004 22.87 8.34134V23.2201H23.936V8.34362C23.936 7.92018 23.7676 7.5141 23.468 7.21469C23.1683 6.91528 22.7619 6.74707 22.3381 6.74707Z" fill="#FF6E6A"/>
<path d="M14.8909 23.2202H10.636V24.2831H14.8909V23.2202Z" fill="#FF6E6A"/>
<path d="M18.6141 0.370118H10.1043C9.96337 0.370427 9.82831 0.426619 9.7288 0.526352L5.46935 4.7766C5.36954 4.87602 5.3133 5.01096 5.31299 5.15179V17.906C5.31299 18.1156 5.35432 18.3232 5.43462 18.5169C5.51492 18.7106 5.63262 18.8866 5.78099 19.0349C5.92937 19.1831 6.10552 19.3007 6.29938 19.381C6.49324 19.4612 6.70102 19.5025 6.91086 19.5025H11.1657V18.4397H6.91086C6.7698 18.4397 6.63452 18.3837 6.53477 18.284C6.43503 18.1843 6.37899 18.0492 6.37899 17.9082V5.37302L10.3257 1.43296H18.6152C18.7563 1.43296 18.8916 1.48895 18.9913 1.58861C19.0911 1.68828 19.1471 1.82345 19.1471 1.96439V17.906C19.1471 18.0469 19.0911 18.1821 18.9913 18.2817C18.8916 18.3814 18.7563 18.4374 18.6152 18.4374H14.3603V19.5002H18.6152C19.039 19.5002 19.4454 19.332 19.7451 19.0326C20.0448 18.7332 20.2131 18.3271 20.2131 17.9037V1.96667C20.2131 1.75691 20.1717 1.54921 20.0914 1.35543C20.011 1.16165 19.8932 0.985602 19.7447 0.837333C19.5962 0.689065 19.4199 0.571487 19.2259 0.49132C19.0319 0.411153 18.824 0.369968 18.6141 0.370118Z" fill="#FF6E6A"/>
<path d="M9.57589 0.901451V4.09457C9.57589 4.23551 9.51987 4.37068 9.42012 4.47034C9.32038 4.57 9.1851 4.62599 9.04404 4.62599H7.97803V5.68884H9.04176C9.46554 5.68884 9.87196 5.52063 10.1716 5.22122C10.4713 4.92181 10.6396 4.51572 10.6396 4.09229V0.89917L9.57589 0.901451Z" fill="#FF6E6A"/>
<path d="M13.1392 10.6223C13.0651 10.5462 12.9699 10.4941 12.8659 10.4725C12.7619 10.451 12.6539 10.461 12.5556 10.5014C12.4574 10.5417 12.3735 10.6105 12.3148 10.699C12.2561 10.7874 12.2252 10.8914 12.2261 10.9975V21.6248H13.2898V12.2816L15.5725 14.5623L16.3246 13.8108L13.1392 10.6223Z" fill="#FF6E6A"/>
<path d="M12.3878 10.6224L9.19678 13.8108L9.94894 14.5623L13.14 11.3739L12.3878 10.6224Z" fill="#FF6E6A"/>
<path d="M18.082 2.49585H17.0183V3.55869H18.082V2.49585Z" fill="#FF6E6A"/>
<path d="M15.9546 2.49585H14.8909V3.55869H15.9546V2.49585Z" fill="#FF6E6A"/>
<path d="M18.082 4.62158H17.0183V5.68445H18.082V4.62158Z" fill="#FF6E6A"/>
</svg>
