<svg width="34" height="34" viewBox="0 0 34 34" fill="none" xmlns="http://www.w3.org/2000/svg">
<path d="M10.845 26.4038C10.1427 26.4038 9.45625 26.6119 8.87234 27.0017C8.28843 27.3915 7.83333 27.9456 7.56459 28.5939C7.29585 29.2422 7.22554 29.9555 7.36254 30.6437C7.49954 31.3319 7.83772 31.9641 8.33429 32.4603C8.83086 32.9564 9.46352 33.2943 10.1523 33.4312C10.841 33.5681 11.555 33.4979 12.2038 33.2293C12.8526 32.9608 13.4071 32.5061 13.7973 31.9226C14.1874 31.3392 14.3957 30.6533 14.3957 29.9516C14.3957 29.0107 14.0216 28.1083 13.3557 27.4429C12.6898 26.7776 11.7867 26.4038 10.845 26.4038ZM10.845 31.9222C10.4549 31.9222 10.0736 31.8066 9.74929 31.5901C9.42496 31.3736 9.17217 31.0658 9.0229 30.7057C8.87362 30.3456 8.83457 29.9494 8.91067 29.5672C8.98677 29.1849 9.1746 28.8338 9.45042 28.5582C9.72624 28.2826 10.0777 28.0949 10.4602 28.0188C10.8428 27.9428 11.2393 27.9819 11.5997 28.131C11.9601 28.2802 12.2681 28.5327 12.4848 28.8568C12.7015 29.1808 12.8172 29.5619 12.8172 29.9516C12.8172 30.4743 12.6094 30.9755 12.2396 31.345C11.8697 31.7146 11.3681 31.9222 10.845 31.9222Z" fill="#FF6E6A"/>
<path d="M25.8363 26.4038C25.1341 26.4038 24.4476 26.6119 23.8637 27.0017C23.2798 27.3915 22.8247 27.9456 22.5559 28.5939C22.2872 29.2422 22.2169 29.9555 22.3539 30.6437C22.4909 31.3319 22.829 31.9641 23.3256 32.4603C23.8222 32.9564 24.4549 33.2943 25.1436 33.4312C25.8324 33.5681 26.5463 33.4979 27.1951 33.2293C27.8439 32.9608 28.3985 32.5061 28.7886 31.9226C29.1788 31.3392 29.387 30.6533 29.387 29.9516C29.387 29.0107 29.0129 28.1083 28.347 27.4429C27.6812 26.7776 26.778 26.4038 25.8363 26.4038ZM25.8363 31.9222C25.4463 31.9222 25.0649 31.8066 24.7406 31.5901C24.4163 31.3736 24.1635 31.0658 24.0143 30.7057C23.865 30.3456 23.8259 29.9494 23.902 29.5672C23.9781 29.1849 24.1659 28.8338 24.4418 28.5582C24.7176 28.2826 25.069 28.0949 25.4516 28.0188C25.8341 27.9428 26.2307 27.9819 26.5911 28.131C26.9514 28.2802 27.2595 28.5327 27.4762 28.8568C27.6929 29.1808 27.8086 29.5619 27.8086 29.9516C27.8086 30.4743 27.6008 30.9755 27.2309 31.345C26.861 31.7146 26.3594 31.9222 25.8363 31.9222Z" fill="#FF6E6A"/>
<path d="M33.8451 5.70906C33.6809 5.52955 33.4561 5.41704 33.2139 5.39317L7.52824 5.03851L6.81833 2.87176C6.57449 2.16456 6.11776 1.55 5.51071 1.11228C4.90366 0.674573 4.176 0.435127 3.42743 0.426758H0.784105C0.574788 0.426758 0.374043 0.50984 0.226034 0.657728C0.078024 0.805616 -0.00512695 1.0062 -0.00512695 1.21534C-0.00512695 1.42449 0.078024 1.62506 0.226034 1.77295C0.374043 1.92084 0.574788 2.00392 0.784105 2.00392H3.42743C3.84606 2.01354 4.25175 2.15074 4.59015 2.39716C4.92856 2.64357 5.18353 2.98742 5.3209 3.38266L10.3314 18.4803L9.93646 19.3926C9.71957 19.9515 9.63866 20.5538 9.70037 21.15C9.76208 21.7462 9.96465 22.3192 10.2914 22.8218C10.6148 23.3152 11.0527 23.7234 11.5677 24.0117C12.0827 24.2999 12.6597 24.4598 13.2497 24.4777H28.5984C28.8077 24.4777 29.0085 24.3946 29.1565 24.2467C29.3045 24.0988 29.3876 23.8982 29.3876 23.6891C29.3876 23.4799 29.3045 23.2794 29.1565 23.1315C29.0085 22.9836 28.8077 22.9005 28.5984 22.9005H13.2509C12.9178 22.8921 12.592 22.8013 12.3028 22.6361C12.0135 22.4709 11.7699 22.2365 11.5937 21.954C11.4189 21.6744 11.3103 21.3587 11.2761 21.0308C11.2418 20.703 11.2829 20.3716 11.3962 20.0621L11.7124 19.3527L28.3222 17.6148C29.2116 17.5168 30.0488 17.1464 30.7192 16.5543C31.3896 15.9623 31.8604 15.1775 32.0669 14.3076L33.9604 6.38417C34.0037 6.27168 34.0158 6.14961 33.9955 6.0308C33.9752 5.912 33.9233 5.80086 33.8451 5.70906ZM30.5352 13.9473C30.4105 14.507 30.1094 15.012 29.6761 15.388C29.2429 15.7641 28.7003 15.9914 28.1282 16.0365L11.7124 17.7288L8.04413 6.61567L32.2278 6.97034L30.5352 13.9473Z" fill="#FF6E6A"/>
</svg>
