<svg width="31" height="38" viewBox="0 0 31 38" fill="none" xmlns="http://www.w3.org/2000/svg">
<path d="M21.2853 3.65039C21.1424 3.65039 21.0028 3.69273 20.884 3.77204C20.7652 3.85136 20.6725 3.96411 20.6179 4.09601C20.5632 4.22791 20.5489 4.37305 20.5768 4.51308C20.6046 4.65311 20.6734 4.78173 20.7745 4.88269C20.8755 4.98364 21.0042 5.05239 21.1444 5.08025C21.2845 5.1081 21.4298 5.0938 21.5618 5.03917C21.6938 4.98453 21.8067 4.89201 21.886 4.7733C21.9654 4.65459 22.0078 4.51502 22.0078 4.37225C22.0075 4.1809 21.9313 3.99746 21.7959 3.86215C21.6604 3.72684 21.4768 3.65069 21.2853 3.65039Z" fill="#FF6E6A"/>
<path d="M9.71794 3.65039C9.57505 3.65039 9.43536 3.69273 9.31656 3.77204C9.19775 3.85136 9.10515 3.96411 9.05047 4.09601C8.99579 4.22791 8.98149 4.37305 9.00937 4.51308C9.03725 4.65311 9.10605 4.78173 9.20708 4.88269C9.30812 4.98364 9.43686 5.05239 9.577 5.08025C9.71715 5.1081 9.8624 5.0938 9.99441 5.03917C10.1264 4.98453 10.2393 4.89201 10.3186 4.7733C10.398 4.65459 10.4404 4.51502 10.4404 4.37225C10.4401 4.1809 10.3639 3.99746 10.2285 3.86215C10.093 3.72684 9.90946 3.65069 9.71794 3.65039Z" fill="#FF6E6A"/>
<path d="M30.537 36.5213L25.7537 31.5286C26.6885 31.4938 27.5735 31.0986 28.223 30.4258C28.8724 29.7531 29.2359 28.8551 29.237 27.9204V6.48667C29.2369 5.31575 28.8301 4.18116 28.086 3.27663C27.3418 2.37209 26.3065 1.75372 25.1567 1.52709C22.5868 1.01825 19.9733 0.761581 17.3534 0.760742L13.5345 0.760742C10.9489 0.761281 8.36954 1.01644 5.83396 1.52253C4.68802 1.75427 3.65734 2.3743 2.91616 3.27778C2.17498 4.18126 1.76878 5.31276 1.76625 6.48097V27.9204C1.76751 28.8645 2.13837 29.7707 2.79954 30.4452C3.46071 31.1196 4.35972 31.5089 5.30438 31.5298L0.466269 36.519C0.367286 36.6208 0.300554 36.7496 0.274417 36.8891C0.248279 37.0286 0.263895 37.1728 0.319318 37.3035C0.37474 37.4342 0.467508 37.5457 0.586012 37.624C0.704517 37.7023 0.843496 37.744 0.985573 37.7438H6.15468C6.26896 37.7438 6.38163 37.7167 6.48341 37.6648C6.5852 37.6128 6.67319 37.5375 6.74018 37.445L8.93268 34.4207H22.1402L24.3327 37.445C24.3997 37.5374 24.4878 37.6127 24.5895 37.6647C24.6913 37.7166 24.8039 37.7437 24.9182 37.7438H30.0142C30.1559 37.744 30.2945 37.7026 30.4129 37.6247C30.5312 37.5468 30.624 37.4359 30.6797 37.3057C30.7354 37.1756 30.7516 37.0319 30.7262 36.8926C30.7008 36.7534 30.635 36.6246 30.537 36.5224V36.5213ZM3.21231 27.9204V6.48097C3.21413 5.64645 3.5043 4.83815 4.03378 4.19275C4.56325 3.54735 5.29954 3.10443 6.11815 2.9389C8.56093 2.45157 11.0458 2.20596 13.5368 2.20562H17.3557C19.8829 2.20622 22.4039 2.45372 24.8828 2.9446C25.7035 3.10697 26.4423 3.54883 26.9733 4.19479C27.5042 4.84074 27.7944 5.65077 27.7944 6.48667V27.9204C27.7944 28.4951 27.5659 29.0462 27.1592 29.4525C26.7525 29.8589 26.201 30.0872 25.6258 30.0872H5.38085C4.80572 30.0872 4.25414 29.8589 3.84747 29.4525C3.44079 29.0462 3.21231 28.4951 3.21231 27.9204ZM5.78031 36.2989H2.6873L7.3097 31.532H9.23741L5.78031 36.2989ZM9.977 32.9758L11.0247 31.5309H20.0413L21.089 32.9758H9.977ZM25.2891 36.2989L21.832 31.532H23.7563L28.3217 36.2989H25.2891Z" fill="#FF6E6A"/>
<path d="M25.6224 6.53906H5.38085C5.18924 6.53906 5.00548 6.61512 4.86999 6.75049C4.7345 6.88587 4.65839 7.06948 4.65839 7.26093V19.2521C4.65839 19.4436 4.7345 19.6272 4.86999 19.7626C5.00548 19.8979 5.18924 19.974 5.38085 19.974H25.6224C25.814 19.974 25.9978 19.8979 26.1333 19.7626C26.2687 19.6272 26.3449 19.4436 26.3449 19.2521V7.26093C26.3449 7.06948 26.2687 6.88587 26.1333 6.75049C25.9978 6.61512 25.814 6.53906 25.6224 6.53906ZM14.7797 18.5291H6.10559V7.98393H14.7797V18.5291ZM24.9011 18.5291H16.2269V7.98393H24.9011V18.5291Z" fill="#FF6E6A"/>
<path d="M18.3944 3.65039H12.6112C12.4195 3.65039 12.2355 3.7265 12.1 3.86199C11.9644 3.99747 11.8882 4.18123 11.8882 4.37283C11.8882 4.56444 11.9644 4.74819 12.1 4.88368C12.2355 5.01916 12.4195 5.09528 12.6112 5.09528H18.3944C18.5861 5.09528 18.77 5.01916 18.9056 4.88368C19.0412 4.74819 19.1174 4.56444 19.1174 4.37283C19.1174 4.18123 19.0412 3.99747 18.9056 3.86199C18.77 3.7265 18.5861 3.65039 18.3944 3.65039Z" fill="#FF6E6A"/>
<path d="M23.455 22.1406C22.883 22.1406 22.3238 22.3101 21.8482 22.6276C21.3726 22.9452 21.0019 23.3965 20.783 23.9245C20.5641 24.4525 20.5068 25.0336 20.6184 25.5941C20.73 26.1547 21.0055 26.6696 21.4099 27.0737C21.8144 27.4778 22.3297 27.7531 22.8908 27.8646C23.4518 27.9761 24.0333 27.9189 24.5618 27.7001C25.0902 27.4814 25.5419 27.111 25.8597 26.6358C26.1775 26.1606 26.3471 25.6019 26.3471 25.0304C26.3465 24.2641 26.0416 23.5295 25.4994 22.9877C24.9571 22.4459 24.2218 22.1412 23.455 22.1406ZM23.455 26.4741C23.169 26.4741 22.8894 26.3894 22.6516 26.2306C22.4138 26.0718 22.2285 25.8462 22.119 25.5821C22.0096 25.3181 21.9809 25.0276 22.0367 24.7473C22.0925 24.4671 22.2302 24.2096 22.4325 24.0075C22.6347 23.8055 22.8924 23.6679 23.1729 23.6121C23.4534 23.5564 23.7441 23.585 24.0084 23.6944C24.2726 23.8037 24.4985 23.9889 24.6574 24.2265C24.8163 24.4641 24.9011 24.7434 24.9011 25.0292C24.9008 25.4123 24.7483 25.7797 24.4772 26.0506C24.2061 26.3215 23.8384 26.4738 23.455 26.4741Z" fill="#FF6E6A"/>
<path d="M7.55052 22.1406C6.97851 22.1406 6.41935 22.3101 5.94374 22.6276C5.46813 22.9452 5.09743 23.3965 4.87854 23.9245C4.65964 24.4525 4.60237 25.0336 4.71396 25.5941C4.82555 26.1547 5.101 26.6696 5.50547 27.0737C5.90994 27.4778 6.42528 27.7531 6.9863 27.8646C7.54732 27.9761 8.12883 27.9189 8.6573 27.7001C9.18577 27.4814 9.63746 27.111 9.95525 26.6358C10.273 26.1606 10.4427 25.6019 10.4427 25.0304C10.4421 24.2641 10.1372 23.5295 9.59491 22.9877C9.05266 22.4459 8.31738 22.1412 7.55052 22.1406ZM7.55052 26.4741C7.26452 26.4741 6.98494 26.3894 6.74713 26.2306C6.50933 26.0718 6.32398 25.8462 6.21453 25.5821C6.10508 25.3181 6.07644 25.0276 6.13224 24.7473C6.18804 24.4671 6.32576 24.2096 6.528 24.0075C6.73023 23.8055 6.9879 23.6679 7.26841 23.6121C7.54892 23.5564 7.83968 23.585 8.10391 23.6944C8.36815 23.8037 8.59399 23.9889 8.75289 24.2265C8.91178 24.4641 8.9966 24.7434 8.9966 25.0292C8.9963 25.4123 8.84384 25.7797 8.57272 26.0506C8.30159 26.3215 7.93395 26.4738 7.55052 26.4741Z" fill="#FF6E6A"/>
<path d="M18.3944 22.8638H12.6112C12.4195 22.8638 12.2355 22.9399 12.1 23.0754C11.9644 23.2109 11.8882 23.3946 11.8882 23.5862C11.8882 23.7778 11.9644 23.9616 12.1 24.0971C12.2355 24.2325 12.4195 24.3087 12.6112 24.3087H18.3944C18.5861 24.3087 18.77 24.2325 18.9056 24.0971C19.0412 23.9616 19.1174 23.7778 19.1174 23.5862C19.1174 23.3946 19.0412 23.2109 18.9056 23.0754C18.77 22.9399 18.5861 22.8638 18.3944 22.8638Z" fill="#FF6E6A"/>
<path d="M18.3944 25.7524H12.6112C12.4195 25.7524 12.2355 25.8286 12.1 25.964C11.9644 26.0995 11.8882 26.2833 11.8882 26.4749C11.8882 26.6665 11.9644 26.8502 12.1 26.9857C12.2355 27.1212 12.4195 27.1973 12.6112 27.1973H18.3944C18.5861 27.1973 18.77 27.1212 18.9056 26.9857C19.0412 26.8502 19.1174 26.6665 19.1174 26.4749C19.1174 26.2833 19.0412 26.0995 18.9056 25.964C18.77 25.8286 18.5861 25.7524 18.3944 25.7524Z" fill="#FF6E6A"/>
</svg>
