<svg width="9" height="31" viewBox="0 0 9 31" fill="none" xmlns="http://www.w3.org/2000/svg">
<path opacity="0.6" d="M4.33061 7.9852C6.53681 7.9852 8.32529 6.1982 8.32529 3.99382C8.32529 1.78944 6.53681 0.00244141 4.33061 0.00244141C2.12441 0.00244141 0.335938 1.78944 0.335938 3.99382C0.335938 6.1982 2.12441 7.9852 4.33061 7.9852Z" fill="black"/>
<path opacity="0.6" d="M4.33061 19.3891C6.53681 19.3891 8.32529 17.6021 8.32529 15.3978C8.32529 13.1934 6.53681 11.4064 4.33061 11.4064C2.12441 11.4064 0.335938 13.1934 0.335938 15.3978C0.335938 17.6021 2.12441 19.3891 4.33061 19.3891Z" fill="black"/>
<path opacity="0.6" d="M4.33061 30.7931C6.53681 30.7931 8.32529 29.0061 8.32529 26.8017C8.32529 24.5973 6.53681 22.8103 4.33061 22.8103C2.12441 22.8103 0.335938 24.5973 0.335938 26.8017C0.335938 29.0061 2.12441 30.7931 4.33061 30.7931Z" fill="black"/>
</svg>
