<svg width="76" height="62" viewBox="0 0 76 62" fill="none" xmlns="http://www.w3.org/2000/svg">
<path d="M0.623762 31.3827C0.623762 31.3827 3.22783 18.6305 16.452 17.6758C29.0596 17.6082 44.8878 17.6758 44.8878 17.6758V10.7194H15.5606C15.5606 10.7194 -1.08998 11.4027 0.623762 31.3827Z" fill="#FF6E6A"/>
<path d="M35.7008 26.0256V32.7132H17.4418C15.4253 32.7299 13.4645 33.3836 11.8338 34.5827C10.203 35.7819 8.98384 37.4665 8.34693 39.4008C5.79764 46.3667 9.93157 50.6162 9.93157 50.6162C9.93157 50.6162 13.166 56.0491 21.6088 54.0986C30.0516 52.1481 29.0176 44.0102 29.0176 44.0102L35.7008 43.9976C35.7008 43.9976 36.2525 57.1636 23.092 61.2038C9.93156 65.2439 2.76603 52.4966 2.76603 52.4966C2.76603 52.4966 -2.33254 42.5358 2.76603 34.9075C4.65852 32.0375 7.1881 29.6543 10.1531 27.9478C12.3819 26.6829 14.8961 26.0211 17.4521 26.0266L35.7008 26.0256Z" fill="#FF6E6A"/>
<path d="M56.3643 26.7908C55.3564 26.8055 54.3937 27.2118 53.6801 27.9237C52.9665 28.6356 52.5579 29.5973 52.5408 30.6052C52.5384 31.3626 52.7608 32.1038 53.18 32.7347C53.5991 33.3656 54.1961 33.858 54.8952 34.1494C55.5944 34.4408 56.3643 34.5181 57.1075 34.3716C57.8507 34.2251 58.5336 33.8613 59.0699 33.3264C59.6061 32.7914 59.9715 32.1093 60.1198 31.3665C60.2681 30.6237 60.1926 29.8536 59.9029 29.1537C59.6131 28.4539 59.1222 27.8557 58.4923 27.4351C57.8624 27.0145 57.1217 26.7902 56.3643 26.7908Z" fill="#FF6E6A"/>
<path d="M72.7565 20.071C72.3619 19.9075 72.0349 19.6128 71.83 19.2358C71.6252 18.8589 71.555 18.4227 71.631 17.9999C71.6909 14.569 71.6702 11.138 71.6496 7.70709C71.6974 6.02099 71.2021 4.36458 70.2377 2.98535C69.2733 1.60613 67.8915 0.578154 66.2989 0.0550317C66.2555 0.0394365 66.2111 0.0196825 66.1708 0.00512695H5.9292C4.40341 0.473954 3.06112 1.41089 2.08981 2.68508C1.1185 3.95927 0.566659 5.5071 0.511358 7.11239C0.5 7.33592 0.5 7.55946 0.5 7.78195V17.8003C1.22226 16.0015 2.24013 14.338 3.51095 12.8795C3.79593 12.5531 4.08918 12.2463 4.38759 11.9542C4.38759 10.674 4.38759 9.39172 4.38759 8.10737C4.35988 7.35637 4.47303 6.60684 4.72111 5.89805C4.98636 5.23148 5.4355 4.65526 6.0155 4.23744C6.5955 3.81961 7.28214 3.57762 7.99432 3.54005C8.16018 3.52605 8.32667 3.52119 8.49305 3.52549C30.2584 3.52549 41.8375 3.52549 63.6028 3.52549C64.4975 3.46559 65.3848 3.72226 66.1114 4.25115C66.838 4.78004 67.3583 5.5479 67.5823 6.42204C67.6701 6.77237 67.7125 7.13268 67.7083 7.49396C67.7172 11.1793 67.7172 14.8643 67.7083 18.5489C67.7083 18.709 67.6845 18.8702 67.666 19.1124H66.7367C63.1041 19.1124 59.4716 19.0864 55.8401 19.1218C52.7721 19.2049 49.8613 20.5063 47.7425 22.7419C45.6237 24.9775 44.4688 27.9661 44.5297 31.0557C44.5906 34.1453 45.8624 37.0853 48.0677 39.2345C50.273 41.3837 53.2328 42.5676 56.3016 42.5281C59.7669 42.5614 63.2332 42.5344 66.6985 42.5344H67.667C67.6856 42.8639 67.7124 43.1322 67.7124 43.4004C67.7124 46.8314 67.6381 50.2706 67.7403 53.7016C67.7872 54.2932 67.7056 54.8879 67.5013 55.4446C67.2971 56.0013 66.9749 56.5066 66.5573 56.9254C66.1397 57.3442 65.6366 57.6665 65.0829 57.87C64.5293 58.0734 63.9382 58.1531 63.3509 58.1036C53.7853 58.0651 54.4058 58.089 44.8402 58.089H31.9704C30.3487 59.7225 28.4435 61.0428 26.3491 61.9847C42.2319 62.0003 47.9296 61.9962 63.8114 61.9847C64.8618 61.9963 65.9035 61.793 66.8735 61.3872C67.8435 60.9813 68.7216 60.3814 69.4544 59.6237C70.1873 58.866 70.7598 57.9664 71.1371 56.9793C71.5144 55.9923 71.6888 54.9384 71.6496 53.8815C71.6723 50.2238 71.664 46.5662 71.6444 42.9097C71.6113 42.6835 71.6575 42.4527 71.7751 42.2571C71.8927 42.0614 72.0743 41.9132 72.2887 41.8378C73.0303 41.483 73.6856 40.9689 74.2085 40.3316C74.7314 39.6942 75.1092 38.9492 75.3152 38.149C75.368 37.9975 75.4298 37.8492 75.5 37.705V23.9719C75.3433 23.1631 75.0176 22.397 74.5446 21.7245C74.0717 21.052 73.4622 20.4884 72.7565 20.071ZM71.6114 36.29C71.6011 37.8714 70.8628 38.568 69.2943 38.5773C67.0485 38.5856 64.8027 38.5773 62.5569 38.5773C60.5052 38.5773 58.4535 38.5898 56.4018 38.5773C54.6262 38.6428 52.883 38.0858 51.4697 37.0015C50.0565 35.9171 49.0607 34.3726 48.6524 32.6314C47.4319 28.299 50.8662 23.3002 55.3227 23.1516C60.0023 22.9967 64.6891 23.0403 69.3728 23.0372C70.8886 23.0372 71.6 23.7827 71.6103 25.3245C71.6351 28.9814 71.6351 32.6383 71.6103 36.2952" fill="#FF6E6A"/>
</svg>
