<svg width="128" height="128" viewBox="0 0 128 128" fill="none" xmlns="http://www.w3.org/2000/svg">
<g filter="url(#filter0_d_244_213)">
<rect x="4" y="4" width="120" height="120" rx="20" fill="white" shape-rendering="crispEdges"/>
<path d="M26.6238 64.3827C26.6238 64.3827 29.2278 51.6305 42.452 50.6758C55.0596 50.6082 70.8878 50.6758 70.8878 50.6758V43.7194H41.5606C41.5606 43.7194 24.91 44.4027 26.6238 64.3827Z" fill="#FF6E6A"/>
<path d="M61.7008 59.0256V65.7132H43.4418C41.4253 65.7299 39.4645 66.3836 37.8338 67.5827C36.203 68.7819 34.9838 70.4665 34.3469 72.4008C31.7976 79.3667 35.9316 83.6162 35.9316 83.6162C35.9316 83.6162 39.166 89.0491 47.6088 87.0986C56.0516 85.1481 55.0176 77.0102 55.0176 77.0102L61.7008 76.9976C61.7008 76.9976 62.2525 90.1636 49.092 94.2038C35.9316 98.2439 28.766 85.4966 28.766 85.4966C28.766 85.4966 23.6675 75.5358 28.766 67.9075C30.6585 65.0375 33.1881 62.6543 36.1531 60.9478C38.3819 59.6829 40.8961 59.0211 43.4521 59.0266L61.7008 59.0256Z" fill="#FF6E6A"/>
<path d="M82.3643 59.7908C81.3564 59.8055 80.3937 60.2118 79.6801 60.9237C78.9665 61.6356 78.5579 62.5973 78.5408 63.6052C78.5384 64.3626 78.7608 65.1038 79.18 65.7347C79.5991 66.3656 80.1961 66.858 80.8952 67.1494C81.5944 67.4408 82.3643 67.5181 83.1075 67.3716C83.8507 67.2251 84.5336 66.8613 85.0699 66.3264C85.6061 65.7914 85.9715 65.1093 86.1198 64.3665C86.2681 63.6237 86.1926 62.8536 85.9029 62.1537C85.6131 61.4539 85.1222 60.8557 84.4923 60.4351C83.8624 60.0145 83.1217 59.7902 82.3643 59.7908Z" fill="#FF6E6A"/>
<path d="M98.7565 53.071C98.3619 52.9075 98.0349 52.6128 97.83 52.2358C97.6252 51.8589 97.555 51.4227 97.631 50.9999C97.6909 47.569 97.6702 44.138 97.6496 40.7071C97.6974 39.021 97.2021 37.3646 96.2377 35.9854C95.2733 34.6061 93.8915 33.5782 92.2989 33.055C92.2555 33.0394 92.2111 33.0197 92.1708 33.0051H31.9292C30.4034 33.474 29.0611 34.4109 28.0898 35.6851C27.1185 36.9593 26.5667 38.5071 26.5114 40.1124C26.5 40.3359 26.5 40.5595 26.5 40.7819V50.8003C27.2223 49.0015 28.2401 47.338 29.5109 45.8795C29.7959 45.5531 30.0892 45.2463 30.3876 44.9542C30.3876 43.674 30.3876 42.3917 30.3876 41.1074C30.3599 40.3564 30.473 39.6068 30.7211 38.898C30.9864 38.2315 31.4355 37.6553 32.0155 37.2374C32.5955 36.8196 33.2821 36.5776 33.9943 36.54C34.1602 36.526 34.3267 36.5212 34.493 36.5255C56.2584 36.5255 67.8375 36.5255 89.6028 36.5255C90.4975 36.4656 91.3848 36.7223 92.1114 37.2511C92.838 37.78 93.3583 38.5479 93.5823 39.422C93.6701 39.7724 93.7125 40.1327 93.7083 40.494C93.7172 44.1793 93.7172 47.8643 93.7083 51.5489C93.7083 51.709 93.6845 51.8702 93.666 52.1124H92.7367C89.1041 52.1124 85.4716 52.0864 81.8401 52.1218C78.7721 52.2049 75.8613 53.5063 73.7425 55.7419C71.6237 57.9775 70.4688 60.9661 70.5297 64.0557C70.5906 67.1453 71.8624 70.0853 74.0677 72.2345C76.273 74.3837 79.2328 75.5676 82.3016 75.5281C85.7669 75.5614 89.2332 75.5344 92.6985 75.5344H93.667C93.6856 75.8639 93.7124 76.1322 93.7124 76.4004C93.7124 79.8314 93.6381 83.2706 93.7403 86.7016C93.7872 87.2932 93.7056 87.8879 93.5013 88.4446C93.2971 89.0013 92.9749 89.5066 92.5573 89.9254C92.1397 90.3442 91.6366 90.6665 91.0829 90.87C90.5293 91.0734 89.9382 91.1531 89.3509 91.1036C79.7853 91.0651 80.4058 91.089 70.8402 91.089H57.9704C56.3487 92.7225 54.4435 94.0428 52.3491 94.9847C68.2319 95.0003 73.9296 94.9962 89.8114 94.9847C90.8618 94.9963 91.9035 94.793 92.8735 94.3872C93.8435 93.9813 94.7216 93.3814 95.4544 92.6237C96.1873 91.866 96.7598 90.9664 97.1371 89.9793C97.5144 88.9923 97.6888 87.9384 97.6496 86.8815C97.6723 83.2238 97.664 79.5662 97.6444 75.9097C97.6113 75.6835 97.6575 75.4527 97.7751 75.2571C97.8927 75.0614 98.0743 74.9132 98.2887 74.8378C99.0303 74.483 99.6856 73.9689 100.209 73.3316C100.731 72.6942 101.109 71.9492 101.315 71.149C101.368 70.9975 101.43 70.8492 101.5 70.705V56.9719C101.343 56.1631 101.018 55.397 100.545 54.7245C100.072 54.052 99.4622 53.4884 98.7565 53.071ZM97.6114 69.29C97.6011 70.8714 96.8628 71.568 95.2943 71.5773C93.0485 71.5856 90.8027 71.5773 88.5569 71.5773C86.5052 71.5773 84.4535 71.5898 82.4018 71.5773C80.6262 71.6428 78.883 71.0858 77.4697 70.0015C76.0565 68.9171 75.0607 67.3726 74.6524 65.6314C73.4319 61.299 76.8662 56.3002 81.3227 56.1516C86.0023 55.9967 90.6891 56.0403 95.3728 56.0372C96.8886 56.0372 97.6 56.7827 97.6103 58.3245C97.6351 61.9814 97.6351 65.6383 97.6103 69.2952" fill="#FF6E6A"/>
</g>
<defs>
<filter id="filter0_d_244_213" x="0" y="0" width="128" height="128" filterUnits="userSpaceOnUse" color-interpolation-filters="sRGB">
<feFlood flood-opacity="0" result="BackgroundImageFix"/>
<feColorMatrix in="SourceAlpha" type="matrix" values="0 0 0 0 0 0 0 0 0 0 0 0 0 0 0 0 0 0 127 0" result="hardAlpha"/>
<feOffset/>
<feGaussianBlur stdDeviation="2"/>
<feComposite in2="hardAlpha" operator="out"/>
<feColorMatrix type="matrix" values="0 0 0 0 0 0 0 0 0 0 0 0 0 0 0 0 0 0 0.25 0"/>
<feBlend mode="normal" in2="BackgroundImageFix" result="effect1_dropShadow_244_213"/>
<feBlend mode="normal" in="SourceGraphic" in2="effect1_dropShadow_244_213" result="shape"/>
</filter>
</defs>
</svg>
